<svg width="80" height="80" viewBox="0 0 80 80" fill="none" xmlns="http://www.w3.org/2000/svg">
<g filter="url(#filter0_i)">
<path d="M18.0952 0H61.9048C71.9048 0 80 8.09524 80 18.0952V61.9048C80 71.9048 71.9048 80 61.9048 80H18.0952C8.09524 80 0 71.9048 0 61.9048V18.0952C0 8.09524 8.09524 0 18.0952 0Z" fill="url(#paint0_radial)"/>
<path d="M18.0952 0H61.9048C71.9048 0 80 8.09524 80 18.0952V61.9048C80 71.9048 71.9048 80 61.9048 80H18.0952C8.09524 80 0 71.9048 0 61.9048V18.0952C0 8.09524 8.09524 0 18.0952 0Z" fill="url(#paint1_radial)"/>
<path d="M38.7619 10.4761C42.5714 10.4761 46.381 10.4761 50.1905 10.4761C52.5714 10.4761 55.0476 10.6666 57.4286 11.3332C61.619 12.4761 64.8571 14.8571 67.0476 18.5713C68.381 20.8571 68.9524 23.3332 69.2381 25.9047C69.4286 28.1904 69.5238 30.4761 69.5238 32.7618C69.5238 38.3809 69.5238 44.0951 69.5238 49.7142C69.5238 52.2856 69.3333 54.8571 68.6667 57.4285C67.2381 62.5713 64.0952 66.1904 59.1429 68.0951C56.7619 69.0475 54.1905 69.3332 51.619 69.4285C45.3333 69.5237 39.0476 69.619 32.7619 69.619C30.0952 69.619 27.3333 69.5237 24.7619 69.1428C21.0476 68.6666 17.8095 67.238 15.1429 64.4761C12.6667 61.9047 11.3333 58.7618 10.8571 55.238C10.2857 50.4761 10.381 45.7142 10.381 40.8571C10.381 36.8571 10.4762 32.9523 10.4762 28.9523C10.5714 26.1904 10.7619 23.4285 11.8095 20.7618C13.7143 15.8094 17.2381 12.7618 22.381 11.3332C24.7619 10.6666 27.2381 10.5713 29.7143 10.4761C32.5714 10.4761 35.7143 10.4761 38.7619 10.4761ZM64.2857 40.0951C64.2857 37.8094 64.381 35.619 64.2857 33.3332C64.1905 30.5713 64.0952 27.7142 63.8095 24.9523C63.619 23.0475 62.8571 21.238 61.5238 19.7142C59.3333 17.1428 56.4762 15.9999 53.2381 15.8094C50.0952 15.619 46.8571 15.5237 43.7143 15.5237C38 15.5237 32.2857 15.619 26.5714 15.8094C24.4762 15.9047 22.4762 16.3809 20.6667 17.5237C17.7143 19.3332 16.1905 22.0952 15.9048 25.4285C15.619 28.2856 15.5238 31.1428 15.4286 33.9999C15.4286 39.5237 15.4286 44.9523 15.5238 50.4761C15.5238 52.3809 15.8095 54.3809 16.1905 56.1904C16.7619 58.6666 18.1905 60.6666 20.2857 62.0951C22.381 63.5237 24.8571 63.9999 27.3333 64.0952C30.2857 64.1904 33.1429 64.2856 36.0952 64.2856C41.7143 64.2856 47.3333 64.1904 52.9524 64.0952C55.3333 63.9999 57.619 63.4285 59.5238 61.9999C61.9048 60.2856 63.3333 57.9047 63.7143 55.0475C64 52.9523 64.0952 50.8571 64.1905 48.7618C64.2857 45.9047 64.2857 43.0475 64.2857 40.0951Z" fill="white"/>
<path d="M54.9537 40C54.9537 48.4762 48.1918 55.1429 39.7156 55.1429C31.4299 55.1429 24.668 48.2858 24.668 39.9048C24.668 31.6191 31.5251 24.7619 39.9061 24.7619C48.1918 24.8572 54.9537 31.6191 54.9537 40ZM29.9061 40C29.9061 45.5238 34.3823 50 39.9061 50C45.4299 50 49.9061 45.5238 49.9061 40C49.9061 34.5715 45.4299 30.0953 39.9061 30.0953C34.287 30.0953 29.9061 34.4762 29.9061 40Z" fill="white"/>
<path d="M55.618 20.762C57.618 20.762 59.1418 22.2858 59.1418 24.1905C59.1418 26.0953 57.618 27.7143 55.7133 27.7143C53.8085 27.7143 52.1895 26.1905 52.1895 24.2858C52.1895 22.2858 53.7133 20.762 55.618 20.762Z" fill="white"/>
</g>
<defs>
<filter id="filter0_i" x="0" y="-1" width="80" height="81" filterUnits="userSpaceOnUse" color-interpolation-filters="sRGB">
<feFlood flood-opacity="0" result="BackgroundImageFix"/>
<feBlend mode="normal" in="SourceGraphic" in2="BackgroundImageFix" result="shape"/>
<feColorMatrix in="SourceAlpha" type="matrix" values="0 0 0 0 0 0 0 0 0 0 0 0 0 0 0 0 0 0 127 0" result="hardAlpha"/>
<feOffset dy="-1"/>
<feGaussianBlur stdDeviation="0.5"/>
<feComposite in2="hardAlpha" operator="arithmetic" k2="-1" k3="1"/>
<feColorMatrix type="matrix" values="0 0 0 0 0 0 0 0 0 0 0 0 0 0 0 0 0 0 0.12 0"/>
<feBlend mode="normal" in2="shape" result="effect1_innerShadow"/>
</filter>
<radialGradient id="paint0_radial" cx="0" cy="0" r="1" gradientUnits="userSpaceOnUse" gradientTransform="translate(5.17752 78.2474) scale(101.57)">
<stop offset="0.09" stop-color="#FA8F21"/>
<stop offset="0.78" stop-color="#D82D7E"/>
</radialGradient>
<radialGradient id="paint1_radial" cx="0" cy="0" r="1" gradientUnits="userSpaceOnUse" gradientTransform="translate(55.4132 75.6787) scale(89.3828)">
<stop offset="0.64" stop-color="#8C3AAA" stop-opacity="0"/>
<stop offset="1" stop-color="#8C3AAA"/>
</radialGradient>
</defs>
</svg>
