<svg width="80" height="80" viewBox="0 0 80 80" fill="none" xmlns="http://www.w3.org/2000/svg">
<g filter="url(#filter0_i)">
<path d="M18.0952 0H61.9048C71.9048 0 80 8.09524 80 18.0952V61.9048C80 71.9048 71.9048 80 61.9048 80H18.0952C8.09524 80 0 71.9048 0 61.9048V18.0952C0 8.09524 8.09524 0 18.0952 0Z" fill="#FFFEFF"/>
<path d="M18.0952 0.5H61.9048C71.6286 0.5 79.5 8.37138 79.5 18.0952V61.9048C79.5 71.6286 71.6286 79.5 61.9048 79.5H18.0952C8.37138 79.5 0.5 71.6286 0.5 61.9048V18.0952C0.5 8.37138 8.37138 0.5 18.0952 0.5Z" stroke="black" stroke-opacity="0.05"/>
<g filter="url(#filter1_d)">
<path d="M40 70.5C57.1208 70.5 71 56.6208 71 39.5C71 22.3792 57.1208 8.5 40 8.5C22.8792 8.5 9 22.3792 9 39.5C9 56.6208 22.8792 70.5 40 70.5Z" fill="url(#paint0_linear)"/>
</g>
<path d="M39.9992 68.175C55.836 68.175 68.6742 55.3368 68.6742 39.5C68.6742 23.6632 55.836 10.825 39.9992 10.825C24.1625 10.825 11.3242 23.6632 11.3242 39.5C11.3242 55.3368 24.1625 68.175 39.9992 68.175Z" fill="url(#paint1_radial)"/>
<path d="M40.0488 17.8C39.855 17.8 39.6855 17.6547 39.6855 17.461V12.3992C39.6855 12.2055 39.855 12.0602 40.0488 12.0602C40.2425 12.0602 40.412 12.2055 40.412 12.3992V17.461C40.3878 17.6547 40.2425 17.8 40.0488 17.8Z" fill="#F3F3F3"/>
<path d="M40.0477 17.8242C39.8297 17.8242 39.6602 17.6547 39.6602 17.461V12.3992C39.6602 12.2055 39.8297 12.036 40.0477 12.036C40.2657 12.036 40.4352 12.2055 40.4352 12.3992V17.461C40.4352 17.6547 40.2414 17.8242 40.0477 17.8242ZM40.0477 12.0842C39.8782 12.0842 39.7087 12.2297 39.7087 12.3992V17.461C39.7087 17.6305 39.8539 17.776 40.0477 17.776C40.2172 17.776 40.3867 17.6305 40.3867 17.461V12.3992C40.3627 12.2297 40.2172 12.0842 40.0477 12.0842Z" fill="white"/>
<path d="M42.4718 15.0875C42.2781 15.0632 42.1328 14.918 42.1328 14.7242L42.3023 12.4717C42.3263 12.2782 42.4961 12.1327 42.6898 12.157C42.8836 12.1812 43.0288 12.3267 43.0288 12.5205L42.8593 14.7727C42.8351 14.9665 42.6656 15.1117 42.4718 15.0877V15.0875Z" fill="#F3F3F3"/>
<path d="M42.4707 15.1117C42.2527 15.0875 42.1074 14.918 42.1074 14.7242L42.2769 12.4717C42.3012 12.2782 42.4707 12.1087 42.6887 12.1327C42.9064 12.157 43.0519 12.3267 43.0519 12.5202L42.8824 14.7727C42.8582 14.9907 42.6887 15.136 42.4707 15.1117ZM42.6887 12.1812C42.5192 12.1812 42.3494 12.3025 42.3494 12.472L42.1799 14.7245C42.1799 14.8937 42.3012 15.0392 42.4949 15.0632C42.6644 15.0632 42.8339 14.9422 42.8339 14.7727L43.0034 12.5202C43.0034 12.3507 42.8582 12.2055 42.6884 12.1812H42.6887Z" fill="white"/>
<path d="M44.288 18.236C44.094 18.1875 43.973 18.018 43.9972 17.8242L44.9902 12.8592C45.0387 12.6657 45.2082 12.5445 45.402 12.593C45.5957 12.6415 45.7167 12.811 45.6925 13.0047L44.6995 17.9697C44.6752 18.139 44.4815 18.2602 44.2877 18.236H44.288Z" fill="#F3F3F3"/>
<path d="M44.2868 18.2602C44.0686 18.2117 43.9476 18.018 43.9718 17.8242L44.9648 12.8592C45.0133 12.6657 45.2071 12.5202 45.4248 12.5687C45.6428 12.6172 45.7641 12.811 45.7398 13.0047L44.7468 17.9697C44.6983 18.1632 44.5046 18.2845 44.2868 18.2602ZM45.4248 12.6172C45.2553 12.593 45.0858 12.6897 45.0373 12.8595L44.0446 17.8245C44.0203 17.9937 44.1171 18.1632 44.3108 18.212C44.4803 18.236 44.6498 18.139 44.6983 17.9695L45.6913 13.0047C45.7156 12.811 45.5946 12.6657 45.4248 12.6172Z" fill="white"/>
<path d="M47.1924 16.0562C47.1463 16.0451 47.1028 16.025 47.0645 15.9971C47.0261 15.9692 46.9936 15.9339 46.9689 15.8934C46.9442 15.8529 46.9277 15.808 46.9204 15.7611C46.913 15.7142 46.915 15.6664 46.9262 15.6202L47.5317 13.4407C47.5799 13.247 47.7737 13.15 47.9674 13.1985C48.1612 13.247 48.2824 13.4407 48.2339 13.6345L47.6284 15.8142C47.5799 16.0077 47.3862 16.1047 47.1924 16.0562Z" fill="#F3F3F3"/>
<path d="M47.1935 16.0805C46.9998 16.032 46.8545 15.814 46.9273 15.6205L47.5328 13.4405C47.581 13.247 47.799 13.1257 47.9928 13.1742C48.1865 13.2227 48.3318 13.4407 48.2593 13.6342L47.6538 15.8142C47.6053 16.0077 47.4115 16.129 47.1938 16.0805H47.1935ZM47.9928 13.247C47.8233 13.1985 47.6295 13.2955 47.581 13.465L46.9758 15.6445C46.9273 15.814 47.024 15.9837 47.2178 16.032C47.3873 16.0805 47.581 15.9837 47.6295 15.8142L48.235 13.6342C48.2593 13.465 48.1625 13.2955 47.9928 13.2467V13.247Z" fill="white"/>
<path d="M48.3795 19.4712C48.1858 19.3985 48.1133 19.1805 48.1858 19.011L50.1233 14.3367C50.1958 14.1672 50.414 14.0702 50.5833 14.1672C50.7773 14.2397 50.85 14.458 50.7773 14.6272L48.8398 19.3015C48.7673 19.4712 48.549 19.568 48.3798 19.4712H48.3795Z" fill="#F3F3F3"/>
<path d="M48.379 19.4955C48.2859 19.46 48.2107 19.3891 48.1699 19.2983C48.129 19.2075 48.1258 19.1042 48.161 19.011L50.0985 14.3367C50.1712 14.143 50.3892 14.0702 50.6072 14.143C50.7003 14.1785 50.7755 14.2494 50.8164 14.3402C50.8572 14.431 50.8604 14.5343 50.8252 14.6275L48.8877 19.3017C48.7907 19.4955 48.5727 19.5922 48.379 19.4955ZM50.583 14.1915C50.4135 14.119 50.2197 14.1915 50.147 14.361L48.2095 19.0352C48.137 19.2047 48.2337 19.3742 48.4032 19.447C48.5727 19.5195 48.7665 19.447 48.8392 19.2775L50.7767 14.6032C50.8252 14.4577 50.7525 14.264 50.583 14.1915Z" fill="white"/>
<path d="M51.649 17.9212C51.4793 17.8242 51.4065 17.6305 51.4793 17.461L52.4965 15.451C52.5933 15.2812 52.787 15.2085 52.981 15.3055C53.1505 15.4025 53.223 15.5962 53.1505 15.7655L52.133 17.7757C52.0363 17.9452 51.8425 18.0182 51.6488 17.9212H51.649Z" fill="#F3F3F3"/>
<path d="M51.6499 17.9455C51.4559 17.8485 51.3834 17.6305 51.4802 17.4367L52.4974 15.4267C52.5942 15.2327 52.8124 15.1602 53.0059 15.257C53.1997 15.354 53.2724 15.572 53.1754 15.7657L52.1584 17.7757C52.0614 17.9695 51.8434 18.0422 51.6497 17.9452L51.6499 17.9455ZM52.9819 15.3055C52.8122 15.233 52.6184 15.2812 52.5459 15.4507L51.5287 17.461C51.4562 17.6062 51.5287 17.8 51.6739 17.897C51.8434 17.9695 52.0372 17.9212 52.1099 17.7517L53.1272 15.7415C53.1997 15.5962 53.1272 15.4025 52.9819 15.3055Z" fill="white"/>
<path d="M52.1349 21.5055C51.9654 21.3845 51.9169 21.1665 52.0379 21.0212L54.8474 16.8312C54.9441 16.6617 55.1624 16.6375 55.3316 16.7345C55.5014 16.8555 55.5496 17.0735 55.4286 17.2187L52.6191 21.4087C52.5224 21.5782 52.3044 21.6267 52.1349 21.5055Z" fill="#F3F3F3"/>
<path d="M52.1333 21.5297C51.9638 21.4087 51.9153 21.1665 52.0123 20.997L54.8216 16.807C54.9426 16.6375 55.1606 16.589 55.3543 16.7102C55.5238 16.8312 55.5723 17.0735 55.4756 17.243L52.6661 21.433C52.5451 21.6025 52.3028 21.6507 52.1333 21.5297ZM55.3301 16.7587C55.1851 16.6617 54.9668 16.686 54.8701 16.8312L52.0606 21.0212C51.9638 21.1662 52.0121 21.3602 52.1576 21.457C52.3028 21.554 52.5208 21.5297 52.6176 21.3845L55.4271 17.2187C55.5238 17.0735 55.4756 16.8555 55.3301 16.7587Z" fill="white"/>
<path d="M55.6684 20.6095C55.5234 20.4882 55.4749 20.2702 55.5959 20.125L57.0007 18.357C57.1217 18.212 57.3397 18.1875 57.4849 18.3087C57.6304 18.4297 57.6787 18.6477 57.5574 18.793L56.1529 20.561C56.0319 20.7062 55.8139 20.7305 55.6687 20.6095H55.6684Z" fill="#F3F3F3"/>
<path d="M55.6463 20.6337C55.4768 20.5125 55.4526 20.2702 55.5738 20.1007L56.9783 18.333C57.0993 18.1632 57.3416 18.139 57.5111 18.2845C57.6806 18.4055 57.7048 18.6477 57.5836 18.8172L56.1791 20.5852C56.0581 20.7547 55.8158 20.779 55.6463 20.6337ZM57.4626 18.3327C57.3176 18.2117 57.1236 18.236 57.0026 18.3812L55.5978 20.1492C55.5011 20.2945 55.5253 20.4882 55.6703 20.6092C55.8158 20.7305 56.0096 20.7062 56.1306 20.561L57.5353 18.793C57.6323 18.6477 57.6078 18.4297 57.4628 18.333L57.4626 18.3327Z" fill="white"/>
<path d="M55.4273 24.2422C55.282 24.097 55.282 23.879 55.4273 23.7577L59.0115 20.1977C59.157 20.0525 59.3748 20.0765 59.496 20.1977C59.617 20.3187 59.6413 20.561 59.496 20.682L55.936 24.2422C55.7905 24.3875 55.5725 24.3875 55.4273 24.2422Z" fill="#F3F3F3"/>
<path d="M55.4039 24.2665C55.3341 24.1954 55.2949 24.0998 55.2949 24.0001C55.2949 23.9005 55.3341 23.8048 55.4039 23.7337L58.9882 20.1735C59.0592 20.1036 59.155 20.0644 59.2547 20.0644C59.3544 20.0644 59.4501 20.1036 59.5212 20.1735C59.591 20.2446 59.6302 20.3402 59.6302 20.4399C59.6302 20.5395 59.591 20.6352 59.5212 20.7062L55.9367 24.2662C55.8656 24.3361 55.7699 24.3752 55.6703 24.3752C55.5706 24.3752 55.475 24.3361 55.4039 24.2662V24.2665ZM59.4969 20.1977C59.3759 20.0765 59.1579 20.0765 59.0369 20.1977L55.4524 23.7577C55.3312 23.879 55.3312 24.097 55.4524 24.218C55.5734 24.3392 55.7914 24.3392 55.9124 24.218L59.4969 20.658C59.6179 20.5367 59.6179 20.343 59.4969 20.1977Z" fill="white"/>
<path d="M59.0606 24.0485C58.9396 23.9032 58.9396 23.6852 59.0848 23.564L60.8043 22.111C60.9496 21.99 61.1676 22.014 61.2888 22.1595C61.4098 22.3047 61.4098 22.5227 61.2646 22.6437L59.5451 24.097C59.3996 24.218 59.1816 24.1937 59.0606 24.0485Z" fill="#F3F3F3"/>
<path d="M59.0351 24.0727C58.8898 23.9032 58.9141 23.661 59.0593 23.54L60.7788 22.0867C60.9241 21.9415 61.1663 21.9657 61.3116 22.1352C61.4571 22.3047 61.4328 22.547 61.2876 22.668L59.5678 24.1212C59.4228 24.2662 59.1803 24.2422 59.0353 24.0727H59.0351ZM61.2633 22.1595C61.1421 22.0142 60.9483 22.0142 60.8033 22.111L59.0836 23.5642C58.9626 23.6852 58.9383 23.879 59.0593 24.0242C59.1803 24.1695 59.3743 24.1695 59.5193 24.0727L61.2391 22.6195C61.3843 22.4985 61.3843 22.3047 61.2633 22.1595Z" fill="white"/>
<path d="M58.0906 27.536C57.9696 27.3665 58.0181 27.1485 58.1876 27.0515L62.4016 24.2422C62.5711 24.1452 62.7891 24.1937 62.8859 24.3392C63.0071 24.5087 62.9586 24.7267 62.7891 24.8235L58.5751 27.6327C58.4296 27.7297 58.2116 27.6812 58.0906 27.536Z" fill="#F3F3F3"/>
<path d="M58.0672 27.536C57.9462 27.3665 57.9947 27.1242 58.1642 27.0032L62.3782 24.1937C62.5477 24.0727 62.7899 24.1212 62.9109 24.315C63.0322 24.4845 62.9834 24.7267 62.8142 24.8475L58.6002 27.6572C58.4304 27.7785 58.1884 27.73 58.0672 27.5362V27.536ZM62.8624 24.3635C62.7657 24.218 62.5719 24.1695 62.4267 24.2665L58.2124 27.0757C58.0674 27.1727 58.0187 27.3665 58.1399 27.536C58.2367 27.6812 58.4304 27.7297 58.5759 27.633L62.7899 24.8235C62.9352 24.7025 62.9594 24.5085 62.8624 24.3635Z" fill="white"/>
<path d="M61.7018 28.0447C61.6048 27.875 61.6533 27.6572 61.8228 27.5602L63.7845 26.4462C63.954 26.3492 64.172 26.422 64.2688 26.5912C64.3658 26.761 64.3173 26.9787 64.1478 27.0757L62.186 28.19C62.0165 28.2867 61.7985 28.2142 61.7015 28.0445L61.7018 28.0447Z" fill="#F3F3F3"/>
<path d="M61.6764 28.0687C61.5794 27.875 61.6279 27.657 61.7974 27.5602L63.7591 26.4462C63.9286 26.3492 64.1709 26.422 64.2676 26.5912C64.3646 26.7852 64.3162 27.0032 64.1467 27.1L62.1849 28.2142C62.0154 28.311 61.7732 28.2382 61.6764 28.0687ZM64.2434 26.6157C64.1466 26.4462 63.9529 26.3977 63.8076 26.4945L61.8459 27.6087C61.7006 27.7055 61.6521 27.8992 61.7246 28.0445C61.8216 28.214 62.0154 28.2625 62.1607 28.1657L64.1224 27.0515C64.2677 26.979 64.3161 26.7852 64.2434 26.6157Z" fill="white"/>
<path d="M60.0764 31.2657C60.0039 31.072 60.0764 30.8782 60.2702 30.8057L64.9444 28.8682C65.1139 28.7955 65.3319 28.8922 65.4044 29.0617C65.4772 29.2555 65.4044 29.4492 65.2106 29.5217L60.5366 31.4592C60.3669 31.532 60.1491 31.4592 60.0764 31.2657Z" fill="#F3F3F3"/>
<path d="M60.053 31.2897C59.9805 31.0962 60.053 30.8782 60.2467 30.7812L64.921 28.8437C65.0141 28.8086 65.1174 28.8119 65.2081 28.8527C65.2989 28.8936 65.3697 28.9687 65.4052 29.0617C65.478 29.2555 65.4052 29.4735 65.2115 29.5702L60.5375 31.5077C60.4443 31.5429 60.341 31.5398 60.2502 31.499C60.1594 31.4582 60.0885 31.383 60.053 31.29V31.2897ZM65.357 29.086C65.2842 28.9165 65.0905 28.8437 64.9452 28.8922L60.271 30.8297C60.1015 30.9022 60.0287 31.0962 60.1015 31.2657C60.174 31.4352 60.3677 31.508 60.5132 31.4595L65.1872 29.522C65.357 29.4495 65.4297 29.2555 65.357 29.086Z" fill="white"/>
<path d="M63.4928 32.4767C63.4203 32.2827 63.5171 32.0892 63.7108 32.0165L65.8421 31.314C66.0116 31.2415 66.2296 31.3625 66.2781 31.532C66.3506 31.7257 66.2538 31.9195 66.0601 31.9922L63.9288 32.6947C63.7593 32.7672 63.5656 32.6705 63.4928 32.4765V32.4767Z" fill="#F3F3F3"/>
<path d="M63.4691 32.5007C63.3966 32.307 63.4933 32.089 63.7116 32.0165L65.8426 31.314C66.0363 31.2415 66.2543 31.3625 66.3271 31.5565C66.3996 31.75 66.3028 31.968 66.0846 32.0407L63.9536 32.7432C63.7598 32.7915 63.5418 32.6945 63.4691 32.5007ZM66.2786 31.5807C66.2301 31.411 66.0363 31.314 65.8668 31.3625L63.7356 32.065C63.5661 32.1132 63.4933 32.307 63.5418 32.4767C63.5903 32.6462 63.7841 32.743 63.9536 32.6945L66.0848 31.9922C66.2543 31.9197 66.3271 31.75 66.2786 31.5805V31.5807Z" fill="white"/>
<path d="M61.3115 35.3587C61.263 35.165 61.384 34.9712 61.5777 34.947L66.5427 33.9782C66.7362 33.9297 66.906 34.075 66.9542 34.2687C67.0027 34.4625 66.8817 34.6562 66.688 34.6805L61.723 35.6492C61.5292 35.6735 61.3355 35.5525 61.3112 35.3587H61.3115Z" fill="#F3F3F3"/>
<path d="M61.2633 35.3587C61.2148 35.1407 61.3601 34.947 61.5538 34.8985L66.5188 33.9297C66.7126 33.8812 66.9063 34.0267 66.9546 34.2447C67.0031 34.4625 66.8578 34.6562 66.6641 34.7047L61.6991 35.6735C61.5056 35.722 61.3116 35.5767 61.2633 35.3585V35.3587ZM66.9063 34.2687C66.8821 34.0992 66.7126 33.9782 66.5431 34.0025L61.5781 34.9712C61.4086 34.9955 61.2876 35.189 61.3358 35.3587C61.3601 35.5282 61.5296 35.6492 61.6993 35.625L66.6641 34.6562C66.8336 34.6077 66.9546 34.4382 66.9063 34.2687Z" fill="white"/>
<path d="M64.4132 37.2235C64.389 37.0297 64.51 36.8602 64.7037 36.836L66.9317 36.5695C67.1255 36.5455 67.2952 36.6907 67.3192 36.8845C67.3435 37.0782 67.2225 37.2477 67.0287 37.272L64.8005 37.5382C64.631 37.5625 64.4372 37.4172 64.413 37.2235H64.4132Z" fill="#F3F3F3"/>
<path d="M64.3894 37.2235C64.3651 37.0055 64.5104 36.8117 64.7041 36.7875L66.9321 36.5212C67.1259 36.497 67.3196 36.6422 67.3439 36.8602C67.3681 37.0782 67.2229 37.272 67.0291 37.2962L64.8009 37.5625C64.6074 37.5867 64.4134 37.4415 64.3894 37.2235ZM67.3196 36.8845C67.2956 36.715 67.1261 36.5695 66.9564 36.5937L64.7284 36.8602C64.5589 36.8845 64.4376 37.054 64.4619 37.2235C64.4861 37.393 64.6556 37.5385 64.8251 37.5142L67.0534 37.2477C67.2229 37.2235 67.3439 37.054 67.3199 36.8845H67.3196Z" fill="white"/>
<path d="M61.7012 39.5727C61.7012 39.379 61.8462 39.2095 62.0402 39.2095H67.1019C67.2957 39.2095 67.4409 39.379 67.4409 39.5727C67.4409 39.7665 67.2957 39.936 67.1019 39.936H62.0402C61.8464 39.936 61.7012 39.7665 61.7012 39.5727Z" fill="#F3F3F3"/>
<path d="M61.6758 39.5727C61.6758 39.3547 61.8453 39.1852 62.039 39.1852H67.1008C67.2945 39.1852 67.464 39.3547 67.464 39.5727C67.464 39.7907 67.2945 39.9602 67.1008 39.9602H62.039C61.8453 39.9602 61.6758 39.7907 61.6758 39.5727ZM67.4155 39.597C67.4155 39.4275 67.2703 39.258 67.1005 39.258H62.0393C61.8698 39.258 61.7243 39.403 61.7243 39.597C61.7243 39.7665 61.8698 39.936 62.0393 39.936H67.101C67.2705 39.9117 67.4158 39.7665 67.4158 39.597H67.4155Z" fill="white"/>
<path d="M64.3889 42.0187C64.4129 41.825 64.5584 41.6797 64.7522 41.6797L67.0047 41.8492C67.1982 41.8735 67.3434 42.043 67.3192 42.2367C67.2952 42.4305 67.1497 42.5757 66.9559 42.5757L64.7037 42.4062C64.5342 42.382 64.3887 42.2125 64.3887 42.0187H64.3889Z" fill="#F3F3F3"/>
<path d="M64.3652 42.0187C64.3895 41.8007 64.559 41.6555 64.7527 41.6555L67.0052 41.825C67.1987 41.8492 67.3682 42.0187 67.344 42.2367C67.32 42.4547 67.1502 42.6 66.9565 42.6L64.7042 42.4305C64.5105 42.4062 64.3652 42.2125 64.3652 42.0187ZM67.32 42.2367C67.344 42.0672 67.1987 41.8977 67.0292 41.8977L64.7767 41.7282C64.6075 41.7282 64.462 41.8492 64.4377 42.0432C64.4137 42.2125 64.559 42.382 64.7285 42.382L66.981 42.5515C67.1502 42.5515 67.2957 42.4065 67.32 42.2367Z" fill="white"/>
<path d="M61.2629 43.7867C61.3114 43.593 61.4809 43.4717 61.6746 43.4962L66.6394 44.4892C66.8331 44.5375 66.9544 44.707 66.9059 44.9007C66.8574 45.0945 66.6879 45.2157 66.4941 45.1915L61.5291 44.1985C61.3596 44.1742 61.2386 43.9805 61.2629 43.7867Z" fill="#F3F3F3"/>
<path d="M61.2394 43.7867C61.2879 43.5687 61.4817 43.4477 61.6754 43.4717L66.6402 44.465C66.8339 44.5132 66.9792 44.707 66.9307 44.925C66.8824 45.143 66.6887 45.2642 66.4949 45.24L61.5299 44.247C61.3362 44.1985 61.2152 44.0047 61.2394 43.787V43.7867ZM66.8824 44.925C66.9067 44.7555 66.8099 44.586 66.6402 44.5375L61.6752 43.5445C61.5059 43.5205 61.3362 43.6172 61.2877 43.811C61.2637 43.9805 61.3604 44.15 61.5302 44.1985L66.4949 45.1915C66.6887 45.2157 66.8339 45.0945 66.8824 44.925Z" fill="white"/>
<path d="M63.4442 46.693C63.4553 46.6469 63.4754 46.6034 63.5033 46.5651C63.5312 46.5268 63.5664 46.4943 63.6069 46.4696C63.6473 46.4449 63.6923 46.4284 63.7391 46.421C63.786 46.4136 63.8338 46.4156 63.8799 46.4267L66.0597 47.032C66.2534 47.0805 66.3502 47.2745 66.3019 47.468C66.2908 47.5141 66.2707 47.5576 66.2428 47.596C66.2149 47.6344 66.1797 47.6669 66.1392 47.6917C66.0987 47.7164 66.0537 47.7329 66.0068 47.7403C65.9599 47.7476 65.912 47.7457 65.8659 47.7345L63.6862 47.129C63.4924 47.0805 63.3957 46.8867 63.4439 46.693H63.4442Z" fill="#F3F3F3"/>
<path d="M63.4187 46.693C63.4672 46.4992 63.6852 46.354 63.879 46.4267L66.0587 47.032C66.2525 47.0805 66.3737 47.2985 66.3252 47.4922C66.2767 47.686 66.0587 47.8312 65.865 47.7587L63.6852 47.1532C63.4915 47.1047 63.3702 46.911 63.419 46.6932L63.4187 46.693ZM66.2525 47.4922C66.301 47.3227 66.204 47.129 66.0345 47.0805L63.8547 46.475C63.6852 46.4265 63.5157 46.5235 63.4672 46.7172C63.419 46.8867 63.5157 47.0805 63.6852 47.129L65.865 47.7345C66.0345 47.7587 66.204 47.662 66.2525 47.4922Z" fill="white"/>
<path d="M60.0296 47.8555C60.1021 47.6617 60.3204 47.589 60.4896 47.6617L65.1641 49.5992C65.3336 49.6717 65.4304 49.89 65.3579 50.0592C65.2851 50.2532 65.0671 50.3257 64.8976 50.2532L60.2234 48.3157C60.0296 48.2432 59.9569 48.025 60.0296 47.8557V47.8555Z" fill="#F3F3F3"/>
<path d="M60.0041 47.8312C60.0396 47.7382 60.1105 47.663 60.2013 47.6221C60.2922 47.5813 60.3955 47.5781 60.4886 47.6132L65.1629 49.5507C65.3566 49.6235 65.4291 49.8415 65.3566 50.0595C65.3212 50.1526 65.2503 50.2278 65.1594 50.2686C65.0686 50.3095 64.9653 50.3127 64.8721 50.2775L60.1979 48.34C60.0041 48.243 59.9316 48.025 60.0041 47.8312ZM65.3081 50.0352C65.3806 49.8657 65.3081 49.672 65.1386 49.5992L60.4644 47.6617C60.2949 47.5892 60.1254 47.686 60.0526 47.8555C59.9801 48.025 60.0526 48.2187 60.2221 48.2915L64.8964 50.229C65.0659 50.2775 65.2596 50.2047 65.3081 50.0352Z" fill="white"/>
<path d="M61.604 51.125C61.701 50.9555 61.8945 50.8827 62.064 50.9555L64.0742 51.9727C64.2437 52.0452 64.3165 52.2632 64.2197 52.457C64.1227 52.6265 63.929 52.6995 63.7595 52.6265L61.7495 51.6095C61.5797 51.5125 61.507 51.2945 61.604 51.125Z" fill="#F3F3F3"/>
<path d="M61.5798 51.1007C61.6768 50.907 61.8948 50.8345 62.0885 50.9312L64.0985 51.9485C64.2923 52.0455 64.365 52.2635 64.268 52.457C64.1713 52.6507 63.953 52.7235 63.7595 52.6265L61.7495 51.6095C61.5555 51.537 61.483 51.2945 61.5798 51.1007ZM64.1955 52.4327C64.268 52.2632 64.2195 52.0695 64.05 51.997L62.04 50.9797C61.8945 50.9072 61.701 50.9797 61.604 51.125C61.5315 51.2945 61.5798 51.4882 61.7493 51.561L63.7593 52.5782C63.929 52.6507 64.1228 52.6025 64.1955 52.4327Z" fill="white"/>
<path d="M58.0437 51.5852C58.165 51.4157 58.3587 51.3672 58.5282 51.4882L62.7422 54.2977C62.9117 54.3945 62.936 54.6127 62.8392 54.782C62.718 54.9517 62.5242 55 62.3547 54.879L58.1407 52.0695C57.9712 51.9485 57.9227 51.7305 58.0437 51.5852Z" fill="#F3F3F3"/>
<path d="M58.0192 51.561C58.1405 51.3915 58.3827 51.343 58.5522 51.44L62.7662 54.2492C62.9357 54.3702 62.9842 54.5882 62.863 54.782C62.742 54.9517 62.4997 55 62.3305 54.9032L58.1162 52.0937C57.9225 51.9727 57.8982 51.7305 58.0192 51.561ZM62.7905 54.7577C62.8872 54.6127 62.863 54.3945 62.718 54.2977L58.5037 51.4882C58.3585 51.3915 58.1647 51.44 58.0677 51.5852C57.971 51.7305 57.9952 51.9485 58.1402 52.0452L62.3545 54.8547C62.4997 54.9517 62.6935 54.9032 62.7905 54.758V54.7577Z" fill="white"/>
<path d="M58.9389 55.097C59.0599 54.9515 59.2779 54.9032 59.4232 55.0245L61.1912 56.4047C61.3364 56.5257 61.3607 56.7437 61.2397 56.8892C61.1187 57.0342 60.9007 57.083 60.7552 56.9617L58.9872 55.5812C58.8422 55.4602 58.8177 55.2422 58.9389 55.097Z" fill="#F3F3F3"/>
<path d="M58.9155 55.0727C59.0365 54.9032 59.2788 54.879 59.4483 55.0002L61.2163 56.3805C61.3858 56.5015 61.41 56.7437 61.2888 56.9132C61.1678 57.083 60.9255 57.107 60.7563 56.986L58.988 55.6055C58.8185 55.4845 58.7945 55.2422 58.9155 55.0727ZM61.2405 56.8892C61.3615 56.7437 61.3373 56.55 61.192 56.429L59.424 55.0485C59.2788 54.9517 59.085 54.976 58.964 55.121C58.8428 55.2665 58.867 55.4602 59.0123 55.5812L60.7803 56.9617C60.9255 57.0587 61.1193 57.0342 61.2403 56.8892H61.2405Z" fill="white"/>
<path d="M55.331 54.8547C55.4765 54.7095 55.6945 54.7095 55.8155 54.8547L59.3997 58.4147C59.5452 58.5602 59.521 58.7782 59.3997 58.8992C59.2547 59.0445 59.0365 59.0445 58.9155 58.8992L55.331 55.3392C55.21 55.218 55.21 54.9757 55.331 54.8547Z" fill="#F3F3F3"/>
<path d="M55.3302 54.8305C55.4013 54.7606 55.497 54.7214 55.5967 54.7214C55.6965 54.7214 55.7922 54.7606 55.8633 54.8305L59.4475 58.3905C59.5174 58.4616 59.5566 58.5573 59.5566 58.657C59.5566 58.7567 59.5174 58.8524 59.4475 58.9235C59.3764 58.9933 59.2808 59.0325 59.1811 59.0325C59.0815 59.0325 58.9858 58.9933 58.9147 58.9235L55.3302 55.3635C55.1608 55.218 55.1608 54.976 55.3302 54.8305ZM59.399 58.875C59.5202 58.754 59.5202 58.536 59.399 58.415L55.8148 54.8547C55.6938 54.7337 55.4757 54.7337 55.3547 54.8547C55.2335 54.9757 55.2335 55.1937 55.3547 55.3147L58.939 58.875C59.06 59.0205 59.254 59.0205 59.399 58.875Z" fill="white"/>
<path d="M55.5498 58.4632C55.6953 58.3422 55.913 58.3422 56.0343 58.4875L57.5118 60.1827C57.6325 60.3282 57.6085 60.5462 57.463 60.6672C57.318 60.7882 57.0998 60.7882 56.9788 60.643L55.5013 58.9477C55.3803 58.8267 55.4045 58.6087 55.5498 58.4632Z" fill="#F3F3F3"/>
<path d="M55.5248 58.4632C55.6943 58.3182 55.9123 58.3422 56.0573 58.4875L57.5348 60.1827C57.6801 60.3282 57.6558 60.5702 57.4863 60.7157C57.3168 60.861 57.0988 60.8367 56.9536 60.6915L55.4761 58.9962C55.3551 58.8267 55.3551 58.5845 55.5246 58.4632H55.5248ZM57.4623 60.6672C57.6073 60.5462 57.6073 60.3522 57.5106 60.2072L56.0331 58.5117C55.9121 58.3907 55.7183 58.3665 55.5731 58.4875C55.4278 58.6087 55.4278 58.8025 55.5246 58.9475L57.0021 60.643C57.1231 60.7882 57.3171 60.7882 57.4621 60.6672H57.4623Z" fill="white"/>
<path d="M52.0615 57.543C52.231 57.422 52.449 57.4705 52.546 57.64L55.355 61.8297C55.452 61.9992 55.4035 62.2172 55.2583 62.3142C55.0888 62.4352 54.8708 62.3867 54.7738 62.2172L51.9645 58.0272C51.8675 57.858 51.916 57.6397 52.0613 57.543H52.0615Z" fill="#F3F3F3"/>
<path d="M52.06 57.5187C52.2295 57.3977 52.4717 57.4462 52.5927 57.6157L55.4022 61.8057C55.5232 61.975 55.4747 62.2172 55.2812 62.3382C55.1115 62.4595 54.8695 62.411 54.7482 62.2415L51.939 58.0515C51.818 57.858 51.8665 57.64 52.06 57.519V57.5187ZM55.257 62.29C55.4022 62.193 55.4507 61.9992 55.3537 61.854L52.5445 57.664C52.4475 57.519 52.2537 57.4945 52.0845 57.5915C51.939 57.6882 51.8905 57.882 51.9875 58.0275L54.7967 62.2172C54.8937 62.3382 55.1117 62.3867 55.2567 62.2897L55.257 62.29Z" fill="white"/>
<path d="M51.5511 61.1272C51.7206 61.0305 51.9385 61.079 52.0353 61.2485L53.1495 63.2102C53.2463 63.3797 53.1735 63.5977 53.004 63.6945C52.8345 63.7915 52.6166 63.743 52.5198 63.5735L51.4058 61.6117C51.333 61.4422 51.3815 61.2242 51.5508 61.1275L51.5511 61.1272Z" fill="#F3F3F3"/>
<path d="M51.5531 61.1032C51.7469 61.0062 51.9649 61.0547 52.0616 61.2242L53.1756 63.186C53.2726 63.3555 53.2241 63.5977 53.0306 63.6945C52.8366 63.7915 52.6186 63.743 52.5219 63.5735L51.4079 61.6117C51.3109 61.4422 51.3594 61.2242 51.5529 61.1032H51.5531ZM53.0061 63.6705C53.1516 63.5735 53.2241 63.3797 53.1274 63.2345L52.0134 61.2727C51.9164 61.1275 51.7226 61.079 51.5774 61.1515C51.4319 61.2485 51.3594 61.4422 51.4561 61.5875L52.5704 63.5492C52.6429 63.6945 52.8609 63.7672 53.0061 63.6702V63.6705Z" fill="white"/>
<path d="M48.3313 59.529C48.525 59.4565 48.7188 59.529 48.7915 59.6985L50.7533 64.3727C50.8258 64.5422 50.729 64.7602 50.5595 64.8327C50.39 64.9055 50.172 64.8327 50.0995 64.6632L48.1378 59.9892C48.065 59.8195 48.1618 59.6017 48.3313 59.529Z" fill="#F3F3F3"/>
<path d="M48.3318 59.5047C48.5255 59.4322 48.7435 59.5047 48.8405 59.6985L50.8023 64.3727C50.8374 64.4659 50.8341 64.5691 50.7933 64.6599C50.7524 64.7506 50.6773 64.8215 50.5843 64.857C50.3905 64.9297 50.1725 64.857 50.0758 64.6632L48.114 59.9892C48.0413 59.8195 48.1383 59.6017 48.3318 59.5047ZM50.5358 64.8087C50.7053 64.736 50.778 64.5422 50.7053 64.397L48.7435 59.7227C48.671 59.5532 48.4773 59.4805 48.3078 59.5532C48.1383 59.6257 48.0653 59.8195 48.1383 59.965L50.0998 64.6392C50.1968 64.8087 50.3663 64.8812 50.5358 64.8087Z" fill="white"/>
<path d="M47.1441 62.968C47.3381 62.8955 47.5317 62.9922 47.6044 63.186L48.3069 65.3172C48.3794 65.4867 48.2584 65.7047 48.0889 65.7532C47.8952 65.8257 47.7014 65.729 47.6289 65.5352L46.9264 63.404C46.8539 63.2345 46.9507 63.0407 47.1444 62.968H47.1441Z" fill="#F3F3F3"/>
<path d="M47.1198 62.9437C47.213 62.9086 47.3162 62.9119 47.407 62.9527C47.4978 62.9936 47.5686 63.0687 47.6041 63.1617L48.3066 65.293C48.3791 65.4867 48.2581 65.7047 48.0641 65.7775C47.971 65.8126 47.8677 65.8094 47.7769 65.7685C47.6862 65.7277 47.6153 65.6525 47.5798 65.5595L46.8776 63.4282C46.8291 63.2345 46.9261 63.0165 47.1198 62.9437ZM48.0643 65.7287C48.2338 65.6805 48.3306 65.4867 48.2823 65.3172L47.5798 63.186C47.5316 63.0165 47.3378 62.9437 47.1683 62.9922C46.9986 63.0407 46.9018 63.2345 46.9503 63.404L47.6526 65.5352C47.6649 65.5764 47.6858 65.6144 47.7138 65.6469C47.7419 65.6794 47.7764 65.7057 47.8153 65.724C47.8541 65.7422 47.8963 65.7521 47.9393 65.753C47.9822 65.7539 48.0248 65.7457 48.0643 65.729V65.7287Z" fill="white"/>
<path d="M44.2882 60.7642C44.4817 60.7157 44.6757 60.8367 44.6997 61.0305L45.7169 65.9955C45.7654 66.189 45.6199 66.3587 45.4262 66.407C45.2327 66.4555 45.0387 66.3345 45.0147 66.1407L43.9972 61.1757C43.9732 61.0062 44.0942 60.8125 44.2879 60.764L44.2882 60.7642Z" fill="#F3F3F3"/>
<path d="M44.2859 60.7397C44.5036 60.6915 44.6974 60.8367 44.7459 61.0305L45.7631 65.9955C45.8116 66.189 45.6661 66.407 45.4724 66.4312C45.2544 66.4797 45.0606 66.3345 45.0124 66.1407L43.9949 61.1757C43.9466 60.982 44.0679 60.7882 44.2856 60.74L44.2859 60.7397ZM45.4239 66.3827C45.5936 66.3587 45.7146 66.189 45.6904 65.9952L44.6731 61.0305C44.6491 60.861 44.4554 60.74 44.2856 60.7882C44.1161 60.8125 43.9951 60.982 44.0194 61.1757L45.0366 66.1407C45.0849 66.3102 45.2544 66.407 45.4241 66.383L45.4239 66.3827Z" fill="white"/>
<path d="M42.4463 63.9125C42.6401 63.8882 42.8096 64.0095 42.8581 64.2032L43.1486 66.4312C43.1728 66.625 43.0276 66.7945 42.8336 66.8187C42.6401 66.843 42.4706 66.722 42.4221 66.5282L42.1316 64.3C42.1073 64.1062 42.2526 63.9367 42.4463 63.9125Z" fill="#F3F3F3"/>
<path d="M42.4471 63.8882C42.6651 63.8642 42.8589 64.0095 42.8831 64.2032L43.1736 66.4312C43.1979 66.625 43.0526 66.8187 42.8346 66.843C42.6166 66.8672 42.4229 66.722 42.3986 66.528L42.1081 64.3C42.0839 64.1062 42.2291 63.9125 42.4471 63.8882ZM42.8104 66.7945C42.9799 66.7705 43.1254 66.6007 43.1011 66.4312L42.8104 64.2032C42.7861 64.0337 42.6166 63.9125 42.4471 63.9367C42.2776 63.961 42.1321 64.1305 42.1564 64.3L42.4471 66.5282C42.4714 66.6977 42.6409 66.8187 42.8104 66.7945Z" fill="white"/>
<path d="M39.9511 61.2C40.1449 61.2 40.3144 61.3455 40.3144 61.5392V66.6007C40.3144 66.7945 40.1449 66.94 39.9511 66.94C39.7574 66.94 39.5879 66.7945 39.5879 66.6007V61.5392C39.6121 61.3455 39.7574 61.2 39.9511 61.2Z" fill="#F3F3F3"/>
<path d="M39.952 61.1757C40.17 61.1757 40.3395 61.3452 40.3395 61.539V66.6007C40.3395 66.7945 40.17 66.964 39.952 66.964C39.734 66.964 39.5645 66.7945 39.5645 66.6007V61.5392C39.5645 61.3455 39.7582 61.1757 39.952 61.1757ZM39.952 66.9157C40.1215 66.9157 40.291 66.7705 40.291 66.6007V61.5392C40.291 61.3695 40.1457 61.2242 39.952 61.2242C39.7825 61.2242 39.613 61.3695 39.613 61.5392V66.6007C39.637 66.7705 39.7825 66.9157 39.952 66.9157Z" fill="white"/>
<path d="M37.5297 63.9125C37.7234 63.9367 37.8687 64.082 37.8687 64.2757L37.6992 66.5282C37.6752 66.722 37.5054 66.8672 37.3117 66.8432C37.1179 66.8187 36.9727 66.6735 36.9727 66.4797L37.1422 64.2272C37.1664 64.0337 37.3359 63.8882 37.5297 63.9125Z" fill="#F3F3F3"/>
<path d="M37.5305 63.8882C37.7485 63.9125 37.8937 64.082 37.8937 64.2757L37.7242 66.5282C37.7 66.722 37.5305 66.8915 37.3125 66.8672C37.0947 66.843 36.9492 66.6735 36.9492 66.4797L37.1187 64.2272C37.143 64.0095 37.3125 63.8642 37.5305 63.8882ZM37.3125 66.8187C37.482 66.8187 37.6517 66.6977 37.6517 66.5282L37.8212 64.2757C37.8212 64.1062 37.7 63.961 37.5062 63.9367C37.3367 63.9367 37.1672 64.0577 37.1672 64.2275L36.9977 66.4797C36.9977 66.6492 37.143 66.7947 37.3127 66.8187H37.3125Z" fill="white"/>
<path d="M35.7125 60.7642C35.9063 60.8125 36.0273 60.982 36.003 61.1757L35.01 66.1407C34.9615 66.3345 34.792 66.4557 34.5983 66.407C34.4045 66.3587 34.2835 66.1892 34.3078 65.9952L35.3008 61.0305C35.325 60.861 35.5188 60.74 35.7125 60.7642Z" fill="#F3F3F3"/>
<path d="M35.7122 60.7397C35.9299 60.7882 36.0512 60.9822 36.0269 61.1757L35.0339 66.1407C34.9854 66.3345 34.7917 66.4797 34.5739 66.4312C34.3559 66.3827 34.2347 66.189 34.2589 65.9952L35.2519 61.0305C35.3004 60.8367 35.4942 60.7155 35.7119 60.74L35.7122 60.7397ZM34.5739 66.3827C34.7434 66.407 34.9129 66.3102 34.9614 66.1407L35.9542 61.1757C35.9784 61.0062 35.8817 60.8367 35.6879 60.7882C35.5184 60.7642 35.3489 60.861 35.3004 61.0307L34.3074 65.9952C34.2832 66.189 34.4042 66.3345 34.5739 66.3827Z" fill="white"/>
<path d="M32.8073 62.9437C33.0013 62.9922 33.1223 63.186 33.0738 63.3797L32.4683 65.5595C32.42 65.7532 32.2263 65.85 32.0325 65.8017C31.9864 65.7907 31.9429 65.7706 31.9045 65.7426C31.8661 65.7147 31.8336 65.6795 31.8088 65.639C31.7841 65.5985 31.7676 65.5535 31.7602 65.5066C31.7529 65.4597 31.7548 65.4119 31.766 65.3657L32.3715 63.186C32.42 62.9922 32.6138 62.8955 32.8075 62.9437H32.8073Z" fill="#F3F3F3"/>
<path d="M32.8071 62.9197C33.0011 62.968 33.1464 63.186 33.0736 63.3797L32.4681 65.5595C32.4199 65.7532 32.2019 65.8745 32.0081 65.8257C31.8144 65.7775 31.6691 65.5595 31.7416 65.3657L32.3471 63.186C32.3956 62.9922 32.5894 62.871 32.8071 62.9195V62.9197ZM32.0081 65.7532C32.1776 65.8017 32.3714 65.7047 32.4199 65.5352L33.0251 63.3555C33.0736 63.186 32.9769 63.0165 32.7831 62.968C32.6136 62.9195 32.4199 63.0165 32.3714 63.186L31.7659 65.3657C31.7416 65.5352 31.8384 65.7047 32.0081 65.7532Z" fill="white"/>
<path d="M31.6214 59.529C31.8152 59.6015 31.8877 59.8195 31.8152 59.989L29.8777 64.6632C29.8052 64.833 29.5869 64.9297 29.4177 64.833C29.2479 64.736 29.1509 64.5422 29.2237 64.3727L31.1612 59.6985C31.2337 59.529 31.4519 59.432 31.6212 59.529H31.6214Z" fill="#F3F3F3"/>
<path d="M31.6208 59.5047C31.7139 59.5402 31.7891 59.6111 31.8299 59.7019C31.8708 59.7928 31.874 59.8961 31.8388 59.9892L29.9013 64.6632C29.8286 64.857 29.6106 64.9297 29.3926 64.857C29.2996 64.8215 29.2244 64.7507 29.1836 64.6599C29.1427 64.5691 29.1395 64.4659 29.1746 64.3727L31.1121 59.6985C31.2091 59.5047 31.4271 59.408 31.6208 59.5047ZM29.4168 64.8087C29.5863 64.8812 29.7801 64.8087 29.8528 64.6392L31.7903 59.965C31.8628 59.7955 31.7661 59.6257 31.5966 59.5532C31.4271 59.4807 31.2333 59.5532 31.1606 59.7227L29.2231 64.397C29.1746 64.5422 29.2473 64.736 29.4168 64.8087Z" fill="white"/>
<path d="M28.3501 61.079C28.5196 61.1757 28.5921 61.3695 28.5196 61.539L27.5023 63.5492C27.4053 63.7187 27.2116 63.7915 27.0178 63.6945C26.8483 63.5977 26.7758 63.404 26.8483 63.2345L27.8658 61.2245C27.9626 61.0547 28.1563 60.982 28.3501 61.079Z" fill="#F3F3F3"/>
<path d="M28.3498 61.0547C28.5435 61.1515 28.616 61.3697 28.5193 61.5632L27.502 63.5735C27.405 63.7672 27.187 63.84 26.9935 63.743C26.7998 63.6462 26.727 63.428 26.824 63.2345L27.841 61.2245C27.938 61.0305 28.156 60.958 28.3498 61.0547ZM27.0178 63.6947C27.1873 63.7672 27.381 63.7187 27.4535 63.5492L28.4708 61.5392C28.5433 61.3937 28.4708 61.2 28.3255 61.1032C28.156 61.0307 27.9623 61.079 27.8895 61.2485L26.8723 63.2585C26.7998 63.404 26.8723 63.5977 27.0178 63.6945V63.6947Z" fill="white"/>
<path d="M27.8668 57.4947C28.0363 57.6157 28.0848 57.8337 27.9638 57.979L25.1543 62.169C25.0575 62.3382 24.8393 62.3625 24.67 62.2657C24.5005 62.1445 24.452 61.9267 24.573 61.7812L27.3825 57.5912C27.4793 57.422 27.6973 57.3735 27.8668 57.4945V57.4947Z" fill="#F3F3F3"/>
<path d="M27.8661 57.4702C28.0356 57.5915 28.0841 57.8337 27.9871 58.0032L25.1779 62.1932C25.0569 62.3625 24.8389 62.411 24.6451 62.29C24.4756 62.1687 24.4271 61.9267 24.5239 61.757L27.3334 57.5672C27.4544 57.3977 27.6966 57.3492 27.8661 57.4702ZM24.6694 62.2415C24.8144 62.3382 25.0326 62.314 25.1294 62.169L27.9389 57.979C28.0356 57.8337 27.9874 57.64 27.8419 57.543C27.6966 57.4462 27.4786 57.4705 27.3819 57.6155L24.5724 61.7812C24.4756 61.9267 24.5239 62.1445 24.6694 62.2412V62.2415Z" fill="white"/>
<path d="M24.3305 58.3907C24.476 58.5117 24.5243 58.7297 24.4033 58.875L22.9985 60.643C22.8775 60.7882 22.6595 60.8125 22.5143 60.6915C22.369 60.5705 22.3205 60.3525 22.4418 60.207L23.8463 58.439C23.9673 58.294 24.1853 58.2695 24.3305 58.3907Z" fill="#F3F3F3"/>
<path d="M24.3548 58.3665C24.5243 58.4875 24.5486 58.7297 24.4273 58.8992L23.0228 60.6672C22.9018 60.8367 22.6596 60.861 22.4901 60.7157C22.3206 60.5945 22.2963 60.3525 22.4176 60.1827L23.8221 58.415C23.9431 58.2452 24.1853 58.2212 24.3548 58.3665ZM22.5386 60.6672C22.6836 60.7882 22.8776 60.7642 22.9986 60.6187L24.4033 58.8507C24.5003 58.7057 24.4758 58.5117 24.3308 58.3907C24.1853 58.2695 23.9916 58.2937 23.8706 58.4392L22.4658 60.207C22.3691 60.3525 22.3933 60.5702 22.5383 60.6672H22.5386Z" fill="white"/>
<path d="M24.5731 54.758C24.7183 54.903 24.7183 55.1212 24.5731 55.2422L20.9888 58.8022C20.8433 58.9477 20.6256 58.9235 20.5043 58.8022C20.3833 58.6812 20.3591 58.439 20.5043 58.318L24.0643 54.758C24.2098 54.6125 24.4278 54.6125 24.5731 54.758Z" fill="#F3F3F3"/>
<path d="M24.5972 54.7337C24.667 54.8048 24.7061 54.9004 24.7061 55C24.7061 55.0996 24.667 55.1952 24.5972 55.2662L21.0127 58.8267C20.9417 58.8965 20.846 58.9356 20.7465 58.9356C20.6469 58.9356 20.5513 58.8965 20.4802 58.8267C20.4103 58.7557 20.3711 58.66 20.3711 58.5602C20.3711 58.4605 20.4103 58.3648 20.4802 58.2937L24.0645 54.7337C24.1355 54.6639 24.2312 54.6247 24.3308 54.6247C24.4305 54.6247 24.5261 54.6639 24.5972 54.7337ZM20.5042 58.8022C20.6252 58.9232 20.8432 58.9232 20.9642 58.8022L24.5487 55.242C24.67 55.121 24.67 54.903 24.5487 54.782C24.4277 54.6607 24.2097 54.6607 24.0887 54.782L20.5042 58.342C20.3832 58.463 20.3832 58.657 20.5042 58.802V58.8022Z" fill="white"/>
<path d="M20.9392 54.9517C21.0602 55.0967 21.0602 55.315 20.915 55.436L19.1955 56.8892C19.0502 57.0102 18.8322 56.986 18.711 56.8407C18.59 56.6952 18.59 56.4775 18.7352 56.3562L20.4547 54.9032C20.6002 54.782 20.818 54.8062 20.9392 54.9517Z" fill="#F3F3F3"/>
<path d="M20.9641 54.9272C21.1094 55.097 21.0851 55.339 20.9399 55.4602L19.2204 56.9132C19.0751 57.0587 18.8329 57.0345 18.6876 56.865C18.5421 56.6952 18.5664 56.4532 18.7116 56.332L20.4314 54.879C20.5764 54.7337 20.8189 54.758 20.9639 54.9275L20.9641 54.9272ZM18.7359 56.8407C18.8571 56.986 19.0509 56.986 19.1959 56.8892L20.9156 55.436C21.0366 55.315 21.0609 55.121 20.9399 54.976C20.8186 54.8305 20.6249 54.8305 20.4799 54.9275L18.7601 56.3805C18.6149 56.5015 18.6149 56.6955 18.7359 56.8405V56.8407Z" fill="white"/>
<path d="M21.9095 51.464C22.0305 51.6337 21.982 51.8515 21.8125 51.9485L17.5985 54.758C17.429 54.8547 17.211 54.8062 17.1142 54.661C16.993 54.4915 17.0415 54.2735 17.211 54.1765L21.4252 51.3672C21.5707 51.2705 21.7885 51.3187 21.9097 51.464H21.9095Z" fill="#F3F3F3"/>
<path d="M21.9325 51.464C22.0535 51.6337 22.005 51.8757 21.8355 51.997L17.6215 54.8062C17.452 54.9275 17.2098 54.8787 17.0888 54.6852C16.9675 54.5157 17.0163 54.2735 17.1855 54.1525L21.3998 51.343C21.5693 51.222 21.8113 51.2705 21.9323 51.464H21.9325ZM17.1373 54.6367C17.234 54.782 17.4278 54.8305 17.573 54.7337L21.787 51.9242C21.9325 51.8275 21.9808 51.6337 21.8598 51.4642C21.763 51.3187 21.5693 51.2705 21.4238 51.3672L17.2098 54.1767C17.0645 54.2977 17.0403 54.4915 17.1373 54.6367Z" fill="white"/>
<path d="M18.3 50.9555C18.397 51.125 18.3485 51.343 18.179 51.44L16.2173 52.554C16.0478 52.6507 15.8298 52.5782 15.733 52.4087C15.636 52.2392 15.6845 52.0212 15.854 51.9242L17.8158 50.8102C17.9853 50.7132 18.2033 50.786 18.3003 50.9555H18.3Z" fill="#F3F3F3"/>
<path d="M18.3245 50.9312C18.4213 51.125 18.3728 51.343 18.2033 51.44L16.2415 52.554C16.072 52.6507 15.8298 52.5782 15.733 52.4087C15.636 52.215 15.6845 51.997 15.854 51.9L17.8158 50.786C17.9853 50.689 18.2275 50.7617 18.3243 50.9312H18.3245ZM15.757 52.3845C15.854 52.554 16.0478 52.6025 16.193 52.5055L18.1548 51.3915C18.3 51.2945 18.3485 51.1007 18.276 50.9555C18.179 50.786 17.9853 50.7375 17.84 50.8345L15.8783 51.9485C15.733 52.021 15.6845 52.215 15.7573 52.3845H15.757Z" fill="white"/>
<path d="M19.9221 47.7345C19.9946 47.9282 19.9221 48.122 19.7283 48.1945L15.0541 50.132C14.8846 50.2047 14.6666 50.108 14.5941 49.9382C14.5213 49.7445 14.5941 49.5507 14.7878 49.4782L19.4621 47.5407C19.6316 47.4682 19.8496 47.5407 19.9221 47.7345Z" fill="#F3F3F3"/>
<path d="M19.9463 47.7102C20.0188 47.904 19.9463 48.122 19.7526 48.2187L15.0783 50.1562C14.9852 50.1914 14.8819 50.1881 14.7912 50.1473C14.7004 50.1064 14.6296 50.0312 14.5941 49.9382C14.5213 49.7445 14.5941 49.5265 14.7878 49.4297L19.4621 47.4922C19.5552 47.4571 19.6585 47.4604 19.7492 47.5012C19.84 47.5421 19.9109 47.6172 19.9463 47.7102ZM14.6423 49.914C14.7151 50.0837 14.9088 50.1565 15.0541 50.1077L19.7283 48.1702C19.8978 48.0977 19.9706 47.904 19.8978 47.7345C19.8253 47.565 19.6316 47.4922 19.4861 47.5407L14.8118 49.4782C14.6423 49.5507 14.5698 49.7445 14.6423 49.9142V49.914Z" fill="white"/>
<path d="M16.5085 46.5235C16.581 46.7172 16.4843 46.911 16.2905 46.9835L14.1593 47.686C13.9898 47.7585 13.7718 47.6375 13.7233 47.468C13.6508 47.2742 13.7475 47.0805 13.9413 47.008L16.0725 46.3055C16.242 46.233 16.4358 46.3297 16.5085 46.5235Z" fill="#F3F3F3"/>
<path d="M16.5319 46.4992C16.6047 46.693 16.5079 46.911 16.2899 46.9837L14.1587 47.686C13.9649 47.7585 13.7469 47.6375 13.6742 47.4437C13.6017 47.25 13.6984 47.032 13.9167 46.9595L16.0477 46.257C16.2414 46.2087 16.4594 46.3055 16.5322 46.4995L16.5319 46.4992ZM13.7229 47.4197C13.7714 47.5892 13.9652 47.6862 14.1347 47.6377L16.2659 46.9352C16.4354 46.887 16.5082 46.6932 16.4597 46.5237C16.4112 46.3542 16.2174 46.2572 16.0479 46.3057L13.9167 47.0082C13.7472 47.0807 13.6744 47.2502 13.7229 47.4197Z" fill="white"/>
<path d="M18.6889 43.6415C18.7371 43.8352 18.6161 44.029 18.4224 44.0532L13.4574 45.022C13.2636 45.0705 13.0941 44.925 13.0459 44.7312C12.9974 44.5375 13.1184 44.3437 13.3121 44.3195L18.2771 43.3507C18.4709 43.3267 18.6646 43.4477 18.6886 43.6415H18.6889Z" fill="#F3F3F3"/>
<path d="M18.7378 43.6415C18.7863 43.8595 18.641 44.0532 18.4473 44.1015L13.4823 45.0702C13.2885 45.1187 13.0948 44.9735 13.0465 44.7555C12.998 44.5375 13.1433 44.3437 13.337 44.2955L18.302 43.3267C18.4955 43.2782 18.6895 43.4235 18.7378 43.6415ZM13.0948 44.7315C13.119 44.9007 13.2885 45.022 13.458 44.9977L18.423 44.029C18.5925 44.0047 18.7135 43.811 18.6653 43.6415C18.641 43.472 18.4715 43.3507 18.3018 43.375L13.337 44.3437C13.1675 44.3922 13.0465 44.5617 13.0948 44.7312V44.7315Z" fill="white"/>
<path d="M15.589 41.7767C15.613 41.9702 15.492 42.14 15.2983 42.1642L13.0703 42.4305C12.8763 42.4547 12.7068 42.3095 12.6828 42.1155C12.6585 41.922 12.7795 41.7525 12.9733 41.728L15.2015 41.4617C15.371 41.4375 15.5648 41.5827 15.589 41.7767Z" fill="#F3F3F3"/>
<path d="M15.6117 41.7767C15.6357 41.9945 15.4904 42.1882 15.2967 42.2125L13.0687 42.479C12.8747 42.5032 12.6812 42.358 12.6569 42.14C12.6327 41.922 12.7779 41.7282 12.9717 41.704L15.1999 41.4375C15.3934 41.4132 15.5874 41.5587 15.6114 41.7765L15.6117 41.7767ZM12.6809 42.1157C12.7052 42.2852 12.8749 42.4307 13.0444 42.4062L15.2724 42.14C15.4419 42.1157 15.5632 41.9462 15.5389 41.7767C15.5147 41.607 15.3452 41.4617 15.1757 41.486L12.9474 41.7525C12.7779 41.7767 12.6569 41.9462 12.6809 42.1157Z" fill="white"/>
<path d="M18.3 39.4272C18.3 39.6212 18.155 39.7907 17.961 39.7907H12.8995C12.7058 39.7907 12.5605 39.6212 12.5605 39.4275C12.5605 39.2337 12.7058 39.064 12.8995 39.064H17.9613C18.155 39.064 18.3005 39.2337 18.3005 39.4275L18.3 39.4272Z" fill="#F3F3F3"/>
<path d="M18.3254 39.4272C18.3254 39.6455 18.1556 39.8147 17.9619 39.8147H12.9004C12.7066 39.8147 12.5371 39.6452 12.5371 39.4272C12.5371 39.2095 12.7066 39.0397 12.9004 39.0397H17.9621C18.1559 39.0397 18.3254 39.2095 18.3254 39.4272ZM12.5854 39.4032C12.5854 39.5727 12.7306 39.7422 12.9004 39.7422H17.9619C18.1314 39.7422 18.2769 39.597 18.2769 39.4032C18.2769 39.2337 18.1314 39.064 17.9619 39.064H12.9004C12.7309 39.0882 12.5856 39.2337 12.5856 39.4032H12.5854Z" fill="white"/>
<path d="M15.613 36.9812C15.5885 37.175 15.4433 37.3202 15.2495 37.3202L12.997 37.1507C12.8035 37.1265 12.6583 36.957 12.6823 36.7632C12.7065 36.5695 12.852 36.4242 13.0458 36.4242L15.298 36.5937C15.4675 36.618 15.613 36.7875 15.613 36.9812Z" fill="#E2E2E2"/>
<path d="M15.6373 36.9812C15.6131 37.1992 15.4436 37.3445 15.2498 37.3445L12.9973 37.175C12.8038 37.1507 12.6343 36.9812 12.6586 36.7632C12.6826 36.5455 12.8523 36.4 13.0461 36.4L15.2983 36.5695C15.4921 36.5937 15.6373 36.7875 15.6373 36.9812ZM12.6826 36.7632C12.6586 36.9327 12.8038 37.1025 12.9733 37.1025L15.2258 37.272C15.3951 37.272 15.5406 37.1507 15.5648 36.957C15.5891 36.7875 15.4436 36.618 15.2741 36.618L13.0216 36.4485C12.8523 36.4485 12.7068 36.5937 12.6826 36.7635V36.7632Z" fill="white"/>
<path d="M18.7377 35.2132C18.6892 35.407 18.5197 35.5282 18.3259 35.504L13.3612 34.4867C13.1674 34.4382 13.0462 34.2687 13.0947 34.075C13.1432 33.8812 13.3127 33.76 13.5064 33.7845L18.4714 34.7775C18.6409 34.8257 18.7619 35.0195 18.7377 35.2132Z" fill="#F3F3F3"/>
<path d="M18.7612 35.2132C18.7127 35.4312 18.519 35.5525 18.3252 35.5282L13.3605 34.5352C13.1667 34.4867 13.0215 34.293 13.07 34.0752C13.1182 33.857 13.312 33.736 13.5057 33.7602L18.4707 34.7532C18.6645 34.8017 18.7855 34.9955 18.7612 35.2132ZM13.1182 34.075C13.094 34.2445 13.1907 34.414 13.3605 34.4625L18.3255 35.4555C18.495 35.4797 18.6645 35.383 18.713 35.189C18.737 35.0195 18.6402 34.85 18.4705 34.8015L13.506 33.8087C13.3122 33.7845 13.167 33.9055 13.1185 34.075H13.1182Z" fill="white"/>
<path d="M16.5558 32.3072C16.5447 32.3534 16.5246 32.3969 16.4967 32.4352C16.4687 32.4736 16.4335 32.506 16.393 32.5307C16.3525 32.5555 16.3075 32.572 16.2607 32.5793C16.2138 32.5866 16.1659 32.5847 16.1198 32.5735L13.9401 31.968C13.7463 31.9195 13.6496 31.7257 13.6978 31.532C13.7089 31.4859 13.729 31.4424 13.757 31.404C13.7849 31.3657 13.8201 31.3332 13.8606 31.3085C13.9011 31.2838 13.9461 31.2673 13.993 31.2599C14.0398 31.2526 14.0877 31.2546 14.1338 31.2657L16.3136 31.8712C16.5073 31.9195 16.6041 32.1132 16.5558 32.307V32.3072Z" fill="#F3F3F3"/>
<path d="M16.581 32.3072C16.5328 32.5007 16.3148 32.6462 16.121 32.5735L13.9413 31.968C13.7475 31.9195 13.6263 31.7015 13.6748 31.508C13.7233 31.314 13.9413 31.1687 14.135 31.2415L16.3148 31.847C16.5085 31.8955 16.6298 32.0892 16.581 32.307V32.3072ZM13.7475 31.5075C13.699 31.6772 13.796 31.871 13.9655 31.9192L16.1453 32.5247C16.3148 32.5732 16.4843 32.4762 16.5328 32.2825C16.581 32.113 16.4843 31.9192 16.3148 31.871L14.135 31.2655C13.9655 31.2412 13.796 31.338 13.7475 31.5077V31.5075Z" fill="white"/>
<path d="M19.9698 31.1447C19.8973 31.3382 19.679 31.411 19.5098 31.3382L14.8353 29.4007C14.6658 29.3282 14.569 29.1102 14.6415 28.9407C14.7143 28.747 14.9323 28.6742 15.1018 28.747L19.776 30.6845C19.9698 30.757 20.0425 30.975 19.9698 31.1445V31.1447Z" fill="#F3F3F3"/>
<path d="M19.9953 31.1687C19.9598 31.2618 19.8889 31.337 19.7981 31.3779C19.7073 31.4187 19.604 31.4219 19.5108 31.3867L14.8366 29.4492C14.6428 29.3767 14.5703 29.1587 14.6428 28.9407C14.6783 28.8477 14.7492 28.7725 14.84 28.7316C14.9308 28.6908 15.0341 28.6876 15.1273 28.7227L19.8016 30.6602C19.9953 30.757 20.0678 30.9752 19.9953 31.1687ZM14.6913 28.965C14.6188 29.1345 14.6913 29.3282 14.8608 29.4007L19.5351 31.3382C19.7046 31.411 19.8741 31.314 19.9468 31.1445C20.0193 30.975 19.9468 30.7812 19.7773 30.7087L15.1031 28.7712C14.9336 28.7227 14.7398 28.7955 14.6913 28.965Z" fill="white"/>
<path d="M18.3953 27.875C18.2985 28.0445 18.1048 28.1172 17.9353 28.0445L15.925 27.0275C15.7555 26.9547 15.6828 26.7367 15.7798 26.543C15.8765 26.3735 16.0703 26.3007 16.2398 26.3735L18.2498 27.3907C18.4195 27.4875 18.4923 27.7057 18.3953 27.875Z" fill="#F3F3F3"/>
<path d="M18.4205 27.8992C18.3235 28.093 18.1055 28.1657 17.9117 28.0687L15.9017 27.0515C15.708 26.9547 15.6352 26.7367 15.7322 26.543C15.829 26.3492 16.0472 26.2765 16.2407 26.3735L18.2507 27.3907C18.4447 27.4632 18.5172 27.7057 18.4205 27.8992ZM15.8047 26.5672C15.7322 26.7367 15.7807 26.9305 15.9502 27.0032L17.9602 28.0205C18.1057 28.093 18.2995 28.0205 18.3962 27.875C18.4687 27.7055 18.4205 27.5117 18.251 27.439L16.2162 26.4222C16.071 26.3497 15.8772 26.398 15.8045 26.5675L15.8047 26.5672Z" fill="white"/>
<path d="M21.9584 27.4147C21.8374 27.5845 21.6437 27.633 21.4742 27.5117L17.2842 24.7267C17.1149 24.6297 17.0907 24.4117 17.1874 24.2422C17.2844 24.0727 17.5024 24.0242 17.6719 24.1452L21.8859 26.9547C22.0312 27.0517 22.0797 27.2697 21.9584 27.4147Z" fill="#F3F3F3"/>
<path d="M21.9804 27.439C21.8594 27.6087 21.6172 27.657 21.4479 27.5602L17.2579 24.7507C17.0884 24.6297 17.0399 24.4117 17.1609 24.2182C17.2822 24.0485 17.5244 24 17.6939 24.097L21.8837 26.9062C22.0774 27.0275 22.1017 27.2695 21.9804 27.439ZM17.2094 24.2422C17.1127 24.3875 17.1369 24.6055 17.2819 24.7022L21.4962 27.512C21.6414 27.609 21.8352 27.5605 21.9322 27.4152C22.0289 27.2697 22.0047 27.0517 21.8597 26.955L17.6452 24.1455C17.4999 24.0485 17.3062 24.097 17.2092 24.2422H17.2094Z" fill="white"/>
<path d="M21.0598 23.9032C20.9388 24.0485 20.7208 24.097 20.5756 23.9757L18.8076 22.5955C18.6623 22.4742 18.6381 22.2562 18.7591 22.111C18.8801 21.9657 19.0981 21.9172 19.2436 22.0385L21.0113 23.4187C21.1568 23.54 21.1811 23.7577 21.0598 23.9032Z" fill="#F3F3F3"/>
<path d="M21.0858 23.9272C20.9648 24.097 20.7225 24.1212 20.553 24L18.785 22.6197C18.6155 22.4987 18.5913 22.2565 18.7125 22.0872C18.8335 21.9175 19.0758 21.8932 19.245 22.0145L21.013 23.3947C21.1828 23.516 21.207 23.758 21.0858 23.9277V23.9272ZM18.7608 22.111C18.6398 22.2562 18.664 22.45 18.8093 22.571L20.5773 23.9517C20.7225 24.0485 20.9163 24.0242 21.0373 23.879C21.1585 23.7337 21.1343 23.54 20.989 23.419L19.221 22.0382C19.0758 21.9415 18.8818 21.9657 18.761 22.111H18.7608Z" fill="white"/>
<path d="M24.6692 24.1452C24.5242 24.2907 24.306 24.2907 24.185 24.1452L20.5767 20.5852C20.4315 20.44 20.4555 20.222 20.5767 20.1007C20.722 19.9557 20.94 19.9557 21.061 20.1007L24.6455 23.661C24.7907 23.782 24.7907 24.0242 24.6697 24.1455L24.6692 24.1452Z" fill="#F3F3F3"/>
<path d="M24.6678 24.1697C24.5967 24.2395 24.5011 24.2786 24.4015 24.2786C24.3019 24.2786 24.2063 24.2395 24.1353 24.1697L20.5505 20.6092C20.4806 20.5382 20.4414 20.4425 20.4414 20.3427C20.4414 20.243 20.4806 20.1473 20.5505 20.0762C20.6216 20.0064 20.7172 19.9673 20.8169 19.9673C20.9165 19.9673 21.0122 20.0064 21.0833 20.0762L24.6678 23.6365C24.8373 23.7817 24.8373 24.024 24.6678 24.1692V24.1697ZM20.5995 20.1247C20.4783 20.246 20.4783 20.464 20.5995 20.5847L24.1838 24.145C24.305 24.2662 24.5228 24.2662 24.6438 24.145C24.765 24.024 24.765 23.806 24.6438 23.685L21.0595 20.1007C20.9385 19.9797 20.7445 19.9797 20.5995 20.125V20.1247Z" fill="white"/>
<path d="M24.4514 20.5367C24.3062 20.658 24.0882 20.658 23.9669 20.5125L22.4894 18.8172C22.3687 18.672 22.3927 18.454 22.5382 18.333C22.6832 18.2117 22.9014 18.2117 23.0224 18.357L24.4999 20.0525C24.6209 20.1735 24.5967 20.3915 24.4514 20.5367Z" fill="#F3F3F3"/>
<path d="M24.4747 20.5367C24.3052 20.682 24.0872 20.658 23.9417 20.5125L22.4645 18.8172C22.3192 18.672 22.3435 18.4297 22.513 18.2845C22.6825 18.139 22.9005 18.1632 23.0457 18.3087L24.5232 20.0037C24.6442 20.1735 24.6442 20.4157 24.4747 20.5367ZM22.5372 18.333C22.3917 18.454 22.3917 18.6477 22.4887 18.793L23.9662 20.4882C24.0872 20.6095 24.281 20.6337 24.4262 20.5125C24.5715 20.3915 24.5715 20.1975 24.4747 20.0525L22.9972 18.357C22.8762 18.212 22.6822 18.212 22.5372 18.333Z" fill="white"/>
<path d="M27.9388 21.4572C27.7693 21.5782 27.5513 21.5297 27.4543 21.3602L24.6208 17.1702C24.5238 17.0007 24.5723 16.7827 24.7175 16.686C24.887 16.565 25.105 16.6135 25.202 16.783L28.0113 20.9727C28.1325 21.1422 28.084 21.3602 27.9388 21.457V21.4572Z" fill="#F3F3F3"/>
<path d="M27.9394 21.4812C27.7699 21.6025 27.5277 21.5537 27.4064 21.3845L24.5972 17.1945C24.4762 17.025 24.5247 16.783 24.7182 16.662C24.8877 16.5407 25.1299 16.5892 25.2512 16.7587L28.0604 20.9485C28.1814 21.1422 28.1329 21.3602 27.9394 21.4812ZM24.7422 16.7102C24.5969 16.807 24.5484 17.0007 24.6454 17.1462L27.4547 21.336C27.5517 21.4812 27.7454 21.5055 27.9147 21.4085C28.0602 21.3117 28.1087 21.118 28.0117 20.9727L25.2027 16.807C25.1057 16.662 24.8877 16.6132 24.7427 16.7102H24.7422Z" fill="white"/>
<path d="M28.4465 17.8727C28.277 17.9695 28.059 17.9212 27.9623 17.7517L26.848 15.79C26.7513 15.6205 26.8238 15.4025 26.9935 15.3055C27.163 15.2087 27.381 15.257 27.4778 15.4267L28.5918 17.3882C28.6645 17.5577 28.616 17.7757 28.4468 17.8727H28.4465Z" fill="#F3F3F3"/>
<path d="M28.4484 17.897C28.2547 17.9937 28.0367 17.9455 27.9399 17.7757L26.8257 15.8142C26.7289 15.6445 26.7774 15.4025 26.9712 15.3055C27.1649 15.2087 27.3829 15.257 27.4797 15.4267L28.5937 17.3882C28.6907 17.5577 28.6422 17.7757 28.4487 17.897H28.4484ZM26.9954 15.3297C26.8499 15.4265 26.7774 15.6202 26.8742 15.7657L27.9884 17.7275C28.0852 17.8725 28.2789 17.9212 28.4242 17.8485C28.5697 17.7517 28.6422 17.5577 28.5454 17.4125L27.4312 15.4507C27.3587 15.3057 27.1407 15.2327 26.9954 15.3297Z" fill="white"/>
<path d="M31.6687 19.4712C31.4752 19.5437 31.2812 19.4712 31.2087 19.3017L29.247 14.6272C29.1745 14.4577 29.2712 14.2397 29.4407 14.167C29.6345 14.0945 29.8282 14.167 29.9007 14.3365L31.8625 19.0107C31.9352 19.1802 31.8385 19.3982 31.6687 19.4707V19.4712Z" fill="#F3F3F3"/>
<path d="M31.6683 19.4955C31.4748 19.568 31.2568 19.4955 31.1598 19.3015L29.1981 14.6275C29.1629 14.5343 29.1661 14.431 29.207 14.3402C29.2478 14.2494 29.323 14.1785 29.4161 14.143C29.6098 14.0705 29.8278 14.143 29.9248 14.3367L31.8863 19.011C31.9591 19.1805 31.8623 19.3985 31.6686 19.4955H31.6683ZM29.4646 14.1915C29.2951 14.264 29.2223 14.458 29.2951 14.6032L31.2566 19.2772C31.3291 19.4467 31.5228 19.5192 31.6923 19.4467C31.8618 19.3742 31.9348 19.1802 31.8618 19.035L29.9003 14.3607C29.8033 14.1912 29.6338 14.1185 29.4643 14.1912L29.4646 14.1915Z" fill="white"/>
<path d="M32.8558 16.0322C32.6621 16.1047 32.4683 16.0077 32.3958 15.8142L31.6933 13.6827C31.6208 13.5132 31.7418 13.2952 31.9113 13.247C32.0808 13.1985 32.2988 13.2712 32.3713 13.465L33.0738 15.5962C33.1463 15.7657 33.0496 15.9595 32.8558 16.032V16.0322Z" fill="#F3F3F3"/>
<path d="M32.8799 16.0562C32.7867 16.0913 32.6835 16.0881 32.5927 16.0473C32.502 16.0064 32.4311 15.9312 32.3956 15.8382L31.6931 13.707C31.6206 13.5132 31.7416 13.2955 31.9356 13.2227C32.0288 13.1876 32.132 13.1909 32.2228 13.2317C32.3135 13.2726 32.3844 13.3477 32.4199 13.4407L33.1221 15.572C33.1706 15.7657 33.0736 15.9837 32.8799 16.0562ZM31.9354 13.2712C31.7659 13.3195 31.6689 13.5132 31.7174 13.6827L32.4199 15.8142C32.4681 15.9837 32.6619 16.0562 32.8316 16.0077C33.0011 15.9595 33.0979 15.7657 33.0494 15.5962L32.3471 13.4647C32.3348 13.4236 32.3139 13.3856 32.2859 13.3531C32.2579 13.3205 32.2233 13.2943 32.1845 13.276C32.1456 13.2577 32.1034 13.2478 32.0605 13.247C32.0175 13.2461 31.9749 13.2543 31.9354 13.271V13.2712Z" fill="white"/>
<path d="M35.7138 18.236C35.52 18.2845 35.3263 18.1635 35.302 17.9695L34.2848 13.0047C34.2363 12.811 34.3818 12.6415 34.5753 12.593C34.7693 12.5445 34.9628 12.6655 34.987 12.8595L36.0045 17.8245C36.0285 17.9937 35.9075 18.1875 35.7138 18.236Z" fill="#F3F3F3"/>
<path d="M35.7135 18.2602C35.4955 18.3087 35.3017 18.1632 35.2532 17.9695L34.236 13.0047C34.1875 12.811 34.333 12.593 34.5267 12.5687C34.7447 12.5202 34.9385 12.6657 34.9867 12.8595L36.0042 17.8245C36.0525 18.018 35.9315 18.212 35.7135 18.2602ZM34.5752 12.6172C34.4055 12.6415 34.2845 12.811 34.3087 13.0047L35.326 17.9697C35.3502 18.139 35.5437 18.2602 35.7135 18.2117C35.883 18.1875 36.004 18.018 35.9797 17.8242L34.9625 12.8592C34.9142 12.69 34.7447 12.593 34.575 12.6172H34.5752Z" fill="white"/>
<path d="M37.5526 15.0875C37.3588 15.1117 37.1893 14.9907 37.1408 14.797L36.8503 12.5687C36.8261 12.375 36.9713 12.2055 37.1653 12.1812C37.3588 12.157 37.5283 12.2782 37.5768 12.472L37.8673 14.7C37.8916 14.8937 37.7463 15.0632 37.5526 15.0875Z" fill="#F3F3F3"/>
<path d="M37.5534 15.1117C37.3354 15.136 37.1416 14.9907 37.1174 14.7967L36.8269 12.5687C36.8026 12.375 36.9479 12.1812 37.1659 12.157C37.3839 12.133 37.5776 12.2782 37.6019 12.472L37.8924 14.7C37.9166 14.8937 37.7714 15.0875 37.5534 15.1117ZM37.1901 12.2055C37.0206 12.2297 36.8751 12.3992 36.8994 12.5687L37.1901 14.797C37.2144 14.9665 37.3839 15.0875 37.5534 15.0632C37.7229 15.0392 37.8684 14.8695 37.8441 14.7L37.5534 12.472C37.5291 12.3025 37.3596 12.1812 37.1901 12.2055Z" fill="white"/>
<path d="M40.1711 68.1507C56.0079 68.1507 68.8461 55.3125 68.8461 39.4757C68.8461 23.639 56.0079 10.8007 40.1711 10.8007C24.3343 10.8007 11.4961 23.639 11.4961 39.4757C11.4961 55.3125 24.3343 68.1507 40.1711 68.1507Z" fill="url(#paint2_linear)" fill-opacity="0.2"/>
<g filter="url(#filter2_d)">
<path d="M60.0275 21.2875L36.8985 36.1095H36.8743V36.1335L36.85 36.1578L22.416 59.965L43.6315 42.8908L43.6558 42.8668V42.8425L60.0278 21.2878L60.0275 21.2875Z" fill="black" fill-opacity="0.05"/>
</g>
<path d="M59.593 19.907L36.7305 36.1578L43.5117 42.8905L59.593 19.907Z" fill="#CD151E"/>
<path d="M36.7539 36.1095L40.1689 39.4758L59.5922 19.907L36.7539 36.1095Z" fill="#FA5153"/>
<path d="M36.7551 36.1095L43.5363 42.842L20.6738 59.093L36.7551 36.1093V36.1095Z" fill="#ACACAC"/>
<path d="M20.6738 59.093L40.1698 39.4758L36.7548 36.1093L20.6738 59.093Z" fill="#EEEEEE"/>
</g>
<defs>
<filter id="filter0_i" x="0" y="-1" width="80" height="81" filterUnits="userSpaceOnUse" color-interpolation-filters="sRGB">
<feFlood flood-opacity="0" result="BackgroundImageFix"/>
<feBlend mode="normal" in="SourceGraphic" in2="BackgroundImageFix" result="shape"/>
<feColorMatrix in="SourceAlpha" type="matrix" values="0 0 0 0 0 0 0 0 0 0 0 0 0 0 0 0 0 0 127 0" result="hardAlpha"/>
<feOffset dy="-1"/>
<feGaussianBlur stdDeviation="0.5"/>
<feComposite in2="hardAlpha" operator="arithmetic" k2="-1" k3="1"/>
<feColorMatrix type="matrix" values="0 0 0 0 0 0 0 0 0 0 0 0 0 0 0 0 0 0 0.12 0"/>
<feBlend mode="normal" in2="shape" result="effect1_innerShadow"/>
</filter>
<filter id="filter1_d" x="8" y="8" width="64" height="64" filterUnits="userSpaceOnUse" color-interpolation-filters="sRGB">
<feFlood flood-opacity="0" result="BackgroundImageFix"/>
<feColorMatrix in="SourceAlpha" type="matrix" values="0 0 0 0 0 0 0 0 0 0 0 0 0 0 0 0 0 0 127 0" result="hardAlpha"/>
<feOffset dy="0.5"/>
<feGaussianBlur stdDeviation="0.5"/>
<feColorMatrix type="matrix" values="0 0 0 0 0 0 0 0 0 0 0 0 0 0 0 0 0 0 0.266007 0"/>
<feBlend mode="normal" in2="BackgroundImageFix" result="effect1_dropShadow"/>
<feBlend mode="normal" in="SourceGraphic" in2="effect1_dropShadow" result="shape"/>
</filter>
<filter id="filter2_d" x="21.416" y="20.5375" width="39.6117" height="40.6775" filterUnits="userSpaceOnUse" color-interpolation-filters="sRGB">
<feFlood flood-opacity="0" result="BackgroundImageFix"/>
<feColorMatrix in="SourceAlpha" type="matrix" values="0 0 0 0 0 0 0 0 0 0 0 0 0 0 0 0 0 0 127 0" result="hardAlpha"/>
<feOffset dy="0.25"/>
<feGaussianBlur stdDeviation="0.5"/>
<feColorMatrix type="matrix" values="0 0 0 0 0 0 0 0 0 0 0 0 0 0 0 0 0 0 1 0"/>
<feBlend mode="normal" in2="BackgroundImageFix" result="effect1_dropShadow"/>
<feBlend mode="normal" in="SourceGraphic" in2="effect1_dropShadow" result="shape"/>
</filter>
<linearGradient id="paint0_linear" x1="40" y1="70.5" x2="40" y2="8.5" gradientUnits="userSpaceOnUse">
<stop offset="0.25" stop-color="#DBDBDA"/>
<stop offset="1" stop-color="white"/>
</linearGradient>
<radialGradient id="paint1_radial" cx="0" cy="0" r="1" gradientUnits="userSpaceOnUse" gradientTransform="translate(44.0281 33.2013) scale(35.0019)">
<stop stop-color="#2ABCE1"/>
<stop offset="0.11363" stop-color="#2ABBE1"/>
<stop offset="1" stop-color="#3375F8"/>
</radialGradient>
<linearGradient id="paint2_linear" x1="39.6263" y1="31.2764" x2="26.2425" y2="55.2883" gradientUnits="userSpaceOnUse">
<stop stop-opacity="0"/>
<stop offset="1"/>
</linearGradient>
</defs>
</svg>
