<svg xmlns="http://www.w3.org/2000/svg" width="80" height="80" viewBox="0 0 80 80" fill="none">
<g clip-path="url(#clip0)">
<path d="M18.0952 0H61.9048C71.9048 0 80 8.09524 80 18.0952V61.9048C80 71.9048 71.9048 80 61.9048 80H18.0952C8.09524 80 0 71.9048 0 61.9048V18.0952C0 8.09524 8.09524 0 18.0952 0Z"/>
<path d="M18.0952 0H61.9048C71.9048 0 80 8.09524 80 18.0952V61.9048C80 71.9048 71.9048 80 61.9048 80H18.0952C8.09524 80 0 71.9048 0 61.9048V18.0952C0 8.09524 8.09524 0 18.0952 0Z"/>
<path d="M39.6623 18.3858L41.2824 15.5878C42.2823 13.8396 44.5101 13.2491 46.2614 14.2489C48.0096 15.2488 48.6017 17.4797 47.6003 19.2279L31.9947 46.2397H43.2806C46.941 46.2397 48.9891 50.5391 47.4003 53.5168H14.3081C12.2881 53.5168 10.668 51.8968 10.668 49.8767C10.668 47.8567 12.2881 46.2366 14.3081 46.2366H23.5849L35.4629 25.652L31.7556 19.2139C30.7558 17.4657 31.3463 15.2535 33.0945 14.2349C34.8427 13.235 37.0549 13.8256 38.0735 15.5737L39.6623 18.3858ZM25.6252 57.2648L22.1257 63.3326C21.1259 65.0808 18.8949 65.6714 17.1467 64.6715C15.3986 63.6717 14.808 61.4439 15.8079 59.6925L18.4075 55.1932C21.3462 54.2855 23.7349 54.9854 25.6252 57.2648ZM55.7554 46.2585H65.2228C67.2428 46.2585 68.8629 47.8786 68.8629 49.8986C68.8629 51.9186 67.2428 53.5387 65.2228 53.5387H59.9626L63.5105 59.6972C64.5104 61.4454 63.9199 63.6576 62.1717 64.6762C60.4235 65.6761 58.2113 65.0855 57.1927 63.3373C51.2138 52.97 46.727 45.2118 43.7461 40.0437C40.6981 34.7835 42.8759 29.5077 45.0256 27.7174C47.4191 31.8121 50.9873 38.0018 55.7554 46.2585Z" fill="white"/>
</g>
<defs>
<linearGradient id="paint0_linear" x1="39.9957" y1="-0.00592257" x2="39.9957" y2="80.0035" gradientUnits="userSpaceOnUse">
<stop stop-color="#0ED4FC"/>
<stop offset="1" stop-color="#0C57EF"/>
</linearGradient>
<clipPath id="clip0">
<rect width="80" height="80" fill="white"/>
</clipPath>
</defs>
</svg>
