<svg width="80" height="80" viewBox="0 0 80 80" fill="none" xmlns="http://www.w3.org/2000/svg">
<g filter="url(#filter0_i)">
<path d="M18.0952 0H61.9048C71.9048 0 80 8.09524 80 18.0952V61.9048C80 71.9048 71.9048 80 61.9048 80H18.0952C8.09524 80 0 71.9048 0 61.9048V18.0952C0 8.09524 8.09524 0 18.0952 0Z" fill="url(#paint0_linear)"/>
<path fill-rule="evenodd" clip-rule="evenodd" d="M56.7616 13.01C56.5682 13.0278 54.8496 13.3324 54.6429 13.3746L30.8546 18.1745L30.8457 18.1767C30.2255 18.3079 29.7386 18.528 29.3629 18.8437C28.9093 19.2239 28.6581 19.7619 28.5625 20.3888C28.5425 20.5222 28.5092 20.7935 28.5092 21.1936C28.5092 21.1936 28.5092 45.4977 28.5092 50.9667C28.5092 51.6626 28.4536 52.3385 27.9823 52.9143C27.511 53.4901 26.9285 53.6635 26.246 53.8013C25.7279 53.9058 25.2099 54.0103 24.6919 54.1148C22.7266 54.5105 21.4483 54.7795 20.29 55.2286C19.1828 55.6577 18.3536 56.2046 17.6933 56.8982C16.3838 58.27 15.8525 60.1308 16.0348 61.8738C16.1904 63.3611 16.8596 64.7839 18.009 65.8355C18.7849 66.5469 19.7542 67.0872 20.8969 67.3162C22.0819 67.554 23.3447 67.4718 25.1899 67.0983C26.1726 66.9004 27.093 66.5914 27.9689 66.0734C28.836 65.562 29.5785 64.8795 30.1588 64.048C30.7413 63.2143 31.117 62.2873 31.3237 61.3024C31.5372 60.2864 31.5883 59.3682 31.5883 58.3544V32.532C31.5883 31.1491 31.9796 30.7845 33.0956 30.5133C33.0956 30.5133 52.8688 26.5249 53.7914 26.3448C55.0786 26.098 55.6856 26.4648 55.6856 27.8143V45.4421C55.6856 46.1402 55.6789 46.8471 55.2031 47.4252C54.7318 48.001 54.1493 48.1744 53.4668 48.3122C52.9488 48.4167 52.4308 48.5212 51.9128 48.6257C49.9475 49.0214 48.6691 49.2904 47.5109 49.7395C46.4037 50.1686 45.5745 50.7155 44.9142 51.4092C43.6047 52.7809 43.0267 54.6417 43.209 56.3847C43.3646 57.872 44.0805 59.2948 45.2299 60.3464C46.0058 61.0578 46.9751 61.5825 48.1178 61.8137C49.3028 62.0516 50.5655 61.9671 52.4108 61.5959C53.3934 61.398 54.3138 61.1023 55.1898 60.5843C56.0568 60.073 56.7994 59.3904 57.3796 58.559C57.9621 57.7253 58.3378 56.7982 58.5446 55.8133C58.758 54.7973 58.7669 53.8791 58.7669 52.8653V15.1132C58.7714 13.7437 58.0488 12.8989 56.7616 13.01Z" fill="white"/>
</g>
<defs>
<filter id="filter0_i" x="0" y="-1" width="80" height="81" filterUnits="userSpaceOnUse" color-interpolation-filters="sRGB">
<feFlood flood-opacity="0" result="BackgroundImageFix"/>
<feBlend mode="normal" in="SourceGraphic" in2="BackgroundImageFix" result="shape"/>
<feColorMatrix in="SourceAlpha" type="matrix" values="0 0 0 0 0 0 0 0 0 0 0 0 0 0 0 0 0 0 127 0" result="hardAlpha"/>
<feOffset dy="-1"/>
<feGaussianBlur stdDeviation="0.5"/>
<feComposite in2="hardAlpha" operator="arithmetic" k2="-1" k3="1"/>
<feColorMatrix type="matrix" values="0 0 0 0 0 0 0 0 0 0 0 0 0 0 0 0 0 0 0.12 0"/>
<feBlend mode="normal" in2="shape" result="effect1_innerShadow"/>
</filter>
<linearGradient id="paint0_linear" x1="40" y1="79.6918" x2="40" y2="1.72417" gradientUnits="userSpaceOnUse">
<stop stop-color="#FA233B"/>
<stop offset="1" stop-color="#FB5C74"/>
</linearGradient>
</defs>
</svg>
