<svg width="20" height="20" viewBox="0 0 20 20" fill="none" xmlns="http://www.w3.org/2000/svg">
    <path d="M5.33333 5H2.66667C2.29848 5 2 5.29848 2 5.66667V8.33333C2 8.70152 2.29848 9 2.66667 9H5.33333C5.70152 9 6 8.70152 6 8.33333V5.66667C6 5.29848 5.70152 5 5.33333 5Z" stroke="#BDBDBD" stroke-width="1.25" stroke-linecap="round" stroke-linejoin="round"></path>
    <path d="M5.33333 11H2.66667C2.29848 11 2 11.2985 2 11.6667V14.3333C2 14.7015 2.29848 15 2.66667 15H5.33333C5.70152 15 6 14.7015 6 14.3333V11.6667C6 11.2985 5.70152 11 5.33333 11Z" stroke="#BDBDBD" stroke-width="1.25" stroke-linecap="round" stroke-linejoin="round"></path>
    <path d="M11.3333 5H8.66667C8.29848 5 8 5.29848 8 5.66667V8.33333C8 8.70152 8.29848 9 8.66667 9H11.3333C11.7015 9 12 8.70152 12 8.33333V5.66667C12 5.29848 11.7015 5 11.3333 5Z" stroke="#BDBDBD" stroke-width="1.25" stroke-linecap="round" stroke-linejoin="round"></path>
    <path d="M11.3333 11H8.66667C8.29848 11 8 11.2985 8 11.6667V14.3333C8 14.7015 8.29848 15 8.66667 15H11.3333C11.7015 15 12 14.7015 12 14.3333V11.6667C12 11.2985 11.7015 11 11.3333 11Z" stroke="#BDBDBD" stroke-width="1.25" stroke-linecap="round" stroke-linejoin="round"></path>
    <path d="M17.3333 5H14.6667C14.2985 5 14 5.29848 14 5.66667V8.33333C14 8.70152 14.2985 9 14.6667 9H17.3333C17.7015 9 18 8.70152 18 8.33333V5.66667C18 5.29848 17.7015 5 17.3333 5Z" stroke="#BDBDBD" stroke-width="1.25" stroke-linecap="round" stroke-linejoin="round"></path>
    <path d="M17.3333 11H14.6667C14.2985 11 14 11.2985 14 11.6667V14.3333C14 14.7015 14.2985 15 14.6667 15H17.3333C17.7015 15 18 14.7015 18 14.3333V11.6667C18 11.2985 17.7015 11 17.3333 11Z" stroke="#BDBDBD" stroke-width="1.25" stroke-linecap="round" stroke-linejoin="round"></path>
</svg>
