
<svg width="80" height="80" viewBox="0 0 80 80" fill="none" xmlns="http://www.w3.org/2000/svg">
<g filter="url(#filter0_i_3067_247999)">
<path d="M18.0952 0H61.9048C71.9048 0 80 8.09524 80 18.0952V61.9048C80 71.9048 71.9048 80 61.9048 80H18.0952C8.09524 80 0 71.9048 0 61.9048V18.0952C0 8.09524 8.09524 0 18.0952 0Z"/>
<path d="M41.3224 32.8013C43.2112 31.6899 45.3084 31.0989 47.4306 31.1863C51.9418 31.3723 55.4998 33.4123 57.8558 37.3142C59.2538 39.6292 59.7401 42.1544 59.7047 44.8492C59.6647 47.8759 58.7992 50.5693 56.8453 52.8767C54.3899 55.7769 51.2169 57.1773 47.401 57.4972C41.7731 57.9693 37.203 55.6785 32.9098 52.4875C30.7909 50.9126 28.6554 49.3634 26.4223 47.9494C25.4362 47.325 24.3878 46.8508 23.2581 46.5527C20.7201 45.8829 18.2781 46.85 16.9076 49.0695C16.7863 49.2658 16.6567 49.4605 16.5652 49.6707C16.2907 50.3014 15.8212 50.5512 15.1321 50.5294C14.1113 50.4971 13.0881 50.5428 12.0673 50.515C10.8513 50.4817 10.5506 50.0497 11.0234 48.9464C12.6253 45.2084 15.4489 42.8509 19.4195 41.9424C23.1023 41.0997 26.5093 41.8411 29.5612 44.0684C31.3561 45.378 33.097 46.7616 34.9125 48.0415C37.3767 49.7781 39.9084 51.4579 42.8497 52.2686C45.9518 53.1234 49.0031 53.0145 51.7527 51.0454C53.3693 49.8878 54.4351 48.3604 54.7403 46.397C55.1486 43.7698 54.8704 41.2616 53.2088 39.0393C50.0757 34.8491 43.9617 35.0523 41.1085 39.4849C40.2961 40.747 39.7867 42.1153 39.8695 43.6559C39.9039 44.2991 39.9131 44.9505 39.8494 45.5898C39.7743 46.3409 39.3393 46.6256 38.712 46.3002C37.5597 45.7031 36.4903 44.9633 35.4642 44.1702C34.954 43.776 35.0458 43.1842 35.0455 42.6344C35.0453 39.4544 35.0455 36.2739 35.0492 33.0939C35.0492 29.9137 35.0431 26.7334 35.0519 23.5532C35.0556 22.0966 35.1465 22.0203 36.6592 22.0037C37.1236 21.9988 37.588 21.9988 38.0524 22.0037C39.6355 22.0208 39.8695 22.2562 39.8745 23.8812C39.8814 26.0015 39.8764 28.1215 39.8764 30.2417C39.8764 30.7947 39.8753 31.3479 39.8766 31.9009C39.8803 33.6199 39.8941 33.6419 41.3224 32.8013Z" fill="#0A0E10"/>
</g>
<defs>
<filter id="filter0_i_3067_247999" x="0" y="-1" width="80" height="81" filterUnits="userSpaceOnUse" color-interpolation-filters="sRGB">
<feFlood flood-opacity="0" result="BackgroundImageFix"/>
<feBlend mode="normal" in="SourceGraphic" in2="BackgroundImageFix" result="shape"/>
<feColorMatrix in="SourceAlpha" type="matrix" values="0 0 0 0 0 0 0 0 0 0 0 0 0 0 0 0 0 0 127 0" result="hardAlpha"/>
<feOffset dy="-1"/>
<feGaussianBlur stdDeviation="0.5"/>
<feComposite in2="hardAlpha" operator="arithmetic" k2="-1" k3="1"/>
<feColorMatrix type="matrix" values="0 0 0 0 0 0 0 0 0 0 0 0 0 0 0 0 0 0 0.12 0"/>
<feBlend mode="normal" in2="shape" result="effect1_innerShadow_3067_247999"/>
</filter>
</defs>
</svg>
