<svg width="80" height="80" viewBox="0 0 80 80" fill="none" xmlns="http://www.w3.org/2000/svg">
<g filter="url(#filter0_i)">
<path d="M18.0952 0H61.9048C71.9048 0 80 8.09524 80 18.0952V61.9048C80 71.9048 71.9048 80 61.9048 80H18.0952C8.09524 80 0 71.9048 0 61.9048V18.0952C0 8.09524 8.09524 0 18.0952 0Z"/>
<path d="M18.0952 0.5H61.9048C71.6286 0.5 79.5 8.37138 79.5 18.0952V61.9048C79.5 71.6286 71.6286 79.5 61.9048 79.5H18.0952C8.37138 79.5 0.5 71.6286 0.5 61.9048V18.0952C0.5 8.37138 8.37138 0.5 18.0952 0.5Z" stroke="black" stroke-opacity="0.05"/>
<path d="M50.224 48.6101C48.3724 50.2444 46.0599 52.2779 41.867 52.2779H39.3597C36.3256 52.2779 33.5659 51.1811 31.5906 49.1931C29.661 47.2505 28.5988 44.592 28.5988 41.7059V38.2943C28.5988 35.4083 29.661 32.7497 31.5906 30.8072C33.5659 28.8191 36.3256 27.7241 39.3597 27.7241H41.867C46.065 27.7241 48.3724 29.7559 50.224 31.3901C52.1468 33.0749 53.8053 34.5474 58.2286 34.5474C58.9033 34.5472 59.5768 34.4937 60.2429 34.3873L60.2277 34.3486C59.9627 33.6942 59.6519 33.0592 59.2976 32.4481L56.3414 27.3551C55.0083 25.0591 53.091 23.1526 50.7822 21.8271C48.4733 20.5016 45.8543 19.8038 43.1884 19.804H37.2743C34.6084 19.8038 31.9894 20.5016 29.6806 21.8271C27.3717 23.1526 25.4544 25.0591 24.1213 27.3551L21.1651 32.4481C19.8324 34.7443 19.1309 37.3489 19.1309 40.0001C19.1309 42.6514 19.8324 45.2559 21.1651 47.5521L24.1213 52.6452C25.4544 54.9411 27.3717 56.8476 29.6806 58.1731C31.9894 59.4986 34.6084 60.1964 37.2743 60.1963H43.1884C45.8543 60.1964 48.4733 59.4986 50.7822 58.1731C53.091 56.8476 55.0083 54.9411 56.3414 52.6452L59.2976 47.5605C59.6519 46.9495 59.9627 46.3144 60.2277 45.6601L60.2429 45.623C59.5772 45.513 58.9035 45.4567 58.2286 45.4546C53.8053 45.4546 52.1468 46.9186 50.224 48.6118" fill="#006BFF"/>
<path d="M41.8685 30.8154H39.3612C34.7431 30.8154 31.709 34.0957 31.709 38.2941V41.7058C31.709 45.9042 34.7431 49.1845 39.3612 49.1845H41.8685C48.5975 49.1845 48.0689 42.3612 58.2302 42.3612C59.1929 42.3601 60.1536 42.4481 61.1 42.624C61.4083 40.8881 61.4083 39.1118 61.1 37.3759C60.1535 37.551 59.1928 37.639 58.2302 37.6387C48.0655 37.6387 48.5975 30.8154 41.8685 30.8154Z"/>
<path d="M66.9374 45.1175C65.207 43.8571 63.2115 43.0039 61.1012 42.6223C61.1012 42.6409 61.1012 42.656 61.1012 42.6729C60.9196 43.6788 60.6358 44.6638 60.2542 45.6128C61.9974 45.8813 63.6513 46.5587 65.079 47.589C65.079 47.6025 65.0705 47.6194 65.0654 47.6345C63.2279 53.5518 59.3171 58.6172 54.0435 61.9108C48.7699 65.2043 42.4832 66.5074 36.3257 65.5834C30.1681 64.6593 24.5481 61.5694 20.4865 56.875C16.4249 52.1805 14.1912 46.193 14.1912 40C14.1912 33.807 16.4249 27.8195 20.4865 23.125C24.5481 18.4306 30.1681 15.3407 36.3257 14.4166C42.4832 13.4926 48.7699 14.7957 54.0435 18.0892C59.3171 21.3828 63.2279 26.4482 65.0654 32.3655C65.0654 32.3806 65.0739 32.3975 65.079 32.411C63.6515 33.4414 61.9975 34.1183 60.2542 34.3855C60.6353 35.3358 60.9191 36.3219 61.1012 37.3288C61.1003 37.3445 61.1003 37.3603 61.1012 37.376C63.2114 36.995 65.207 36.1424 66.9374 34.8825C68.601 33.6577 68.2791 32.2745 68.0267 31.4557C65.9699 24.8213 61.588 19.1408 55.6773 15.4465C49.7666 11.7523 42.7194 10.2894 35.8163 11.3237C28.9131 12.358 22.6121 15.8208 18.0583 21.083C13.5045 26.3452 11 33.0574 11 40C11 46.9426 13.5045 53.6548 18.0583 58.917C22.6121 64.1792 28.9131 67.642 35.8163 68.6763C42.7194 69.7106 49.7666 68.2477 55.6773 64.5535C61.588 60.8592 65.9699 55.1787 68.0267 48.5443C68.2791 47.7255 68.601 46.3423 66.9374 45.1175Z" fill="#006BFF"/>
<path d="M60.2437 34.3857C59.5779 34.4957 58.9043 34.552 58.2294 34.5542C53.8061 34.5542 52.1476 33.0901 50.2265 31.3969C48.3732 29.7627 46.0658 27.7292 41.8678 27.7292H39.3605C36.3247 27.7292 33.5667 28.826 31.5914 30.814C29.6618 32.7565 28.5996 35.4151 28.5996 38.3011V41.7128C28.5996 44.5988 29.6618 47.2573 31.5914 49.1999C33.5667 51.1879 36.3247 52.283 39.3605 52.283H41.8678C46.0658 52.283 48.3732 50.2512 50.2265 48.617C52.1476 46.9322 53.8061 45.4597 58.2294 45.4597C58.9041 45.4599 59.5776 45.5134 60.2437 45.6197C60.6261 44.671 60.9099 43.6859 61.0908 42.6798C61.0917 42.663 61.0917 42.6461 61.0908 42.6293C60.1443 42.4548 59.1836 42.3673 58.221 42.3681C48.0564 42.3681 48.5883 49.1931 41.8593 49.1931H39.3521C34.7339 49.1931 31.6998 45.9112 31.6998 41.7128V38.2944C31.6998 34.0959 34.7339 30.8157 39.3521 30.8157H41.8593C48.5883 30.8157 48.0597 37.6373 58.221 37.6373C59.1836 37.6389 60.1444 37.5515 61.0908 37.3762C61.0908 37.361 61.0908 37.3458 61.0908 37.329C60.9087 36.3221 60.6249 35.336 60.2437 34.3857Z" fill="#0AE8F0"/>
<path d="M60.2437 34.3857C59.5779 34.4957 58.9043 34.552 58.2294 34.5542C53.8061 34.5542 52.1476 33.0901 50.2265 31.3969C48.3732 29.7627 46.0658 27.7292 41.8678 27.7292H39.3605C36.3247 27.7292 33.5667 28.826 31.5914 30.814C29.6618 32.7565 28.5996 35.4151 28.5996 38.3011V41.7128C28.5996 44.5988 29.6618 47.2573 31.5914 49.1999C33.5667 51.1879 36.3247 52.283 39.3605 52.283H41.8678C46.0658 52.283 48.3732 50.2512 50.2265 48.617C52.1476 46.9322 53.8061 45.4597 58.2294 45.4597C58.9041 45.4599 59.5776 45.5134 60.2437 45.6197C60.6261 44.671 60.9099 43.6859 61.0908 42.6798C61.0917 42.663 61.0917 42.6461 61.0908 42.6293C60.1443 42.4548 59.1836 42.3673 58.221 42.3681C48.0564 42.3681 48.5883 49.1931 41.8593 49.1931H39.3521C34.7339 49.1931 31.6998 45.9112 31.6998 41.7128V38.2944C31.6998 34.0959 34.7339 30.8157 39.3521 30.8157H41.8593C48.5883 30.8157 48.0597 37.6373 58.221 37.6373C59.1836 37.6389 60.1444 37.5515 61.0908 37.3762C61.0908 37.361 61.0908 37.3458 61.0908 37.329C60.9087 36.3221 60.6249 35.336 60.2437 34.3857Z" fill="#0AE8F0"/>
</g>
<defs>
<filter id="filter0_i" x="0" y="-1" width="80" height="81" filterUnits="userSpaceOnUse" color-interpolation-filters="sRGB">
<feFlood flood-opacity="0" result="BackgroundImageFix"/>
<feBlend mode="normal" in="SourceGraphic" in2="BackgroundImageFix" result="shape"/>
<feColorMatrix in="SourceAlpha" type="matrix" values="0 0 0 0 0 0 0 0 0 0 0 0 0 0 0 0 0 0 127 0" result="hardAlpha"/>
<feOffset dy="-1"/>
<feGaussianBlur stdDeviation="0.5"/>
<feComposite in2="hardAlpha" operator="arithmetic" k2="-1" k3="1"/>
<feColorMatrix type="matrix" values="0 0 0 0 0 0 0 0 0 0 0 0 0 0 0 0 0 0 0.12 0"/>
<feBlend mode="normal" in2="shape" result="effect1_innerShadow"/>
</filter>
</defs>
</svg>
