<?xml version="1.0" encoding="UTF-8"?>
<svg xmlns="http://www.w3.org/2000/svg" xmlns:xlink="http://www.w3.org/1999/xlink" width="20px" height="14px" viewBox="0 0 20 14" version="1.1">
<g id="surface1">
<path style=" stroke:none;fill-rule:nonzero;fill:rgb(60%,60%,60%);fill-opacity:1;" d="M 5.019531 2.011719 C 7.308594 2.175781 9.09375 3.5625 9.09375 5.222656 C 9.09375 6.574219 7.90625 7.71875 6.234375 8.195312 L 3.648438 10.480469 L 3.648438 8.355469 C 1.570312 8.058594 0.015625 6.777344 0.015625 5.222656 C 0.015625 3.449219 2.046875 2.011719 4.554688 2.011719 C 4.710938 2.011719 4.867188 2 5.019531 2.011719 Z M 5.019531 2.011719 "/>
<path style="fill-rule:nonzero;fill:rgb(50.196078%,50.196078%,50.196078%);fill-opacity:1;stroke-width:29.061;stroke-linecap:butt;stroke-linejoin:miter;stroke:rgb(100%,100%,100%);stroke-opacity:1;stroke-miterlimit:4;" d="M 396.891917 184.608036 C 289.287917 192.036964 205.346833 254.703571 205.346833 329.951429 C 205.346833 391.060357 261.1415 442.943036 339.727292 464.391071 L 461.4045 567.916786 L 461.4045 471.580357 C 559.045167 458.280179 632.151125 400.406429 632.151125 329.951429 C 632.151125 249.671071 536.627667 184.608036 418.686708 184.608036 C 411.33875 184.608036 404.115333 184.12875 396.891917 184.608036 Z M 396.891917 184.608036 " transform="matrix(0.031365,0,0,0.0326006,-0.300079,-5.537863)"/>
</g>
</svg>
