<svg width="80" height="80" viewBox="0 0 80 80" fill="none" xmlns="http://www.w3.org/2000/svg">
<g filter="url(#filter0_i)">
<path d="M18.0952 0H61.9048C71.9048 0 80 8.09524 80 18.0952V61.9048C80 71.9048 71.9048 80 61.9048 80H18.0952C8.09524 80 0 71.9048 0 61.9048V18.0952C0 8.09524 8.09524 0 18.0952 0Z" fill="#F1EFE3"/>
<path fill-rule="evenodd" clip-rule="evenodd" d="M41.3878 21.9531C41.7298 22.2952 41.9663 22.9163 42.1469 23.9467C43.3387 30.7489 43.4857 31.2854 45.2289 35.2064C45.83 36.5584 46.2311 37.7263 46.1261 37.8192C45.6884 38.2069 43.0644 39.2856 42.8659 39.1594C42.4887 38.9193 40.7389 35.2088 40.1582 33.4182C39.8509 32.4699 39.3414 30.6756 39.0263 29.431C37.4959 23.3872 37.4803 22.554 38.8834 21.7926C39.7753 21.3085 40.8096 21.3749 41.3878 21.9531ZM47.7566 23.39C48.2568 23.6577 48.7493 24.8925 49.0555 26.6477C49.7213 30.4612 51.2004 34.1779 53.3749 37.5007C53.9908 38.4421 54.5402 39.3303 54.5956 39.4745C54.651 39.6189 53.9622 40.4391 53.0649 41.2976C51.0517 43.2235 50.1392 44.8811 50.1392 46.6116V47.7743L51.1461 47.7086C52.2403 47.6372 52.1233 47.7937 52.7244 45.5954C52.9348 44.8259 53.4068 44.2007 55.009 42.5692C56.6446 40.9034 57.1058 40.2872 57.4367 39.3259C58.3121 36.781 59.385 35.3801 60.9624 34.7223C62.0939 34.2503 62.7929 34.3062 63.4037 34.9172C64.1076 35.6209 64.0753 36.3511 63.2655 38.052C61.5521 41.6517 61.1788 43.0892 60.915 47.104C60.5904 52.0449 59.4915 55.097 57.1884 57.454C53.2037 61.5319 47.6085 62.4475 42.3963 59.8745C39.2886 58.3406 36.1523 54.4327 32.7724 47.8827C30.31 43.1108 27.7246 36.4664 27.7246 34.9105C27.7246 33.721 28.9266 32.863 30.1596 33.1725C30.731 33.3158 31.3868 34.4077 31.9252 36.1123C32.7444 38.7048 35.332 44.1602 36.009 44.7223C36.1786 44.863 36.6389 44.9473 37.0321 44.9096C38.1241 44.8048 38.0978 44.0343 36.9286 41.8694C34.9542 38.2132 32.4662 31.0257 32.4662 28.9775C32.4662 27.6236 33.125 26.8447 34.2707 26.8447C35.8385 26.8447 36.0314 27.1339 36.9866 30.9175C37.7868 34.087 38.3875 35.7232 39.8309 38.6654L40.9249 40.8952L40.4654 41.4672C39.6276 42.5097 39.5091 43.0287 39.9677 43.6438C40.6419 44.5475 40.9981 44.4417 42.6894 42.8351C44.5185 41.0976 46.6438 39.9467 49.3411 39.2328C51.0414 38.7828 51.1091 38.741 51.1091 38.1391C51.1091 37.5358 51.0681 37.5108 49.9752 37.4479C48.6333 37.3707 48.6422 37.3815 47.2154 34.1725C46.1059 31.6776 45.0838 27.9842 44.8522 25.6334C44.7062 24.1526 44.7179 24.1004 45.2946 23.6467C45.9227 23.1525 47.0863 23.0312 47.7566 23.39Z" fill="#FFE450"/>
<path fill-rule="evenodd" clip-rule="evenodd" d="M39.216 19.0959C36.9174 19.549 35.4833 21.1753 35.4805 23.3316L35.4792 24.3662L34.349 24.3843C31.5362 24.4297 29.6551 26.5912 29.9525 29.4364L30.0814 30.6705L29.0152 30.7728C27.658 30.9032 26.3612 31.7464 25.7875 32.871C25.0678 34.2814 25.1974 35.8247 26.306 39.0492C28.7953 46.2898 33.3231 54.7364 36.7779 58.5846C41.6928 64.0592 49.6364 65.3646 55.8286 61.7155C57.656 60.6386 59.69 58.6396 60.7743 56.8548C62.4215 54.1433 63.4912 50.0237 63.5019 46.3497C63.5082 44.2513 63.9599 42.5418 65.2539 39.7212C66.165 37.7356 66.3667 37.0808 66.3697 36.0978C66.3837 31.7852 61.0982 30.4901 57.7487 33.9857C57.2526 34.5034 56.6148 35.3385 56.3312 35.8418L55.8157 36.7567L54.7021 34.8885C53.2505 32.4537 52.391 30.1842 51.6147 26.7369C50.8575 23.3741 50.3573 22.265 49.229 21.4477C48.0426 20.5884 46.772 20.4363 45.1685 20.9621C44.4638 21.1932 43.8872 21.3094 43.8872 21.2203C43.8872 20.9106 42.7544 19.7149 42.1913 19.4302C41.3764 19.0181 40.252 18.8918 39.216 19.0959ZM41.3861 21.9531C41.7281 22.2952 41.9645 22.9163 42.1452 23.9467C43.337 30.7489 43.484 31.2854 45.2272 35.2064C45.8283 36.5584 46.2294 37.7263 46.1244 37.8192C45.6867 38.2069 43.0626 39.2856 42.8641 39.1594C42.487 38.9193 40.7371 35.2088 40.1565 33.4182C39.8492 32.4699 39.3397 30.6756 39.0246 29.431C37.4941 23.3872 37.4786 22.554 38.8817 21.7926C39.7735 21.3085 40.8078 21.3749 41.3861 21.9531ZM47.7548 23.39C48.2551 23.6577 48.7475 24.8925 49.0538 26.6477C49.7196 30.4612 51.1987 34.1779 53.3731 37.5007C53.9891 38.4421 54.5385 39.3303 54.5939 39.4745C54.6493 39.6189 53.9604 40.4391 53.0632 41.2976C51.05 43.2235 50.1375 44.8811 50.1375 46.6116V47.7743L51.1444 47.7086C52.2386 47.6372 52.1216 47.7937 52.7227 45.5954C52.933 44.8259 53.405 44.2007 55.0072 42.5692C56.6429 40.9034 57.1041 40.2872 57.4349 39.3259C58.3104 36.781 59.3833 35.3801 60.9607 34.7223C62.0922 34.2503 62.7911 34.3062 63.4019 34.9172C64.1058 35.6209 64.0735 36.3511 63.2638 38.052C61.5504 41.6517 61.1771 43.0892 60.9133 47.104C60.5887 52.0449 59.4897 55.097 57.1866 57.454C53.202 61.5319 47.6068 62.4475 42.3945 59.8745C39.2869 58.3406 36.1505 54.4327 32.7707 47.8827C30.3083 43.1108 27.7229 36.4664 27.7229 34.9105C27.7229 33.721 28.9249 32.863 30.1579 33.1725C30.7292 33.3158 31.3851 34.4077 31.9235 36.1123C32.7427 38.7048 35.3303 44.1602 36.0072 44.7223C36.1768 44.863 36.6372 44.9473 37.0303 44.9096C38.1224 44.8048 38.0961 44.0343 36.9269 41.8694C34.9524 38.2132 32.4644 31.0257 32.4644 28.9775C32.4644 27.6236 33.1233 26.8447 34.269 26.8447C35.8367 26.8447 36.0296 27.1339 36.9848 30.9175C37.7851 34.087 38.3858 35.7232 39.8291 38.6654L40.9231 40.8952L40.4636 41.4672C39.6259 42.5097 39.5073 43.0287 39.966 43.6438C40.6401 44.5475 40.9964 44.4417 42.6876 42.8351C44.5168 41.0976 46.6421 39.9467 49.3394 39.2328C51.0396 38.7828 51.1073 38.741 51.1073 38.1391C51.1073 37.5358 51.0664 37.5108 49.9734 37.4479C48.6316 37.3707 48.6404 37.3815 47.2137 34.1725C46.1041 31.6776 45.0821 27.9842 44.8504 25.6334C44.7045 24.1526 44.7162 24.1004 45.2929 23.6467C45.9209 23.1525 47.0846 23.0312 47.7548 23.39ZM14.869 23.711C14.2937 24.114 13.8765 25.1213 13.9666 25.8886C14.0282 26.4121 14.4371 26.7173 17.2122 28.3116C21.0213 30.4998 21.7474 30.6511 22.427 29.3984C22.804 28.704 22.8173 28.5674 22.541 28.2344C22.1494 27.7626 18.4284 24.9362 17.0376 24.0543C15.8714 23.3146 15.5153 23.2584 14.869 23.711ZM12.8277 36.2612C12.065 36.4517 11.7057 38.4434 12.29 39.2423C12.6445 39.7275 14.5405 39.9523 18.4829 39.9764C21.1987 39.993 21.3668 39.9286 21.5964 38.7809C21.8046 37.739 21.2274 37.4345 17.9887 36.8772C14.6287 36.2989 13.3075 36.1411 12.8277 36.2612ZM20.9338 47.3064C16.9509 48.6987 16.4682 48.9153 16.0263 49.5082C15.6343 50.0343 15.6237 50.1559 15.8959 51.0106C16.088 51.6128 16.399 52.0559 16.7785 52.2678C17.346 52.5844 17.4708 52.5413 20.708 50.9119C24.4172 49.0448 25.0198 48.5289 24.668 47.5202C24.4631 46.9318 23.9113 46.4428 23.4805 46.4676C23.3837 46.473 22.2378 46.8506 20.9338 47.3064Z" fill="#000"/>
</g>
<defs>
<filter id="filter0_i" x="0" y="-1" width="80" height="81" filterUnits="userSpaceOnUse" color-interpolation-filters="sRGB">
<feFlood flood-opacity="0" result="BackgroundImageFix"/>
<feBlend mode="normal" in="SourceGraphic" in2="BackgroundImageFix" result="shape"/>
<feColorMatrix in="SourceAlpha" type="matrix" values="0 0 0 0 0 0 0 0 0 0 0 0 0 0 0 0 0 0 127 0" result="hardAlpha"/>
<feOffset dy="-1"/>
<feGaussianBlur stdDeviation="0.5"/>
<feComposite in2="hardAlpha" operator="arithmetic" k2="-1" k3="1"/>
<feColorMatrix type="matrix" values="0 0 0 0 0 0 0 0 0 0 0 0 0 0 0 0 0 0 0.12 0"/>
<feBlend mode="normal" in2="shape" result="effect1_innerShadow"/>
</filter>
</defs>
</svg>
