<svg width="12" height="12" viewBox="0 0 12 12" fill="none" xmlns="http://www.w3.org/2000/svg"><path fill-rule="evenodd" clip-rule="evenodd" d="M9.17275 1.10225C8.95308 0.882583 8.59692 0.882583 8.37725 1.10225L6.36 3.1195L5.72275 2.48225C5.50308 2.26258 5.14692 2.26258 4.92725 2.48225L4.23725 3.17225C4.01758 3.39192 4.01758 3.74808 4.23725 3.96775L4.87451 4.605L1.47725 8.00225C1.37176 8.10774 1.3125 8.25082 1.3125 8.4V10.125C1.3125 10.4357 1.56434 10.6875 1.875 10.6875H3.6C3.74918 10.6875 3.89226 10.6282 3.99775 10.5227L7.395 7.12549L8.03225 7.76275C8.25192 7.98242 8.60808 7.98242 8.82775 7.76275L9.51775 7.07275C9.73742 6.85308 9.73742 6.49692 9.51775 6.27725L8.8805 5.64L10.8977 3.62275C11.1174 3.40308 11.1174 3.04692 10.8977 2.82725L9.17275 1.10225ZM6.06617 5.00433L2.4375 8.633V9.5625H3.36701L6.99567 5.93383L6.06617 5.00433Z" fill="#828282"></path></svg>