<svg width="16" height="16" fill="none" viewBox="0 0 16 15"><rect x="1.5" y="3.58136" width="13" height="10.0437" rx="2" stroke="#BDBDBD" stroke-width="1.25" stroke-linecap="round" stroke-linejoin="round"></rect><path fill-rule="evenodd" clip-rule="evenodd" d="M12.9511 1.72704H2.58203V1.375C2.58203 0.822715 3.02975 0.375 3.58203 0.375H11.9511C12.5034 0.375 12.9511 0.822715 12.9511 1.375V1.72704Z" fill="#BDBDBD"></path><path d="M8.00223 9.10522C8.77149 9.10522 9.39509 8.43071 9.39509 7.59866C9.39509 6.76661 8.77149 6.0921 8.00223 6.0921C7.23298 6.0921 6.60938 6.76661 6.60938 7.59866C6.60938 8.43071 7.23298 9.10522 8.00223 9.10522Z" stroke="#BDBDBD" stroke-width="1.25" stroke-linecap="round" stroke-linejoin="round"></path><path d="M4.98438 13.6251C4.98438 12.1988 6.1425 11.1142 7.57111 11.1142H8.43335C9.86197 11.1142 11.0201 12.1988 11.0201 13.6251" stroke="#BDBDBD" stroke-width="1.25" stroke-linecap="round" stroke-linejoin="round"></path></svg>
