<svg class="icon-shadow" width="54" height="54" viewBox="0 0 80 80" fill="none" xmlns="http://www.w3.org/2000/svg"><g filter="url(#filter0_i)"><path d="M18.0952 0H61.9048C71.9048 0 80 8.09524 80 18.0952V61.9048C80 71.9048 71.9048 80 61.9048 80H18.0952C8.09524 80 0 71.9048 0 61.9048V18.0952C0 8.09524 8.09524 0 18.0952 0Z"></path><mask id="mask0" mask-type="alpha" maskUnits="userSpaceOnUse" x="0" y="0" width="80" height="80"><path d="M18.0952 0H61.9048C71.9048 0 80 8.09524 80 18.0952V61.9048C80 71.9048 71.9048 80 61.9048 80H18.0952C8.09524 80 0 71.9048 0 61.9048V18.0952C0 8.09524 8.09524 0 18.0952 0Z" fill="#fff"></path></mask><g mask="url(#mask0)"><path d="M18.0952 0H61.9048C71.9048 0 80 8.09524 80 18.0952V61.9048C80 71.9048 71.9048 80 61.9048 80H18.0952C8.09524 80 0 71.9048 0 61.9048V18.0952C0 8.09524 8.09524 0 18.0952 0Z" fill="#f0f8ff00"></path><path d="M63.8105 0.0951271V19.9999H80.001V18.0951C80.001 8.76179 72.9534 1.04751 63.8105 0.0951271Z" fill="white" fill-opacity="0.8"></path><path d="M80.001 20H63.8105V40H80.001V20Z" fill="white" fill-opacity="0.85"></path><path d="M80.001 40H63.8105V60H80.001V40Z" fill="white" fill-opacity="0.9"></path><path d="M63.8105 79.9048C72.9534 78.9524 80.001 71.2381 80.001 61.9048V60H63.8105V79.9048Z" fill="white" fill-opacity="0.95"></path><path d="M63.8186 70.3005C63.8186 70.11 63.8186 69.8576 63.8186 69.5718C63.7233 69.9528 63.5819 69.5111 63.3914 69.3206C61.7724 68.4635 60.7674 68.045 59.0531 67.2831C55.9103 65.8545 52.5769 65.3784 49.2436 64.426C47.3388 63.8545 45.5293 63.2831 43.815 62.5212C42.7674 62.045 42.2912 61.2831 42.0055 60.3307C41.9103 60.1403 41.9103 59.9498 41.815 59.7593C41.5293 58.045 41.5293 56.3307 41.3388 54.6165C41.2436 54.1403 41.4341 53.7593 41.815 53.4736C42.5769 52.7117 43.2436 51.9498 43.5293 50.9022C43.7198 49.9498 43.9103 48.9022 44.1007 47.9498C44.3864 46.6165 44.4817 45.2831 44.8626 44.045C45.0531 43.4736 45.2436 43.0926 45.815 42.9022C46.4817 42.7117 46.8626 42.1403 47.0531 41.3784C47.1483 40.8069 47.3388 40.1403 47.4341 39.5688C47.7198 37.8546 48.3864 36.2355 48.7674 34.6165C48.9579 33.8546 48.9579 33.1879 48.6722 32.5212C48.4817 32.045 48.196 31.8546 47.7198 32.045C47.0531 31.9498 46.9579 31.9498 47.0531 31.2831C47.0531 31.1879 47.0531 31.0927 47.1483 30.9974C48.1007 27.2831 48.6722 23.5688 48.4817 19.8546C48.3864 18.5212 48.196 17.2831 47.5293 16.045C47.0531 15.0927 46.4817 14.1403 45.9103 13.1879C45.0531 11.5688 43.5293 10.7117 41.815 10.3308C40.2912 9.9498 38.7674 9.56885 37.4341 8.80694C36.6722 8.33075 35.815 8.04504 34.8626 7.85456C34.1007 7.75932 33.4341 7.66408 32.6722 7.56885C32.0055 7.56885 31.2436 7.47361 30.5769 7.66408C29.0531 8.14027 27.5293 8.61646 26.0055 9.09266C24.1007 9.66408 22.4817 10.7117 21.0531 11.9498C20.3864 12.5212 19.815 13.1879 18.8626 13.3784C18.5769 13.4736 18.2912 13.6641 18.1007 13.8546C16.8626 15.0927 16.1007 16.5212 15.7198 18.2355C15.1483 20.8069 15.4341 23.3784 15.7198 25.9498C15.9103 27.7593 16.3864 29.5688 16.7674 31.2831C16.8626 31.8546 16.7674 31.9498 16.2912 31.7593C15.815 31.5688 15.5293 31.7593 15.3388 32.1403C15.2436 32.3307 15.1483 32.426 15.1483 32.6165C14.8626 33.6641 15.1483 34.6165 15.4341 35.5688C16.0055 37.3784 16.4817 39.2831 16.8626 41.1879C16.9579 41.9498 17.4341 42.426 18.1007 42.6165C18.6722 42.8069 18.8626 43.1879 19.0531 43.6641C19.5293 45.3784 19.6245 47.1879 20.1007 48.9022C20.2912 49.8546 20.3864 50.9022 20.9579 51.7593C21.3388 52.3307 21.815 52.9022 22.2912 53.3784C22.4817 53.5688 22.5769 53.7593 22.5769 54.045C22.4817 55.4736 22.3864 56.9974 22.2912 58.426C22.196 59.3784 22.0055 60.2355 21.5293 61.0926C21.3388 61.3784 21.1483 61.6641 20.8626 61.8546C20.1007 62.2355 19.3388 62.6165 18.5769 62.9022C16.2912 63.8545 13.815 64.426 11.4341 64.9974C8.00549 66.2355 4.76739 67.3784 1.71977 68.9974C1.71977 68.9974 1.62453 69.0926 1.5293 69.1879C3.41833 76.4561 11.0322 81.0327 18.5184 80.5514L62.5769 80.045C63.2436 80.045 63.2471 80.0185 63.8186 79.9233C63.8186 76.6852 63.8186 73.5386 63.8186 70.3005Z" fill="white"></path></g></g><defs><filter id="filter0_i" x="0" y="-1" width="80" height="81" filterUnits="userSpaceOnUse" color-interpolation-filters="sRGB"><feFlood flood-opacity="0" result="BackgroundImageFix"></feFlood><feBlend mode="normal" in="SourceGraphic" in2="BackgroundImageFix" result="shape"></feBlend><feColorMatrix in="SourceAlpha" type="matrix" values="0 0 0 0 0 0 0 0 0 0 0 0 0 0 0 0 0 0 127 0" result="hardAlpha"></feColorMatrix><feOffset dy="-1"></feOffset><feGaussianBlur stdDeviation="0.5"></feGaussianBlur><feComposite in2="hardAlpha" operator="arithmetic" k2="-1" k3="1"></feComposite><feColorMatrix type="matrix" values="0 0 0 0 1 0 0 0 0 1 0 0 0 0 1 0 0 0 0.42 0"></feColorMatrix><feBlend mode="normal" in2="shape" result="effect1_innerShadow"></feBlend></filter></defs></svg>
