<?xml version="1.0" encoding="UTF-8" standalone="no" ?>
<!DOCTYPE svg PUBLIC "-//W3C//DTD SVG 1.1//EN" "http://www.w3.org/Graphics/SVG/1.1/DTD/svg11.dtd">
<svg xmlns="http://www.w3.org/2000/svg" xmlns:xlink="http://www.w3.org/1999/xlink" version="1.1" width="1080" height="1080" viewBox="0 0 1080 1080" xml:space="preserve">
<desc>Created with Fabric.js 5.2.4</desc>
<defs>
</defs>
<rect x="0" y="0" width="100%" height="100%" fill="transparent"></rect>
<g transform="matrix(1 0 0 1 540 540)" id="77a0cb86-6bf4-49ec-a205-68fca86f4ac4"  >
<rect style="stroke: none; stroke-width: 1; stroke-dasharray: none; stroke-linecap: butt; stroke-dashoffset: 0; stroke-linejoin: miter; stroke-miterlimit: 4; fill: rgb(255,255,255); fill-rule: nonzero; opacity: 1; visibility: hidden;" vector-effect="non-scaling-stroke"  x="-540" y="-540" rx="0" ry="0" width="1080" height="1080" />
</g>
<g transform="matrix(Infinity NaN NaN Infinity 0 0)" id="052eea3f-91fc-4509-b356-3330e888f978"  >
</g>
<g transform="matrix(1 0 0 1 1080 1080)"  >
<g style="" vector-effect="non-scaling-stroke"   >
		<g transform="matrix(1 0 0 1 0 -0.18)" id="svg_1"  >
<path style="stroke: none; stroke-width: 1; stroke-dasharray: none; stroke-linecap: butt; stroke-dashoffset: 0; stroke-linejoin: miter; stroke-miterlimit: 4; fill: rgb(255,255,255); fill-rule: evenodd; opacity: 1;" vector-effect="non-scaling-stroke"  transform=" translate(-10, -9.78)" d="M 9.97308 0 C 12.91385 2.10373 15.57124 3.09931 17.85137 2.86366 C 18.03085 6.9643999999999995 17.52381 10.30754 16.42965 12.94802 C 16.148880411300194 12.688384030496465 15.837718299665488 12.47369095622935 15.504959999999997 12.31001 C 16.38892 10.09877 16.79552 7.3184700000000005 16.646749999999997 3.9250799999999995 C 14.716269999999998 4.12412 12.466849999999997 3.2816099999999997 9.976869999999998 1.5003899999999994 C 7.822719999999999 3.3891099999999996 5.599199999999998 3.9422099999999993 3.332869999999998 3.8082199999999995 C 3.232429999999998 8.127859999999998 3.905149999999998 11.37986 5.204329999999998 13.745729999999998 C 6.164909999999998 12.839349999999998 7.800969999999998 12.976449999999998 8.575509999999998 11.774429999999999 C 8.631079999999997 11.681339999999999 8.656969999999998 11.631479999999998 8.656619999999998 11.590189999999998 C 8.655929999999998 11.569159999999998 7.815809999999998 10.406479999999998 7.7405599999999986 10.270929999999998 C 7.542439999999998 9.915699999999998 7.171739999999999 9.433489999999999 7.171739999999999 9.017099999999997 C 7.171739999999999 8.782229999999997 7.336039999999999 8.475679999999997 7.571089999999999 8.407519999999998 C 7.552799999999999 8.055399999999999 7.540369999999999 7.698229999999998 7.540369999999999 7.344549999999998 C 7.540369999999999 7.135379999999998 7.544169999999999 6.923879999999998 7.550719999999999 6.716659999999998 C 7.561069999999999 6.585399999999998 7.582469999999999 6.527359999999998 7.6131899999999995 6.400769999999998 C 7.75808704366779 5.868920449180948 8.073351773322626 5.41705407549745 8.497489999999999 5.133309999999999 C 8.64763 5.0261999999999984 8.810899999999998 4.943229999999998 8.97795 4.875069999999998 C 9.28135 4.7500399999999985 9.13431 4.209009999999998 9.46739 4.200829999999998 C 10.24538 4.178239999999998 11.52558 4.945959999999998 12.02434 5.555539999999998 C 12.34223 5.952449999999998 12.52344 6.393369999999998 12.53449 6.927779999999998 L 12.50274 8.465949999999998 C 12.640799999999999 8.504119999999997 12.795779999999999 8.626429999999997 12.829609999999999 8.782229999999998 C 12.936259999999999 9.267949999999999 12.489629999999998 9.872459999999998 12.282189999999998 10.258079999999998 C 12.090969999999999 10.614479999999999 11.359579999999998 11.587079999999998 11.358889999999999 11.594869999999998 C 11.355439999999998 11.63694 11.374419999999999 11.689129999999999 11.42447 11.774429999999999 C 11.612929999999999 12.06617 11.85178 12.278839999999999 12.11928 12.447109999999999 C 11.765031137438656 12.65660640303697 11.440934311653047 12.925426694043017 11.158009999999999 13.24443 C 10.44629 14.047599999999997 10.005859999999998 15.158079999999998 10.005859999999998 16.384249999999998 C 10.005859999999998 17.431639999999998 10.328929999999998 18.39528 10.868419999999999 19.155209999999997 C 10.587459999999998 19.300889999999995 10.299249999999999 19.437209999999997 10.003449999999999 19.56264 C 4.912679999999999 17.465529999999998 1.901489999999999 12.328309999999998 2.124809999999999 2.7257799999999968 C 4.80153 2.8843099999999966 7.4281999999999995 2.2311099999999966 9.97307 -3.1086244689504383e-15 z" stroke-linecap="round" />
</g>
		<g transform="matrix(1 0 0 1 3.94 6.42)" id="svg_2"  >
<path style="stroke: none; stroke-width: 1; stroke-dasharray: none; stroke-linecap: butt; stroke-dashoffset: 0; stroke-linejoin: miter; stroke-miterlimit: 4; fill: rgb(255,255,255); fill-rule: evenodd; opacity: 1;" vector-effect="non-scaling-stroke"  transform=" translate(-13.94, -16.38)" d="M 13.9407 12.83818 C 15.67582 12.83818 17.0827 14.42581 17.0827 16.384259999999998 C 17.0827 18.342709999999997 15.67583 19.930339999999998 13.9407 19.930339999999998 C 12.20523 19.930339999999998 10.798359999999999 18.342709999999997 10.798359999999999 16.384259999999998 C 10.798359999999999 14.425809999999998 12.205229999999998 12.838179999999998 13.9407 12.838179999999998 z M 13.17099 16.51163 C 13.266573808685102 16.603158125111804 13.356740297688738 16.701655794597624 13.44091 16.80649 C 13.70496 16.32701 13.98661 15.886470000000001 14.28414 15.48138 C 15.12495 14.33545 14.74389 14.5563 15.91019 14.5563 L 15.74796 14.75962 C 15.250240000000002 15.384 15.08215 15.70885 14.673820000000001 16.37452 C 14.269495826512566 17.034662905312317 13.902769590339993 17.723144686158435 13.57586 18.435800000000004 L 13.47507 18.65587 L 13.38188 18.43151 C 13.211030000000001 18.01668 13.005650000000001 17.63614 12.760940000000002 17.29571 C 12.516570000000002 16.95567 12.302570000000001 16.73365 11.970870000000001 16.47658 C 12.123090000000001 15.913349999999998 12.846540000000001 16.20159 13.170990000000002 16.51164 z" stroke-linecap="round" />
</g>
</g>
</g>
<g transform="matrix(1.79 0 0 1.79 540 540)"  >
<g style="" vector-effect="non-scaling-stroke"   >
		<g transform="matrix(1 0 0 1 0 -4.72)"  >
<path style="stroke: none; stroke-width: 1; stroke-dasharray: none; stroke-linecap: butt; stroke-dashoffset: 0; stroke-linejoin: miter; stroke-miterlimit: 4; fill: rgb(255,255,255); fill-rule: evenodd; opacity: 1;" vector-effect="non-scaling-stroke"  transform=" translate(-228.5, -251.12)" d="M 227.72 0 C 312.92 54.01 389.90999999999997 79.57 455.97 73.52 C 461.17 178.8 446.48 264.63 414.78000000000003 332.41999999999996 C 406.6455855136077 325.75423253105544 397.6306372334638 320.24229326906374 387.99 316.03999999999996 C 413.6 259.27 425.38 187.88999999999996 421.07 100.76999999999995 C 365.14 105.87999999999995 299.97 84.24999999999996 227.82999999999998 38.51999999999995 C 165.42 87.01 101 101.21 35.34 97.77 C 32.43000000000001 208.67000000000002 51.92 292.15999999999997 89.56 352.9 C 117.39 329.63 164.79000000000002 333.15 187.23000000000002 302.28999999999996 C 188.84000000000003 299.9 189.59000000000003 298.61999999999995 189.58 297.55999999999995 C 189.56 297.0199999999999 165.22000000000003 267.16999999999996 163.04000000000002 263.68999999999994 C 157.3 254.56999999999994 146.56000000000003 242.18999999999994 146.56000000000003 231.49999999999994 C 146.56000000000003 225.46999999999994 151.32000000000002 217.59999999999994 158.13000000000002 215.84999999999994 C 157.60000000000002 206.80999999999995 157.24000000000004 197.63999999999993 157.24000000000004 188.55999999999995 C 157.24000000000004 183.18999999999994 157.35000000000005 177.75999999999993 157.54000000000005 172.43999999999994 C 157.84000000000006 169.06999999999994 158.46000000000004 167.57999999999993 159.35000000000005 164.32999999999993 C 163.54796446011392 150.6756099950371 172.68183748996802 139.07466431231057 184.97000000000003 131.78999999999996 C 189.32000000000005 129.03999999999994 194.05000000000007 126.90999999999994 198.89000000000004 125.15999999999994 C 207.68000000000004 121.94999999999995 203.42000000000004 108.05999999999995 213.07000000000005 107.84999999999994 C 235.61000000000004 107.26999999999994 272.70000000000005 126.97999999999993 287.15000000000003 142.62999999999994 C 296.36 152.81999999999994 301.61 164.13999999999993 301.93 177.85999999999993 L 301.01 217.34999999999994 C 305.01 218.32999999999993 309.5 221.46999999999994 310.48 225.46999999999994 C 313.57 237.93999999999994 300.63 253.45999999999995 294.62 263.35999999999996 C 289.08 272.50999999999993 267.89 297.47999999999996 267.87 297.67999999999995 C 267.77 298.75999999999993 268.32 300.09999999999997 269.77 302.28999999999996 C 275.22999999999996 309.78 282.15 315.23999999999995 289.9 319.55999999999995 C 279.6366667452435 324.9385029700649 270.2469039446291 331.8400629172311 262.04999999999995 340.03 C 241.42999999999995 360.65 228.66999999999996 389.15999999999997 228.66999999999996 420.64 C 228.66999999999996 447.53 238.02999999999997 472.27 253.65999999999997 491.78 C 245.51999999999998 495.52 237.16999999999996 499.02 228.59999999999997 502.23999999999995 C 81.11 448.4 -6.13 316.51 0.34 69.98 C 77.89 74.05 153.99 57.28 227.72 0 z" stroke-linecap="round" />
</g>
		<g transform="matrix(1 0 0 1 114.17 164.8)"  >
<path style="stroke: none; stroke-width: 1; stroke-dasharray: none; stroke-linecap: butt; stroke-dashoffset: 0; stroke-linejoin: miter; stroke-miterlimit: 4; fill: rgb(255,255,255); fill-rule: evenodd; opacity: 1;" vector-effect="non-scaling-stroke"  transform=" translate(-342.67, -420.64)" d="M 342.67 329.6 C 392.94 329.6 433.70000000000005 370.36 433.70000000000005 420.64000000000004 C 433.70000000000005 470.9200000000001 392.94000000000005 511.68000000000006 342.6700000000001 511.68000000000006 C 292.3900000000001 511.68000000000006 251.63000000000005 470.9200000000001 251.63000000000005 420.64000000000004 C 251.63000000000005 370.36 292.39000000000004 329.6 342.6700000000001 329.6 z M 320.37 423.91 C 323.1392100557847 426.25982308918606 325.75147261190995 428.78857341525617 328.18999999999994 431.47999999999996 C 335.84 419.17 344 407.86 352.62 397.46000000000004 C 376.98 368.04 365.94 373.71000000000004 399.73 373.71000000000004 L 395.03000000000003 378.93000000000006 C 380.61 394.96000000000004 375.74 403.30000000000007 363.91 420.39000000000004 C 352.195957391851 437.3380944058929 341.5711974291504 455.01374034195425 332.0999999999999 473.3100000000002 L 329.18 478.96000000000004 L 326.48 473.20000000000005 C 321.53000000000003 462.55000000000007 315.58000000000004 452.78000000000003 308.49 444.04 C 301.41 435.31 295.21000000000004 429.61 285.6 423.01 C 290.01000000000005 408.55 310.97 415.95 320.37 423.90999999999997 z" stroke-linecap="round" />
</g>
</g>
</g>
</svg>