<svg width="80" height="80" viewBox="0 0 80 80" fill="none" xmlns="http://www.w3.org/2000/svg">
<g filter="url(#filter0_i)">
<path d="M18.0952 0H61.9048C71.9048 0 80 8.09524 80 18.0952V61.9048C80 71.9048 71.9048 80 61.9048 80H18.0952C8.09524 80 0 71.9048 0 61.9048V18.0952C0 8.09524 8.09524 0 18.0952 0Z" fill="#FFFEFF"/>
<path d="M18.0952 0.5H61.9048C71.6286 0.5 79.5 8.37138 79.5 18.0952V61.9048C79.5 71.6286 71.6286 79.5 61.9048 79.5H18.0952C8.37138 79.5 0.5 71.6286 0.5 61.9048V18.0952C0.5 8.37138 8.37138 0.5 18.0952 0.5Z" stroke="black" stroke-opacity="0.05"/>
<path d="M39.3202 34.4932C40.7703 33.0431 42.2204 31.593 43.6705 30.1429C43.8231 29.9903 44.281 30.0666 44.51 30.1429C47.0286 30.9825 48.7076 32.7378 50.0814 34.9511C53.2106 40.141 52.5237 46.3993 48.326 50.7496C45.6548 53.4971 42.9073 56.1684 40.236 58.8396C34.1304 64.9453 25.2008 64.411 19.9347 57.5421C16.7292 53.3445 15.966 48.7652 18.1793 43.957C18.7899 42.5832 19.782 41.2858 20.8505 40.141C22.4533 38.3093 24.285 36.7065 26.0403 34.9511C26.1167 34.8748 26.2693 34.7985 26.4983 34.6459C26.0403 36.4012 26.0403 38.004 26.4219 39.6067C26.5746 40.2936 26.7272 40.9042 26.9562 41.5147C27.1088 41.8963 27.0325 42.2016 26.7272 42.4306C25.964 43.1175 25.2771 43.8044 24.5902 44.6439C21.8427 48.231 22.7585 52.9629 26.8036 55.6341C29.7037 57.6185 33.3671 57.2369 35.9621 54.7183C38.6333 52.1234 41.2282 49.5284 43.8231 46.8572C47.7918 42.7359 45.8838 36.096 40.236 34.5695C39.9307 34.6459 39.6255 34.6459 39.3202 34.4932Z" fill="#313131"/>
<path d="M54.5845 44.3386C55.195 41.8963 54.8898 39.5304 54.0502 37.2407C53.9739 37.0881 54.1266 36.7065 54.2792 36.5539C54.8898 35.867 55.5003 35.3327 56.1109 34.6458C58.7821 31.5167 58.5532 27.4717 55.5766 24.4951C52.6001 21.4423 48.4788 21.137 45.426 23.8846C42.4495 26.5558 39.6256 29.3797 36.9544 32.2799C33.2146 36.4775 35.1226 42.6595 40.5414 44.2623C40.8467 44.3386 41.152 44.4149 41.5336 44.5675C41.152 44.9492 40.8467 45.3308 40.4651 45.636C39.4729 46.6282 38.4044 47.6204 37.4123 48.6889C37.107 49.0705 36.8017 49.0705 36.4201 48.9178C35.0463 48.4599 33.7489 47.6967 32.7567 46.6282C27.6432 41.2094 27.4142 33.9589 32.4514 28.4638C35.4279 25.2584 38.4808 22.1292 41.7626 19.229C46.9524 14.5734 54.5082 14.8787 59.469 19.8396C61.6823 22.0529 63.2851 24.5715 63.8193 27.7006C64.5062 31.9746 63.2087 35.638 60.3085 38.7672C58.5532 40.6752 56.6451 42.4306 54.8134 44.2623C54.8134 44.2623 54.7371 44.2623 54.5845 44.3386Z" fill="#313131"/>
</g>
<defs>
<filter id="filter0_i" x="0" y="-1" width="80" height="81" filterUnits="userSpaceOnUse" color-interpolation-filters="sRGB">
<feFlood flood-opacity="0" result="BackgroundImageFix"/>
<feBlend mode="normal" in="SourceGraphic" in2="BackgroundImageFix" result="shape"/>
<feColorMatrix in="SourceAlpha" type="matrix" values="0 0 0 0 0 0 0 0 0 0 0 0 0 0 0 0 0 0 127 0" result="hardAlpha"/>
<feOffset dy="-1"/>
<feGaussianBlur stdDeviation="0.5"/>
<feComposite in2="hardAlpha" operator="arithmetic" k2="-1" k3="1"/>
<feColorMatrix type="matrix" values="0 0 0 0 0 0 0 0 0 0 0 0 0 0 0 0 0 0 0.12 0"/>
<feBlend mode="normal" in2="shape" result="effect1_innerShadow"/>
</filter>
</defs>
</svg>
