<svg width="80" height="80" viewBox="0 0 80 80" fill="none" xmlns="http://www.w3.org/2000/svg">
  <g filter="url(#filter0_i_3180_247987)">
    <path d="M18.0952 0H61.9048C71.9048 0 80 8.09524 80 18.0952V61.9048C80 71.9048 71.9048 80 61.9048 80H18.0952C8.09524 80 0 71.9048 0 61.9048V18.0952C0 8.09524 8.09524 0 18.0952 0Z" fill="#5865F2"/>
    <path d="M60.7925 21.0962C56.9683 19.3596 52.8675 18.0801 48.5797 17.3473C48.5017 17.3332 48.4237 17.3685 48.3834 17.4392C47.856 18.3676 47.2718 19.5787 46.8627 20.5307C42.251 19.8474 37.663 19.8474 33.1458 20.5307C32.7366 19.5576 32.1312 18.3676 31.6014 17.4392C31.5612 17.3709 31.4832 17.3355 31.4051 17.3473C27.1198 18.0778 23.0189 19.3572 19.1923 21.0962C19.1592 21.1103 19.1308 21.1339 19.112 21.1645C11.3335 32.6657 9.20262 43.8842 10.248 54.9636C10.2527 55.0178 10.2834 55.0696 10.326 55.1026C15.458 58.8326 20.4293 61.0971 25.3082 62.598C25.3863 62.6216 25.469 62.5933 25.5187 62.5297C26.6728 60.9698 27.7016 59.3251 28.5837 57.5955C28.6357 57.4943 28.5861 57.3741 28.4797 57.334C26.8478 56.7214 25.294 55.9744 23.7993 55.1262C23.6811 55.0578 23.6716 54.8905 23.7804 54.8104C24.0949 54.5771 24.4095 54.3344 24.7099 54.0893C24.7642 54.0446 24.8399 54.0351 24.9038 54.0634C34.7232 58.5004 45.3539 58.5004 55.0574 54.0634C55.1213 54.0328 55.197 54.0422 55.2537 54.087C55.5541 54.332 55.8686 54.5771 56.1856 54.8104C56.2943 54.8905 56.2872 55.0578 56.169 55.1262C54.6743 55.9909 53.1205 56.7214 51.4863 57.3317C51.3799 57.3717 51.3326 57.4943 51.3846 57.5955C52.2856 59.3227 53.3144 60.9674 54.4472 62.5273C54.4946 62.5933 54.5797 62.6216 54.6577 62.598C59.5603 61.0971 64.5315 58.8326 69.6636 55.1026C69.7085 55.0696 69.7369 55.0201 69.7417 54.9659C70.9927 42.1569 67.6462 31.0305 60.8705 21.1669C60.854 21.1339 60.8257 21.1103 60.7925 21.0962ZM30.0501 48.2174C27.0937 48.2174 24.6578 45.5312 24.6578 42.2324C24.6578 38.9335 27.0465 36.2474 30.0501 36.2474C33.0772 36.2474 35.4895 38.9571 35.4422 42.2324C35.4422 45.5312 33.0535 48.2174 30.0501 48.2174ZM49.9869 48.2174C47.0306 48.2174 44.5947 45.5312 44.5947 42.2324C44.5947 38.9335 46.9833 36.2474 49.9869 36.2474C53.0141 36.2474 55.4263 38.9571 55.3791 42.2324C55.3791 45.5312 53.0141 48.2174 49.9869 48.2174Z" fill="white"/>
  </g>
  <defs>
    <filter id="filter0_i_3180_247987" x="0" y="-1" width="80" height="81" filterUnits="userSpaceOnUse" colorInterpolationFilters="sRGB">
      <feFlood floodOpacity="0" result="BackgroundImageFix"/>
      <feBlend mode="normal" in="SourceGraphic" in2="BackgroundImageFix" result="shape"/>
      <feColorMatrix in="SourceAlpha" type="matrix" values="0 0 0 0 0 0 0 0 0 0 0 0 0 0 0 0 0 0 127 0" result="hardAlpha"/>
      <feOffset dy="-1"/>
      <feGaussianBlur stdDeviation="0.5"/>
      <feComposite in2="hardAlpha" operator="arithmetic" k2="-1" k3="1"/>
      <feColorMatrix type="matrix" values="0 0 0 0 0 0 0 0 0 0 0 0 0 0 0 0 0 0 0.12 0"/>
      <feBlend mode="normal" in2="shape" result="effect1_innerShadow_3180_247987"/>
    </filter>
  </defs>
</svg>
