<svg width="80" height="80" viewBox="0 0 80 80" fill="none" xmlns="http://www.w3.org/2000/svg">
<g filter="url(#filter0_i_3547_257309)">
<path d="M18.0952 0H61.9048C71.9048 0 80 8.09524 80 18.0952V61.9048C80 71.9048 71.9048 80 61.9048 80H18.0952C8.09524 80 0 71.9048 0 61.9048V18.0952C0 8.09524 8.09524 0 18.0952 0Z"/>
<path d="M18.0952 0.5H61.9048C71.6286 0.5 79.5 8.37138 79.5 18.0952V61.9048C79.5 71.6286 71.6286 79.5 61.9048 79.5H18.0952C8.37138 79.5 0.5 71.6286 0.5 61.9048V18.0952C0.5 8.37138 8.37138 0.5 18.0952 0.5Z" stroke="black" stroke-opacity="0.05"/>
<path d="M44.0727 22H20.6545C15.8748 22 12 25.9143 12 30.7429V49.2571C12 54.0857 15.8748 58 20.6545 58H59.3455C64.1252 58 68 54.0857 68 49.2571V30.7429C68 25.9143 64.1252 22 59.3455 22H44.0727V27.1429H59.3455C61.3136 27.1429 62.9091 28.7546 62.9091 30.7429V49.2571C62.9091 51.2454 61.3136 52.8571 59.3455 52.8571H20.6545C18.6864 52.8571 17.0909 51.2454 17.0909 49.2571V30.7429C17.0909 28.7546 18.6864 27.1429 20.6545 27.1429H44.0727V22Z" fill="#313131"/>
<path d="M43.651 36.4882C44.4462 35.6849 45.7356 35.6849 46.5308 36.4882L50.1818 40.1765L53.8328 36.4882C54.6281 35.6849 55.9174 35.6849 56.7127 36.4882C57.5079 37.2916 57.5079 38.5941 56.7127 39.3975L51.6217 44.5403C50.8265 45.3437 49.5371 45.3437 48.7419 44.5403L43.651 39.3975C42.8557 38.5941 42.8557 37.2916 43.651 36.4882Z" fill="#313131"/>
</g>
<defs>
<filter id="filter0_i_3547_257309" x="0" y="-1" width="80" height="81" filterUnits="userSpaceOnUse" color-interpolation-filters="sRGB">
<feFlood flood-opacity="0" result="BackgroundImageFix"/>
<feBlend mode="normal" in="SourceGraphic" in2="BackgroundImageFix" result="shape"/>
<feColorMatrix in="SourceAlpha" type="matrix" values="0 0 0 0 0 0 0 0 0 0 0 0 0 0 0 0 0 0 127 0" result="hardAlpha"/>
<feOffset dy="-1"/>
<feGaussianBlur stdDeviation="0.5"/>
<feComposite in2="hardAlpha" operator="arithmetic" k2="-1" k3="1"/>
<feColorMatrix type="matrix" values="0 0 0 0 0 0 0 0 0 0 0 0 0 0 0 0 0 0 0.12 0"/>
<feBlend mode="normal" in2="shape" result="effect1_innerShadow_3547_257309"/>
</filter>
</defs>
</svg>
