<svg width="80" height="80" viewBox="0 0 80 80" fill="none" xmlns="http://www.w3.org/2000/svg">
<g filter="url(#filter0_i)">
<path d="M18.0952 0H61.9048C71.9048 0 80 8.09524 80 18.0952V61.9048C80 71.9048 71.9048 80 61.9048 80H18.0952C8.09524 80 0 71.9048 0 61.9048V18.0952C0 8.09524 8.09524 0 18.0952 0Z" fill="#ffffff"/>
<path d="M18.0952 0.5H61.9048C71.6286 0.5 79.5 8.37138 79.5 18.0952V61.9048C79.5 71.6286 71.6286 79.5 61.9048 79.5H18.0952C8.37138 79.5 0.5 71.6286 0.5 61.9048V18.0952C0.5 8.37138 8.37138 0.5 18.0952 0.5Z" stroke="black" stroke-opacity="0.05"/>
<path d="M52.6406 40L33.678 50.4326L33.678 29.5674L52.6406 40Z" fill="#000000"/>
<path opacity="0.2" fill-rule="evenodd" clip-rule="evenodd" d="M39.9991 66.6807C54.7345 66.6807 66.6798 54.7354 66.6798 40C66.6798 25.2646 54.7345 13.3193 39.9991 13.3193C25.2637 13.3193 13.3184 25.2646 13.3184 40C13.3184 54.7354 25.2637 66.6807 39.9991 66.6807ZM39.9991 67.6807C55.2868 67.6807 67.6798 55.2877 67.6798 40C67.6798 24.7123 55.2868 12.3193 39.9991 12.3193C24.7115 12.3193 12.3184 24.7123 12.3184 40C12.3184 55.2877 24.7115 67.6807 39.9991 67.6807Z" fill="#000000"/>
</g>
<defs>
<filter id="filter0_i" x="0" y="-1" width="80" height="81" filterUnits="userSpaceOnUse" color-interpolation-filters="sRGB">
<feFlood flood-opacity="0" result="BackgroundImageFix"/>
<feBlend mode="normal" in="SourceGraphic" in2="BackgroundImageFix" result="shape"/>
<feColorMatrix in="SourceAlpha" type="matrix" values="0 0 0 0 0 0 0 0 0 0 0 0 0 0 0 0 0 0 127 0" result="hardAlpha"/>
<feOffset dy="-1"/>
<feGaussianBlur stdDeviation="0.5"/>
<feComposite in2="hardAlpha" operator="arithmetic" k2="-1" k3="1"/>
<feColorMatrix type="matrix" values="0 0 0 0 0 0 0 0 0 0 0 0 0 0 0 0 0 0 0.12 0"/>
<feBlend mode="normal" in2="shape" result="effect1_innerShadow"/>
</filter>
</defs>
</svg>