<svg width="81" height="80" viewBox="0 0 81 80" fill="none" xmlns="http://www.w3.org/2000/svg">
<g clip-path="url(#clip0)" filter="url(#filter0_i)">
<path d="M18.9585 0H62.768C72.768 0 80.8633 8.09524 80.8633 18.0952V61.9048C80.8633 71.9048 72.768 80 62.768 80H18.9585C8.95852 80 0.863281 71.9048 0.863281 61.9048V18.0952C0.863281 8.09524 8.95852 0 18.9585 0Z" fill="#FFFEFF"/>
<path d="M18.9585 0.5H62.768C72.4919 0.5 80.3633 8.37138 80.3633 18.0952V61.9048C80.3633 71.6286 72.4919 79.5 62.768 79.5H18.9585C9.23466 79.5 1.36328 71.6286 1.36328 61.9048V18.0952C1.36328 8.37138 9.23466 0.5 18.9585 0.5Z" stroke="black" stroke-opacity="0.05"/>
<path d="M24.4101 33.125V39.133C24.4101 39.133 26.5271 39.133 27.6601 39.047C28.5511 38.891 28.7151 38.805 28.8791 37.914L29.2071 36.609H30.1761L30.0121 39.461L30.0981 42.383H29.1211L28.8791 41.242C28.6371 40.43 28.3091 40.265 27.6601 40.187C26.8481 40.101 24.4101 40.101 24.4101 40.101V45.14C24.4101 46.109 24.9021 46.523 26.0351 46.523H29.4491C30.5041 46.523 31.5581 46.437 32.2151 44.898L33.0981 42.945H33.9181C33.8321 43.351 33.4261 46.929 33.3481 47.734C33.3481 47.734 30.2621 47.656 28.9651 47.656H23.1131L19.6211 47.734V46.851L20.7541 46.601C21.5741 46.437 21.8161 46.195 21.8161 45.546C21.8161 45.546 21.9021 43.351 21.9021 39.694C21.9021 36.046 21.8161 33.85 21.8161 33.85C21.8161 33.123 21.5741 32.959 20.7541 32.795L19.6211 32.555V31.664L23.0351 31.734H29.5351C30.8321 31.734 33.0191 31.5 33.0191 31.5C33.0191 31.5 32.9411 32.875 32.8551 36.125H31.9641L31.6361 34.984C31.3161 33.523 30.8311 32.796 29.9331 32.796H24.8241C24.4101 32.797 24.4101 32.875 24.4101 33.125ZM37.5661 33.766H38.5431V37.18L41.8791 37.016L41.7151 38.563L38.4651 38.313V44.329C38.4651 46.032 39.0351 46.688 40.0121 46.688C40.8951 46.688 41.5511 46.196 41.7931 45.79L42.2771 46.36C41.7931 47.493 40.4181 48.063 39.1131 48.063C37.4961 48.063 36.1831 47.094 36.1831 45.227V38.398H34.2451V37.586C35.8711 37.422 37.0821 36.445 37.5661 33.766ZM44.5581 44.242L45.2061 45.789C45.4481 46.437 46.0181 47.094 47.3151 47.094C48.6981 47.094 49.2681 46.36 49.2681 45.469C49.2681 42.703 43.8231 43.516 43.8231 39.781C43.8231 37.672 45.5261 36.687 47.7211 36.687C48.6981 36.687 50.1591 36.851 50.8931 37.179C50.7291 37.991 50.6431 39.046 50.6431 39.859L49.8381 39.937L49.2681 38.312C49.1041 37.914 48.4481 37.585 47.6431 37.585C46.6661 37.585 45.6901 37.991 45.6901 39.046C45.6901 41.562 51.2991 40.999 51.2991 44.734C51.2991 46.851 49.4321 47.984 47.1511 47.984C45.4481 47.984 43.7371 47.328 43.7371 47.328C43.9011 46.359 43.8231 45.305 43.7371 44.242H44.5581ZM50.8941 52.039C51.1361 51.148 51.3001 50.016 51.4641 48.953L52.3551 48.875L52.6831 50.578C52.7611 50.984 53.0031 51.312 53.6521 51.312C54.7071 51.312 56.0901 50.664 57.3941 48.39C56.8161 47.007 55.1131 42.546 53.5661 39.132C53.1601 38.234 53.0821 38.155 52.5191 37.991L52.1051 37.835V37.015L54.5501 37.101L57.5501 36.937V37.75L56.8161 37.914C56.2461 37.992 56.0111 38.312 56.0111 38.641C56.0111 38.727 56.0111 38.805 56.0891 38.969C56.2451 39.461 57.5501 43.11 58.5271 45.547C59.3321 43.844 60.8791 40.024 61.1211 39.375C61.2071 39.047 61.2851 38.969 61.2851 38.727C61.2851 38.313 61.0431 38.071 60.4801 37.915L59.9021 37.75V36.938L62.1831 37.016L64.2921 36.938V37.75L63.8861 38.07C63.0741 38.398 62.9881 38.476 62.6671 39.132L59.0971 47.491C56.9801 52.288 54.7851 52.694 53.2451 52.694C52.2691 52.695 51.5351 52.445 50.8941 52.039Z" fill="#F45800"/>
</g>
<defs>
<filter id="filter0_i" x="0.863281" y="-1" width="80" height="81" filterUnits="userSpaceOnUse" color-interpolation-filters="sRGB">
<feFlood flood-opacity="0" result="BackgroundImageFix"/>
<feBlend mode="normal" in="SourceGraphic" in2="BackgroundImageFix" result="shape"/>
<feColorMatrix in="SourceAlpha" type="matrix" values="0 0 0 0 0 0 0 0 0 0 0 0 0 0 0 0 0 0 127 0" result="hardAlpha"/>
<feOffset dy="-1"/>
<feGaussianBlur stdDeviation="0.5"/>
<feComposite in2="hardAlpha" operator="arithmetic" k2="-1" k3="1"/>
<feColorMatrix type="matrix" values="0 0 0 0 0 0 0 0 0 0 0 0 0 0 0 0 0 0 0.12 0"/>
<feBlend mode="normal" in2="shape" result="effect1_innerShadow"/>
</filter>
<clipPath id="clip0">
<rect width="80" height="80" fill="white" transform="translate(0.863281)"/>
</clipPath>
</defs>
</svg>
