<svg width="80" height="80" viewBox="0 0 80 80" fill="none" xmlns="http://www.w3.org/2000/svg">
<g filter="url(#filter0_i)">
<path d="M18.0952 0H61.9048C71.9048 0 80 8.09524 80 18.0952V61.9048C80 71.9048 71.9048 80 61.9048 80H18.0952C8.09524 80 0 71.9048 0 61.9048V18.0952C0 8.09524 8.09524 0 18.0952 0Z" fill="#FFFEFF"/>
<path d="M18.0952 0.5H61.9048C71.6286 0.5 79.5 8.37138 79.5 18.0952V61.9048C79.5 71.6286 71.6286 79.5 61.9048 79.5H18.0952C8.37138 79.5 0.5 71.6286 0.5 61.9048V18.0952C0.5 8.37138 8.37138 0.5 18.0952 0.5Z" stroke="black" stroke-opacity="0.05"/>
<path fill-rule="evenodd" clip-rule="evenodd" d="M20.0823 40.459V22.7703C20.0823 20.7135 20.4936 18.8212 21.8923 17.258C23.3732 15.6126 25.3477 15.0367 27.4046 15.0367C30.2536 14.9819 33.0662 15 35.8909 15.0183C37.3078 15.0275 38.7277 15.0367 40.1568 15.0367C43.2009 15.0367 45.34 16.5176 47.3968 18.5744C50.77 22.1121 54.2255 25.6498 57.681 29.023C59.82 31.1621 60.8073 33.548 60.8073 36.5921C60.7662 40.171 60.7662 43.7499 60.7662 47.3287C60.7662 50.9076 60.7662 54.4865 60.725 58.0653C60.725 59.3817 60.4782 60.7803 59.9846 62.0144C58.915 64.8117 56.5291 65.9635 53.6496 65.9635C50.8523 66.0184 48.055 66.0001 45.2578 65.9818C43.8591 65.9727 42.4605 65.9635 41.0618 65.9635H27.6514C25.8414 65.9635 24.1136 65.6344 22.6327 64.4826C20.5759 62.9194 20 60.6981 20 58.3121C20.0823 52.3885 20.0823 46.4649 20.0823 40.459ZM38.1 20.3844V26.8017V32.5608C38.1823 36.0162 39.8277 37.8262 43.2832 37.8262C45.8032 37.881 48.2867 37.8628 50.7823 37.8446L50.7828 37.8446C52.035 37.8354 53.2902 37.8262 54.5546 37.8262H55.4596V38.6489V57.3249C55.4596 57.8185 55.3773 58.3121 55.295 58.8058C55.0482 59.793 54.3078 60.369 53.3205 60.5335C52.8269 60.6158 52.4155 60.6158 51.9219 60.6158H28.9677C28.4741 60.6158 27.9805 60.6158 27.5691 60.5335C26.4173 60.369 25.5946 59.5462 25.43 58.3944C25.3477 57.9008 25.3477 57.4894 25.3477 56.9958V23.8398C25.3477 23.4285 25.3477 23.0171 25.43 22.6057C25.5946 21.3717 26.4173 20.3844 27.6514 20.3844H38.1ZM48.7954 27.1301C46.7592 25.0734 44.7126 23.0063 42.6253 20.8781C42.6253 21.191 42.5923 21.4048 42.5681 21.5613C42.5541 21.6516 42.5431 21.7229 42.5431 21.7831V31.6558C42.5431 33.0545 42.9544 33.4658 44.3531 33.4658H54.0613C54.169 33.4658 54.2767 33.4502 54.3982 33.4325C54.5549 33.4097 54.7345 33.3836 54.9663 33.3836C52.899 31.2749 50.8524 29.2078 48.7954 27.1301Z" fill="#313131"/>
<path d="M40.3219 46.7938C37.6892 46.7938 35.0565 46.7938 32.3415 46.7938C31.6833 46.7938 31.1897 46.6293 30.8606 46.0534C30.2847 45.0661 30.9428 43.9966 32.0947 43.9143C32.5883 43.832 33.1642 43.9143 33.6578 43.9143C38.5119 43.9143 43.366 43.9143 48.2201 43.9143C49.5365 43.9143 50.2769 44.9016 49.7833 45.9711C49.4542 46.6293 48.8783 46.8761 48.2201 46.8761C45.5051 46.7938 42.8724 46.7938 40.3219 46.7938Z" fill="#313131"/>
<path d="M40.2385 54.363C37.6057 54.363 34.8907 54.363 32.258 54.363C31.5175 54.363 31.0239 54.1161 30.7771 53.3757C30.5303 52.7175 30.6948 52.1416 31.2707 51.8125C31.5998 51.5657 32.0112 51.4834 32.3403 51.4834C37.6057 51.4834 42.9535 51.4834 48.2189 51.4834C49.2885 51.4834 49.8644 52.0593 49.9466 52.9643C49.9466 53.8693 49.2885 54.4452 48.2189 54.4452C45.5039 54.363 42.8712 54.363 40.2385 54.363Z" fill="#313131"/>
</g>
<defs>
<filter id="filter0_i" x="0" y="-1" width="80" height="81" filterUnits="userSpaceOnUse" color-interpolation-filters="sRGB">
<feFlood flood-opacity="0" result="BackgroundImageFix"/>
<feBlend mode="normal" in="SourceGraphic" in2="BackgroundImageFix" result="shape"/>
<feColorMatrix in="SourceAlpha" type="matrix" values="0 0 0 0 0 0 0 0 0 0 0 0 0 0 0 0 0 0 127 0" result="hardAlpha"/>
<feOffset dy="-1"/>
<feGaussianBlur stdDeviation="0.5"/>
<feComposite in2="hardAlpha" operator="arithmetic" k2="-1" k3="1"/>
<feColorMatrix type="matrix" values="0 0 0 0 0 0 0 0 0 0 0 0 0 0 0 0 0 0 0.12 0"/>
<feBlend mode="normal" in2="shape" result="effect1_innerShadow"/>
</filter>
</defs>
</svg>
