<svg width="80" height="80" viewBox="0 0 80 80" fill="none" xmlns="http://www.w3.org/2000/svg">
<g filter="url(#filter0_i)">
<path d="M18.0952 0H61.9048C71.9048 0 80 8.09524 80 18.0952V61.9048C80 71.9048 71.9048 80 61.9048 80H18.0952C8.09524 80 0 71.9048 0 61.9048V18.0952C0 8.09524 8.09524 0 18.0952 0Z" fill="url(#paint0_linear)"/>
<path fill-rule="evenodd" clip-rule="evenodd" d="M19.1675 30.4907C19.1639 30.6473 19.1621 30.8057 19.1621 30.966C19.1621 33.493 19.3568 36.0039 19.8386 38.5128C25.3856 39.8153 32.3684 40.6059 40.0019 40.6059C47.7188 40.6059 54.7707 39.798 60.3465 38.4699C60.7222 35.9963 60.8351 33.5082 60.8351 30.966C60.8351 30.8065 60.8333 30.6487 60.8297 30.4928C54.9031 32.4237 47.7069 33.534 40.0019 33.534C32.294 33.534 25.0954 32.4229 19.1675 30.4907ZM24.8348 50.7546C23.2301 48.2911 22.0362 45.8477 21.1689 43.4111C26.6639 44.4972 33.1237 45.1143 40.0019 45.1143C47.0434 45.1143 53.6467 44.4675 59.225 43.3329C58.4563 45.7528 57.3416 48.1835 55.7401 50.6623C51.0801 51.4333 45.7238 51.8775 40.0019 51.8775C34.5124 51.8775 29.3594 51.4687 24.8348 50.7546ZM28.7001 55.8067C31.5939 59.0882 35.2963 62.4196 39.9986 65.8304C45.0357 62.307 48.8741 58.9726 51.7932 55.7536C48.0911 56.1646 44.1215 56.3859 40.0019 56.3859C36.0633 56.3859 32.2618 56.1836 28.7001 55.8067ZM60.0973 25.984C57.6795 18.8292 49.5969 17.3908 39.9986 17.3908C30.4012 17.3908 22.3192 18.8289 19.9006 25.9819C25.4014 27.8718 32.3664 29.0256 40.0019 29.0256C47.6346 29.0256 54.5973 27.8726 60.0973 25.984Z" fill="white"/>
</g>
<defs>
<filter id="filter0_i" x="0" y="-1" width="80" height="81" filterUnits="userSpaceOnUse" color-interpolation-filters="sRGB">
<feFlood flood-opacity="0" result="BackgroundImageFix"/>
<feBlend mode="normal" in="SourceGraphic" in2="BackgroundImageFix" result="shape"/>
<feColorMatrix in="SourceAlpha" type="matrix" values="0 0 0 0 0 0 0 0 0 0 0 0 0 0 0 0 0 0 127 0" result="hardAlpha"/>
<feOffset dy="-1"/>
<feGaussianBlur stdDeviation="0.5"/>
<feComposite in2="hardAlpha" operator="arithmetic" k2="-1" k3="1"/>
<feColorMatrix type="matrix" values="0 0 0 0 0 0 0 0 0 0 0 0 0 0 0 0 0 0 0.12 0"/>
<feBlend mode="normal" in2="shape" result="effect1_innerShadow"/>
</filter>
<linearGradient id="paint0_linear" x1="6.69812" y1="3.60479" x2="73.4279" y2="73.4941" gradientUnits="userSpaceOnUse">
<stop stop-color="#AEDDD6"/>
<stop offset="1" stop-color="#399CB4"/>
</linearGradient>
</defs>
</svg>
