<svg width="16" height="16" fill="none" viewBox="0 0 16 16" xmlns="http://www.w3.org/2000/svg">
    <path d="M3.7548 10H2.2452C1.83364 10 1.5 10.3298 1.5 10.7367V13.2633C1.5 13.6702 1.83364 14 2.2452 14H3.7548C4.16636 14 4.5 13.6702 4.5 13.2633V10.7367C4.5 10.3298 4.16636 10 3.7548 10Z" stroke="#BDBDBD" stroke-width="1.25" stroke-linecap="round" stroke-linejoin="round"></path>
    <path d="M8.7548 6H7.2452C6.83364 6 6.5 6.32982 6.5 6.73667V13.2633C6.5 13.6702 6.83364 14 7.2452 14H8.7548C9.16636 14 9.5 13.6702 9.5 13.2633V6.73667C9.5 6.32982 9.16636 6 8.7548 6Z" stroke="#BDBDBD" stroke-width="1.25" stroke-linecap="round" stroke-linejoin="round"></path>
    <path d="M13.7548 2H12.2452C11.8336 2 11.5 2.32982 11.5 2.73667V13.2633C11.5 13.6702 11.8336 14 12.2452 14H13.7548C14.1664 14 14.5 13.6702 14.5 13.2633V2.73667C14.5 2.32982 14.1664 2 13.7548 2Z" stroke="#BDBDBD" stroke-width="1.25" stroke-linecap="round" stroke-linejoin="round"></path>
</svg>