<svg width="80" height="80" viewBox="0 0 80 80" fill="none" xmlns="http://www.w3.org/2000/svg">
<g filter="url(#filter0_i)">
<path d="M18.0952 0H61.9048C71.9048 0 80 8.09524 80 18.0952V61.9048C80 71.9048 71.9048 80 61.9048 80H18.0952C8.09524 80 0 71.9048 0 61.9048V18.0952C0 8.09524 8.09524 0 18.0952 0Z" fill="#FFFEFF"/>
<path d="M18.0952 0.5H61.9048C71.6286 0.5 79.5 8.37138 79.5 18.0952V61.9048C79.5 71.6286 71.6286 79.5 61.9048 79.5H18.0952C8.37138 79.5 0.5 71.6286 0.5 61.9048V18.0952C0.5 8.37138 8.37138 0.5 18.0952 0.5Z" stroke="black" stroke-opacity="0.05"/>
<path d="M33.0334 50.7268C30.9865 50.7268 29.6726 48.5416 30.6269 46.7298L39.5753 29.8288L33.0473 16.5653C32.0376 14.5322 29.1609 14.4769 28.0544 16.4547L11.3471 46.6606C10.3375 48.4724 11.6514 50.6991 13.726 50.6991H24.9149V61.7912C24.9149 63.3126 26.1458 64.5435 27.6672 64.5435H33.1994C34.7208 64.5435 35.9517 63.3126 35.9517 61.7912V50.7268H33.0334Z" fill="#39DF9B"/>
<path d="M68.9933 46.6606L52.2721 16.4547C51.1657 14.4631 48.2889 14.5322 47.2793 16.5653L40.6406 29.8703L49.6581 46.7021C50.6263 48.5139 49.3124 50.713 47.2516 50.713H44.2781V61.7636C44.2781 63.2988 45.5228 64.5435 47.058 64.5435H52.5487C54.0839 64.5435 55.3287 63.2988 55.3287 61.7636V50.6991H66.6144C68.689 50.6991 70.0029 48.4724 68.9933 46.6606Z" fill="#28BE7A"/>
</g>
<defs>
<filter id="filter0_i" x="0" y="-1" width="80" height="81" filterUnits="userSpaceOnUse" color-interpolation-filters="sRGB">
<feFlood flood-opacity="0" result="BackgroundImageFix"/>
<feBlend mode="normal" in="SourceGraphic" in2="BackgroundImageFix" result="shape"/>
<feColorMatrix in="SourceAlpha" type="matrix" values="0 0 0 0 0 0 0 0 0 0 0 0 0 0 0 0 0 0 127 0" result="hardAlpha"/>
<feOffset dy="-1"/>
<feGaussianBlur stdDeviation="0.5"/>
<feComposite in2="hardAlpha" operator="arithmetic" k2="-1" k3="1"/>
<feColorMatrix type="matrix" values="0 0 0 0 0 0 0 0 0 0 0 0 0 0 0 0 0 0 0.12 0"/>
<feBlend mode="normal" in2="shape" result="effect1_innerShadow"/>
</filter>
</defs>
</svg>
