<svg width="80" height="80" viewBox="0 0 80 80" fill="none" xmlns="http://www.w3.org/2000/svg">
<g filter="url(#filter0_i)">
<path d="M18.0952 0H61.9048C71.9048 0 80 8.09524 80 18.0952V61.9048C80 71.9048 71.9048 80 61.9048 80H18.0952C8.09524 80 0 71.9048 0 61.9048V18.0952C0 8.09524 8.09524 0 18.0952 0Z" fill="#0A66C2"/>
<path d="M15.8976 31.6348H26.4491V64.9412H15.8976V31.6348ZM21.1762 15.0588C22.3864 15.0588 23.5695 15.411 24.5756 16.0707C25.5818 16.7304 26.3659 17.6681 26.8288 18.7651C27.2916 19.8621 27.4124 21.0691 27.1759 22.2334C26.9394 23.3978 26.3562 24.4672 25.5 25.3063C24.6439 26.1454 23.5533 26.7166 22.3662 26.9475C21.1791 27.1784 19.9488 27.0588 18.8311 26.6036C17.7133 26.1485 16.7583 25.3784 16.0868 24.3907C15.4153 23.4029 15.0574 22.242 15.0586 21.0548C15.0601 19.464 15.7054 17.9389 16.8525 16.8146C17.9996 15.6904 19.5548 15.0588 21.1762 15.0588Z" fill="white"/>
<path d="M32 31.8594H42.1268V36.4012H42.2668C43.6785 33.801 47.1202 31.0589 52.2594 31.0589C62.9578 31.0362 64.9412 37.8887 64.9412 46.7737V64.9412H54.3769V48.846C54.3769 45.0138 54.3069 40.0802 48.8877 40.0802C43.4685 40.0802 42.5468 44.2587 42.5468 48.5961V64.9412H32V31.8594Z" fill="white"/>
</g>
<defs>
<filter id="filter0_i" x="0" y="-1" width="80" height="81" filterUnits="userSpaceOnUse" color-interpolation-filters="sRGB">
<feFlood flood-opacity="0" result="BackgroundImageFix"/>
<feBlend mode="normal" in="SourceGraphic" in2="BackgroundImageFix" result="shape"/>
<feColorMatrix in="SourceAlpha" type="matrix" values="0 0 0 0 0 0 0 0 0 0 0 0 0 0 0 0 0 0 127 0" result="hardAlpha"/>
<feOffset dy="-1"/>
<feGaussianBlur stdDeviation="0.5"/>
<feComposite in2="hardAlpha" operator="arithmetic" k2="-1" k3="1"/>
<feColorMatrix type="matrix" values="0 0 0 0 0 0 0 0 0 0 0 0 0 0 0 0 0 0 0.12 0"/>
<feBlend mode="normal" in2="shape" result="effect1_innerShadow"/>
</filter>
</defs>
</svg>
