<svg width="80" height="80" viewBox="0 0 80 80" fill="none" xmlns="http://www.w3.org/2000/svg">
<g filter="url(#filter0_i)">
<path d="M18.0952 0H61.9048C71.9048 0 80 8.09524 80 18.0952V61.9048C80 71.9048 71.9048 80 61.9048 80H18.0952C8.09524 80 0 71.9048 0 61.9048V18.0952C0 8.09524 8.09524 0 18.0952 0Z"/>
<path fill-rule="evenodd" clip-rule="evenodd" d="M49.3916 46.4171L25.3323 59.6566C20.3921 62.3751 14.346 58.8012 14.346 53.1624L14.346 26.6833C14.346 21.0446 20.3921 17.4706 25.3323 20.1891L49.3916 33.4286C54.5101 36.2453 54.5101 43.6004 49.3916 46.4171ZM47.1174 42.2844C48.9787 41.2602 48.9787 38.5856 47.1174 37.5613L23.0581 24.3218C21.2617 23.3332 19.0631 24.6329 19.0631 26.6833L19.0631 53.1624C19.0631 55.2128 21.2617 56.5125 23.0581 55.5239L47.1174 42.2844Z" fill="#ffffff"/>
<path fill-rule="evenodd" clip-rule="evenodd" d="M49.3916 46.4171L25.3323 59.6566C20.3921 62.3751 14.346 58.8012 14.346 53.1624L14.346 26.6833C14.346 21.0446 20.3921 17.4706 25.3323 20.1891L49.3916 33.4286C54.5101 36.2453 54.5101 43.6004 49.3916 46.4171ZM47.1174 42.2844C48.9787 41.2602 48.9787 38.5856 47.1174 37.5613L23.0581 24.3218C21.2617 23.3332 19.0631 24.6329 19.0631 26.6833L19.0631 53.1624C19.0631 55.2128 21.2617 56.5125 23.0581 55.5239L47.1174 42.2844Z" fill="url(#paint0_radial)"/>
<path fill-rule="evenodd" clip-rule="evenodd" d="M49.3916 46.4171L25.3323 59.6566C20.3921 62.3751 14.346 58.8012 14.346 53.1624L14.346 26.6833C14.346 21.0446 20.3921 17.4706 25.3323 20.1891L49.3916 33.4286C54.5101 36.2453 54.5101 43.6004 49.3916 46.4171ZM47.1174 42.2844C48.9787 41.2602 48.9787 38.5856 47.1174 37.5613L23.0581 24.3218C21.2617 23.3332 19.0631 24.6329 19.0631 26.6833L19.0631 53.1624C19.0631 55.2128 21.2617 56.5125 23.0581 55.5239L47.1174 42.2844Z"/>
<path fill-rule="evenodd" clip-rule="evenodd" d="M34.9609 30.8718L39.8531 33.5638L56.648 24.3218C58.4444 23.3332 60.643 24.6329 60.643 26.6833V53.1624C60.643 55.2128 58.4444 56.5125 56.648 55.5239L39.8531 46.2819L34.9609 48.9739L54.3739 59.6566C59.314 62.3751 65.3601 58.8011 65.3601 53.1624V26.6833C65.3601 21.0446 59.314 17.4706 54.3739 20.1891L34.9609 30.8718Z" fill="#ffffff"/>
<path fill-rule="evenodd" clip-rule="evenodd" d="M34.9609 30.8718L39.8531 33.5638L56.648 24.3218C58.4444 23.3332 60.643 24.6329 60.643 26.6833V53.1624C60.643 55.2128 58.4444 56.5125 56.648 55.5239L39.8531 46.2819L34.9609 48.9739L54.3739 59.6566C59.314 62.3751 65.3601 58.8011 65.3601 53.1624V26.6833C65.3601 21.0446 59.314 17.4706 54.3739 20.1891L34.9609 30.8718Z" />
<path fill-rule="evenodd" clip-rule="evenodd" d="M34.9609 30.8718L39.8531 33.5638L56.648 24.3218C58.4444 23.3332 60.643 24.6329 60.643 26.6833V53.1624C60.643 55.2128 58.4444 56.5125 56.648 55.5239L39.8531 46.2819L34.9609 48.9739L54.3739 59.6566C59.314 62.3751 65.3601 58.8011 65.3601 53.1624V26.6833C65.3601 21.0446 59.314 17.4706 54.3739 20.1891L34.9609 30.8718Z" />
<path fill-rule="evenodd" clip-rule="evenodd" d="M49.3916 46.4171L25.3323 59.6566C20.3921 62.3751 14.346 58.8012 14.346 53.1624L14.346 26.6833C14.346 21.0446 20.3921 17.4706 25.3323 20.1891L49.3916 33.4286C54.5101 36.2453 54.5101 43.6004 49.3916 46.4171ZM47.1174 42.2844C48.9787 41.2602 48.9787 38.5856 47.1174 37.5613L23.0581 24.3218C21.2617 23.3332 19.0631 24.6329 19.0631 26.6833L19.0631 53.1624C19.0631 55.2128 21.2617 56.5125 23.0581 55.5239L47.1174 42.2844Z" fill="#ffffff"/>
<path fill-rule="evenodd" clip-rule="evenodd" d="M49.3916 46.4171L25.3323 59.6566C20.3921 62.3751 14.346 58.8012 14.346 53.1624L14.346 26.6833C14.346 21.0446 20.3921 17.4706 25.3323 20.1891L49.3916 33.4286C54.5101 36.2453 54.5101 43.6004 49.3916 46.4171ZM47.1174 42.2844C48.9787 41.2602 48.9787 38.5856 47.1174 37.5613L23.0581 24.3218C21.2617 23.3332 19.0631 24.6329 19.0631 26.6833L19.0631 53.1624C19.0631 55.2128 21.2617 56.5125 23.0581 55.5239L47.1174 42.2844Z"/>
<path fill-rule="evenodd" clip-rule="evenodd" d="M49.3916 46.4171L25.3323 59.6566C20.3921 62.3751 14.346 58.8012 14.346 53.1624L14.346 26.6833C14.346 21.0446 20.3921 17.4706 25.3323 20.1891L49.3916 33.4286C54.5101 36.2453 54.5101 43.6004 49.3916 46.4171ZM47.1174 42.2844C48.9787 41.2602 48.9787 38.5856 47.1174 37.5613L23.0581 24.3218C21.2617 23.3332 19.0631 24.6329 19.0631 26.6833L19.0631 53.1624C19.0631 55.2128 21.2617 56.5125 23.0581 55.5239L47.1174 42.2844Z"/>
</g>
<defs>
<filter id="filter0_i" x="0" y="-1" width="80" height="81" filterUnits="userSpaceOnUse" color-interpolation-filters="sRGB">
<feFlood flood-opacity="0" result="BackgroundImageFix"/>
<feBlend mode="normal" in="SourceGraphic" in2="BackgroundImageFix" result="shape"/>
<feColorMatrix in="SourceAlpha" type="matrix" values="0 0 0 0 0 0 0 0 0 0 0 0 0 0 0 0 0 0 127 0" result="hardAlpha"/>
<feOffset dy="-1"/>
<feGaussianBlur stdDeviation="0.5"/>
<feComposite in2="hardAlpha" operator="arithmetic" k2="-1" k3="1"/>
<feColorMatrix type="matrix" values="0 0 0 0 0 0 0 0 0 0 0 0 0 0 0 0 0 0 0.12 0"/>
<feBlend mode="normal" in2="shape" result="effect1_innerShadow"/>
</filter>
<radialGradient id="paint0_radial" cx="0" cy="0" r="1" gradientUnits="userSpaceOnUse" gradientTransform="translate(18.7262 55.6492) rotate(-53.1301) scale(33.6935 35.8085)">
<stop offset="0.59375" stop-color="#FB1963"/>
<stop offset="1" stop-color="#FB1664" stop-opacity="0"/>
</radialGradient>
<radialGradient id="paint1_radial" cx="0" cy="0" r="1" gradientUnits="userSpaceOnUse" gradientTransform="translate(19.737 56.9969) rotate(-56.3099) scale(18.2226 19.3664)">
<stop stop-color="#C108EE"/>
<stop offset="1" stop-color="#BC07F7" stop-opacity="0"/>
</radialGradient>
<radialGradient id="paint2_radial" cx="0" cy="0" r="1" gradientUnits="userSpaceOnUse" gradientTransform="translate(60.98 24.1965) rotate(126.87) scale(33.6935 35.8085)">
<stop offset="0.59375" stop-color="#FB1963"/>
<stop offset="1" stop-color="#FB1664" stop-opacity="0"/>
</radialGradient>
<radialGradient id="paint3_radial" cx="0" cy="0" r="1" gradientUnits="userSpaceOnUse" gradientTransform="translate(59.9692 22.8488) rotate(123.69) scale(18.2226 19.3664)">
<stop stop-color="#C108EE"/>
<stop offset="1" stop-color="#BC07F7" stop-opacity="0"/>
</radialGradient>
<radialGradient id="paint4_radial" cx="0" cy="0" r="1" gradientUnits="userSpaceOnUse" gradientTransform="translate(18.7262 55.6492) rotate(-53.1301) scale(33.6935 35.8085)">
<stop offset="0.59375" stop-color="#FB1963"/>
<stop offset="1" stop-color="#FB1664" stop-opacity="0"/>
</radialGradient>
<radialGradient id="paint5_radial" cx="0" cy="0" r="1" gradientUnits="userSpaceOnUse" gradientTransform="translate(19.737 56.9969) rotate(-56.3099) scale(18.2226 19.3664)">
<stop stop-color="#C108EE"/>
<stop offset="1" stop-color="#BC07F7" stop-opacity="0"/>
</radialGradient>
</defs>
</svg>
