<?xml version="1.0" encoding="iso-8859-1"?>
<!-- Uploaded to: SVG Repo, www.svgrepo.com, Generator: SVG Repo Mixer Tools -->
<!DOCTYPE svg PUBLIC "-//W3C//DTD SVG 1.1//EN" "http://www.w3.org/Graphics/SVG/1.1/DTD/svg11.dtd">
<svg fill="#000000" height="800px" width="800px" version="1.1" id="Capa_1" xmlns="http://www.w3.org/2000/svg" xmlns:xlink="http://www.w3.org/1999/xlink" 
	 viewBox="0 0 418.19 418.19" xml:space="preserve">
<g>
	<path d="M338.168,23.499h-67.263V8.553c0-4.724-3.83-8.553-8.553-8.553H155.838c-4.724,0-8.553,3.83-8.553,8.553v14.946H80.022
		c-10.845,0-19.636,8.792-19.636,19.636v355.418c0,10.845,8.792,19.637,19.636,19.637h156.036c0.07,0,0.139-0.01,0.209-0.011
		c0.572-0.006,1.144-0.028,1.711-0.084c0.294-0.029,0.582-0.087,0.873-0.129c0.342-0.049,0.686-0.086,1.025-0.152
		c0.3-0.06,0.592-0.147,0.888-0.221c0.325-0.08,0.652-0.147,0.972-0.244c0.267-0.081,0.523-0.186,0.786-0.278
		c0.342-0.119,0.688-0.228,1.024-0.366c0.223-0.093,0.437-0.207,0.656-0.308c0.363-0.165,0.73-0.323,1.083-0.512
		c0.192-0.102,0.374-0.226,0.563-0.334c0.367-0.212,0.737-0.418,1.092-0.654c0.184-0.122,0.355-0.266,0.536-0.395
		c0.344-0.246,0.692-0.486,1.022-0.756c0.244-0.2,0.468-0.424,0.703-0.637c0.248-0.224,0.505-0.434,0.744-0.672l102.109-102.11
		c0.419-0.419,0.808-0.857,1.183-1.306c0.107-0.129,0.208-0.261,0.312-0.392c0.272-0.344,0.532-0.694,0.779-1.053
		c0.094-0.136,0.188-0.271,0.278-0.408c0.306-0.47,0.596-0.946,0.859-1.436c0.009-0.018,0.021-0.034,0.03-0.052
		c0.274-0.515,0.518-1.043,0.745-1.578c0.061-0.142,0.114-0.286,0.171-0.43c0.162-0.407,0.31-0.819,0.443-1.236
		c0.051-0.158,0.103-0.315,0.149-0.475c0.158-0.539,0.299-1.082,0.41-1.632c0.003-0.016,0.008-0.03,0.011-0.045
		c0.113-0.568,0.193-1.141,0.256-1.717c0.018-0.16,0.028-0.321,0.042-0.482c0.038-0.449,0.06-0.899,0.067-1.351
		c0.001-0.099,0.015-0.194,0.015-0.293V43.135C357.804,32.291,349.013,23.499,338.168,23.499z M255.695,351.146V316.08h35.066
		L255.695,351.146z M318.532,276.806h-82.473c-10.845,0-19.636,8.792-19.636,19.637v82.474H99.658V62.771h47.627v74.856
		c0,4.724,3.83,8.553,8.553,8.553h0.806c1.635,0,3.236-0.469,4.613-1.351l22.998-14.729l19.06,14.358
		c1.524,1.148,3.335,1.722,5.146,1.722c1.84,0,3.681-0.593,5.218-1.776l18.67-14.374l24.786,14.924
		c1.332,0.802,2.857,1.226,4.412,1.226h0.806c4.724,0,8.553-3.829,8.553-8.553V62.771h47.627V276.806z"/>
	<path d="M265.947,234.742c-0.401-2.252-0.855-4.806-1.739-7.454c-2.978-8.691-8.376-12.016-12.38-13.274
		c-10.272-3.23-20.044,3.919-27.179,9.139l-1.085,0.792c-2.024,1.463-4.605,3.797-7.873,6.752
		c-3.741,3.384-12.174,11.011-18.127,14.824c0.46-8.087,3.377-21.499,4.809-28.086c1.656-7.613,2.599-12.076,2.739-15.311
		c0.598-15.035-3.583-24.542-12.426-28.257c-15.759-6.617-35.124,9.365-63.25,39.215c-1.417,1.504-2.63,2.792-3.592,3.784
		c-4.136,4.265-4.031,11.074,0.233,15.21c4.264,4.135,11.074,4.03,15.21-0.233c1.019-1.052,2.305-2.415,3.806-4.008
		c5.533-5.872,13.894-14.746,22.402-22.17c8.424-7.35,13.356-10.087,15.851-11.105c0.222,1.358,0.399,3.486,0.272,6.671
		c-0.074,1.555-1.29,7.143-2.266,11.633c-5.924,27.244-8.961,45.69,2.34,53.554c0.058,0.04,0.116,0.079,0.174,0.118
		c2.887,1.926,5.94,2.762,9.097,2.761c12.119-0.001,25.746-12.323,37.158-22.645c2.445-2.211,4.973-4.498,6.068-5.289l1.161-0.848
		c1.798-1.315,4.662-3.41,6.906-4.697c0.176,0.817,0.341,1.741,0.511,2.696c1.105,6.203,3.157,17.738,15.737,21.215
		c9.389,2.677,22.459-3.555,29.433-7.518c5.161-2.934,6.964-9.489,4.037-14.653c-2.927-5.162-9.491-6.976-14.657-4.056
		c-4.225,2.389-9.719,4.652-12.543,5.243C266.462,237.629,266.165,235.961,265.947,234.742z"/>
</g>
</svg>