<!DOCTYPE svg PUBLIC "-//W3C//DTD SVG 1.1//EN" "http://www.w3.org/Graphics/SVG/1.1/DTD/svg11.dtd">
<!-- Uploaded to: SVG Repo, www.svgrepo.com, Transformed by: SVG Repo Mixer Tools -->
<svg fill="#ffffff" height="800px" width="800px" version="1.1" id="Layer_1" xmlns="http://www.w3.org/2000/svg" xmlns:xlink="http://www.w3.org/1999/xlink" viewBox="-81.92 -81.92 675.84 675.84" xml:space="preserve" stroke="#ffffff" stroke-width="10.24">
<g id="SVGRepo_bgCarrier" stroke-width="0"/>
<g id="SVGRepo_tracerCarrier" stroke-linecap="round" stroke-linejoin="round"/>
<g id="SVGRepo_iconCarrier"> <g transform="translate(1 1)"> <g> <g> <path d="M488.544,61.877h-26.947V34.93c0-5.389-3.593-8.982-8.982-8.982H253.855C249.84,10.496,235.733-1,219.07-1 s-30.77,11.496-34.785,26.947H21.456c-5.389,0-8.982,3.593-8.982,8.982v431.158c0,5.389,3.593,8.982,8.982,8.982h26.947v26.947 c0,5.389,3.593,8.982,8.982,8.982h431.158c5.389,0,8.982-3.593,8.982-8.982V70.86C497.526,65.47,493.933,61.877,488.544,61.877z M219.07,16.965c6.611,0,12.403,3.628,15.522,8.982h-31.044C206.668,20.593,212.46,16.965,219.07,16.965z M30.439,43.912H183.14 v44.912c0,19.761,16.168,35.93,35.93,35.93S255,108.586,255,88.825c0-5.39-3.593-8.982-8.982-8.982 c-5.389,0-8.982,3.593-8.982,8.982c0,9.881-8.084,17.965-17.965,17.965c-9.881,0-17.965-8.084-17.965-17.965V43.912h242.526 V70.86v386.246H57.386H30.439V43.912z M479.561,493.035H66.368V475.07h386.246c5.389,0,8.982-3.593,8.982-8.982V79.842h17.965 V493.035z"/> <path d="M326.86,187.632h35.93c5.389,0,8.982-3.593,8.982-8.982s-3.593-8.982-8.982-8.982h-35.93 c-5.389,0-8.982,3.593-8.982,8.982S321.47,187.632,326.86,187.632z"/> <path d="M228.053,187.632h62.877c5.389,0,8.982-3.593,8.982-8.982s-3.593-8.982-8.982-8.982h-62.877 c-5.389,0-8.982,3.593-8.982,8.982S222.663,187.632,228.053,187.632z"/> <path d="M111.281,187.632h80.842c5.389,0,8.982-3.593,8.982-8.982s-3.593-8.982-8.982-8.982h-80.842 c-5.389,0-8.982,3.593-8.982,8.982S105.891,187.632,111.281,187.632z"/> <path d="M362.789,223.561h-71.86c-5.389,0-8.982,3.593-8.982,8.982c0,5.389,3.593,8.982,8.982,8.982h71.86 c5.389,0,8.982-3.593,8.982-8.982C371.772,227.154,368.179,223.561,362.789,223.561z"/> <path d="M237.035,223.561h-62.877c-5.389,0-8.982,3.593-8.982,8.982c0,5.389,3.593,8.982,8.982,8.982h62.877 c5.389,0,8.982-3.593,8.982-8.982C246.018,227.154,242.425,223.561,237.035,223.561z"/> <path d="M111.281,241.526h26.947c5.389,0,8.982-3.593,8.982-8.982c0-5.39-3.593-8.982-8.982-8.982h-26.947 c-5.389,0-8.982,3.593-8.982,8.982C102.298,237.933,105.891,241.526,111.281,241.526z"/> <path d="M362.789,277.456h-26.947c-5.389,0-8.982,3.593-8.982,8.982s3.593,8.982,8.982,8.982h26.947 c5.389,0,8.982-3.593,8.982-8.982S368.179,277.456,362.789,277.456z"/> <path d="M201.105,286.439c0,5.389,3.593,8.982,8.982,8.982h89.825c5.389,0,8.982-3.593,8.982-8.982s-3.593-8.982-8.982-8.982 h-89.825C204.698,277.456,201.105,281.049,201.105,286.439z"/> <path d="M111.281,295.421h44.912c5.389,0,8.982-3.593,8.982-8.982s-3.593-8.982-8.982-8.982h-44.912 c-5.389,0-8.982,3.593-8.982,8.982S105.891,295.421,111.281,295.421z"/> <path d="M362.789,331.351h-98.807c-5.39,0-8.982,3.593-8.982,8.982s3.593,8.982,8.982,8.982h98.807 c5.389,0,8.982-3.593,8.982-8.982S368.179,331.351,362.789,331.351z"/> <path d="M210.088,331.351h-35.93c-5.389,0-8.982,3.593-8.982,8.982s3.593,8.982,8.982,8.982h35.93 c5.389,0,8.982-3.593,8.982-8.982S215.477,331.351,210.088,331.351z"/> <path d="M111.281,349.316h26.947c5.389,0,8.982-3.593,8.982-8.982s-3.593-8.982-8.982-8.982h-26.947 c-5.389,0-8.982,3.593-8.982,8.982S105.891,349.316,111.281,349.316z"/> </g> </g> </g> </g>
</svg>