<svg width="80" height="80" viewBox="0 0 80 80" fill="none" xmlns="http://www.w3.org/2000/svg">
<g clip-path="url(#clip0)">
<path d="M18.0952 0H61.9048C71.9048 0 80 8.09524 80 18.0952V61.9048C80 71.9048 71.9048 80 61.9048 80H18.0952C8.09524 80 0 71.9048 0 61.9048V18.0952C0 8.09524 8.09524 0 18.0952 0Z" fill="#FFFEFF"/>
<path d="M18.0952 0.5H61.9048C71.6286 0.5 79.5 8.37138 79.5 18.0952V61.9048C79.5 71.6286 71.6286 79.5 61.9048 79.5H18.0952C8.37138 79.5 0.5 71.6286 0.5 61.9048V18.0952C0.5 8.37138 8.37138 0.5 18.0952 0.5Z" stroke="black" stroke-opacity="0.05"/>
<path d="M66 40C66 54.3586 54.3586 66 40 66C25.6414 66 14 54.3586 14 40C14 25.6414 25.6414 14 40 14C54.3616 14 66 25.6414 66 40Z" fill="#2081E2"/>
<path d="M26.8281 40.8736L26.9403 40.6973L33.704 30.1165C33.8028 29.9615 34.0352 29.9776 34.11 30.1458C35.2399 32.6782 36.2149 35.8276 35.7582 37.7883C35.5632 38.595 35.0289 39.6876 34.4279 40.6973C34.3504 40.8443 34.2649 40.9885 34.1741 41.1274C34.1314 41.1915 34.0593 41.2289 33.9818 41.2289H27.0258C26.8388 41.2289 26.7293 41.0259 26.8281 40.8736Z" fill="white"/>
<path d="M56.975 42.8397V44.5146C56.975 44.6107 56.9163 44.6962 56.8308 44.7336C56.3072 44.958 54.5148 45.7808 53.7695 46.8172C51.8676 49.4644 50.4144 53.2496 47.1662 53.2496H33.6149C28.8119 53.2496 24.9199 49.3442 24.9199 44.5253V44.3703C24.9199 44.2421 25.0241 44.1379 25.1524 44.1379H32.7066C32.8562 44.1379 32.9658 44.2768 32.9524 44.4238C32.899 44.9153 32.9898 45.4175 33.2222 45.8743C33.671 46.7851 34.6006 47.3541 35.605 47.3541H39.3447V44.4344H35.6477C35.4581 44.4344 35.3459 44.2154 35.4554 44.0604C35.4955 43.999 35.5409 43.9349 35.5889 43.8628C35.9389 43.366 36.4384 42.5939 36.9353 41.7151C37.2745 41.1221 37.6031 40.489 37.8675 39.8532C37.921 39.7384 37.9637 39.6209 38.0064 39.5059C38.0786 39.303 38.1533 39.1133 38.2068 38.9237C38.2602 38.7634 38.3029 38.5951 38.3457 38.4375C38.4712 37.8979 38.5247 37.3262 38.5247 36.7332C38.5247 36.5008 38.514 36.2577 38.4926 36.0253C38.4819 35.7715 38.4499 35.5178 38.4178 35.264C38.3964 35.0396 38.3564 34.8179 38.3136 34.5855C38.2602 34.2463 38.1854 33.9097 38.0999 33.5704L38.0705 33.4422C38.0064 33.2098 37.953 32.9881 37.8782 32.7557C37.6672 32.0264 37.4241 31.3159 37.1677 30.6507C37.0742 30.3863 36.9673 30.1325 36.8604 29.8788C36.7028 29.4968 36.5426 29.1495 36.3957 28.8209C36.3209 28.6713 36.2567 28.5351 36.1927 28.3962C36.1205 28.2386 36.0457 28.081 35.971 27.9314C35.9175 27.8165 35.856 27.7097 35.8133 27.6029L35.3566 26.7587C35.2924 26.6439 35.3993 26.5076 35.5248 26.5423L38.3831 27.317H38.3911C38.3964 27.317 38.3991 27.3197 38.4018 27.3197L38.7784 27.4239L39.1925 27.5414L39.3447 27.5841V25.8852C39.3447 25.0651 40.0019 24.4 40.814 24.4C41.22 24.4 41.5886 24.5656 41.853 24.8354C42.1175 25.1052 42.2831 25.4739 42.2831 25.8852V28.4069L42.5876 28.4923C42.6117 28.5004 42.6357 28.5111 42.6571 28.5271C42.7319 28.5832 42.8387 28.666 42.975 28.7675C43.0818 28.853 43.1967 28.9572 43.3356 29.064C43.6107 29.2857 43.9393 29.5716 44.2999 29.9001C44.3961 29.983 44.4896 30.0684 44.5751 30.1539C45.0399 30.5866 45.5607 31.0942 46.0576 31.6552C46.1965 31.8127 46.3328 31.973 46.4717 32.1413C46.6106 32.3123 46.7575 32.4806 46.8857 32.6489C47.054 32.8732 47.2356 33.1056 47.3932 33.3487C47.468 33.4636 47.5535 33.5811 47.6257 33.696C47.8286 34.0032 48.0076 34.3211 48.1786 34.6389C48.2507 34.7858 48.3255 34.9461 48.3896 35.1037C48.5793 35.5285 48.7289 35.9612 48.825 36.394C48.8544 36.4875 48.8758 36.589 48.8865 36.6798V36.7011C48.9185 36.8294 48.9292 36.9656 48.9399 37.1045C48.9826 37.5479 48.9613 37.9914 48.8651 38.4375C48.825 38.6271 48.7716 38.8061 48.7075 38.9958C48.6434 39.1774 48.5793 39.367 48.4965 39.546C48.3362 39.9173 48.1465 40.2887 47.9221 40.6359C47.85 40.7641 47.7646 40.9004 47.6791 41.0286C47.5856 41.1648 47.4894 41.2931 47.4039 41.4186C47.2864 41.5789 47.1608 41.7471 47.0326 41.8967C46.9178 42.0543 46.8002 42.212 46.672 42.3509C46.493 42.5619 46.3221 42.7622 46.1431 42.9546C46.0363 43.0801 45.9214 43.2083 45.8038 43.3232C45.689 43.4514 45.5714 43.5663 45.4646 43.6731C45.2856 43.8521 45.136 43.991 45.0105 44.1059L44.7166 44.3757C44.6739 44.4131 44.6178 44.4344 44.559 44.4344H42.2831V47.3541H45.1467C45.7878 47.3541 46.3968 47.1271 46.8884 46.7104C47.0567 46.5634 47.7913 45.9277 48.6594 44.9687C48.6888 44.9367 48.7262 44.9126 48.7689 44.9019L56.6785 42.6153C56.8254 42.5726 56.975 42.6848 56.975 42.8397Z" fill="white"/>
</g>
<defs>
<clipPath id="clip0">
<rect width="80" height="80" fill="white"/>
</clipPath>
</defs>
</svg>
