<svg width="80" height="80" viewBox="0 0 80 80" fill="none" xmlns="http://www.w3.org/2000/svg">
<g filter="url(#filter0_i)">
<path d="M18.0952 0H61.9048C71.9048 0 80 8.09524 80 18.0952V61.9048C80 71.9048 71.9048 80 61.9048 80H18.0952C8.09524 80 0 71.9048 0 61.9048V18.0952C0 8.09524 8.09524 0 18.0952 0Z" fill="url(#paint0_linear)"/>
<path d="M59.2544 26.3438C59.2018 26.6731 59.1418 27.0099 59.0742 27.3558C56.7527 39.0424 48.8104 43.0797 38.6666 43.0797H33.5018C32.2613 43.0797 31.216 43.9629 31.0227 45.1627L28.3784 61.606L27.6295 66.2671C27.5038 67.0547 28.1231 67.7649 28.9339 67.7649H38.0942C39.179 67.7649 40.1004 66.9921 40.2712 65.9432L40.3613 65.4869L42.086 54.7553L42.1968 54.1664C42.3657 53.1139 43.289 52.341 44.3738 52.341H45.7438C54.6188 52.341 61.5665 48.808 63.5971 38.5843C64.4454 34.3133 64.0063 30.7472 61.7617 28.2391C61.0823 27.4828 60.2397 26.8553 59.2544 26.3438Z" fill="#ADD0E5"/>
<path d="M56.8266 25.3938C56.4719 25.2926 56.106 25.2006 55.7306 25.1177C55.3534 25.0368 54.9668 24.965 54.5689 24.9024C53.1764 24.6816 51.6506 24.5767 50.016 24.5767H36.2182C35.8785 24.5767 35.5557 24.6522 35.2667 24.7884C34.6305 25.0883 34.1576 25.679 34.0431 26.4022L31.1079 44.6304L31.0234 45.1622C31.2167 43.9624 32.2621 43.0792 33.5026 43.0792H38.6674C48.8111 43.0792 56.7534 39.0401 59.075 27.3553C59.1444 27.0094 59.2026 26.6726 59.2551 26.3433C58.6677 26.0378 58.0315 25.7765 57.3465 25.5539C57.1776 25.4986 57.003 25.4453 56.8266 25.3938Z" fill="#E6EFF6"/>
<path d="M34.0429 26.4024C34.1574 25.6792 34.6303 25.0886 35.2665 24.7905C35.5574 24.6543 35.8783 24.5788 36.218 24.5788H50.0158C51.6504 24.5788 53.1762 24.6837 54.5687 24.9045C54.9666 24.9671 55.3532 25.0389 55.7304 25.1198C56.1058 25.2026 56.4717 25.2947 56.8264 25.3959C57.0029 25.4474 57.1774 25.5007 57.3482 25.5541C58.0332 25.7768 58.6694 26.0399 59.2568 26.3435C59.9474 22.0248 59.2512 19.0842 56.8696 16.4216C54.2441 13.4903 49.5053 12.2353 43.4416 12.2353H25.8378C24.5992 12.2353 23.5426 13.1186 23.3511 14.3202L16.0187 59.8908C15.8742 60.7925 16.5836 61.6058 17.5107 61.6058H28.3789L31.1077 44.6307L34.0429 26.4024Z" fill="white"/>
</g>
<defs>
<filter id="filter0_i" x="0" y="-1" width="80" height="81" filterUnits="userSpaceOnUse" color-interpolation-filters="sRGB">
<feFlood flood-opacity="0" result="BackgroundImageFix"/>
<feBlend mode="normal" in="SourceGraphic" in2="BackgroundImageFix" result="shape"/>
<feColorMatrix in="SourceAlpha" type="matrix" values="0 0 0 0 0 0 0 0 0 0 0 0 0 0 0 0 0 0 127 0" result="hardAlpha"/>
<feOffset dy="-1"/>
<feGaussianBlur stdDeviation="0.5"/>
<feComposite in2="hardAlpha" operator="arithmetic" k2="-1" k3="1"/>
<feColorMatrix type="matrix" values="0 0 0 0 0 0 0 0 0 0 0 0 0 0 0 0 0 0 0.12 0"/>
<feBlend mode="normal" in2="shape" result="effect1_innerShadow"/>
</filter>
<linearGradient id="paint0_linear" x1="8.47059" y1="4.23529" x2="74.8235" y2="76.2353" gradientUnits="userSpaceOnUse">
<stop stop-color="#002B6F"/>
<stop offset="1" stop-color="#0097D9"/>
</linearGradient>
</defs>
</svg>
