<svg width="80" height="80" viewBox="0 0 80 80" fill="none" xmlns="http://www.w3.org/2000/svg">
<g filter="url(#filter0_i)">
<path d="M18.0952 0H61.9048C71.9048 0 80 8.09524 80 18.0952V61.9048C80 71.9048 71.9048 80 61.9048 80H18.0952C8.09524 80 0 71.9048 0 61.9048V18.0952C0 8.09524 8.09524 0 18.0952 0Z"/>
<path d="M18.0952 0.5H61.9048C71.6286 0.5 79.5 8.37138 79.5 18.0952V61.9048C79.5 71.6286 71.6286 79.5 61.9048 79.5H18.0952C8.37138 79.5 0.5 71.6286 0.5 61.9048V18.0952C0.5 8.37138 8.37138 0.5 18.0952 0.5Z" stroke="black" stroke-opacity="0.05"/>
<path d="M40.0266 7.52942C22.0795 7.52942 7.5293 22.0557 7.5293 39.9733C7.5293 53.7252 16.0882 65.4745 28.1778 70.2009C27.8835 67.6374 27.6428 63.6854 28.2847 60.8816C28.8732 58.3448 32.0828 44.7531 32.0828 44.7531C32.0828 44.7531 31.1199 42.8038 31.1199 39.9466C31.1199 35.4338 33.7411 32.0693 37.0042 32.0693C39.7858 32.0693 41.1232 34.1521 41.1232 36.6355C41.1232 39.4125 39.3579 43.5782 38.4218 47.4501C37.6461 50.6811 40.0533 53.3247 43.2362 53.3247C49.0135 53.3247 53.4534 47.2365 53.4534 38.478C53.4534 30.7074 47.8633 25.2868 39.8661 25.2868C30.6117 25.2868 25.1821 32.2028 25.1821 39.3591C25.1821 42.1362 26.252 45.1269 27.5893 46.7558C27.8568 47.0762 27.8835 47.37 27.8033 47.6904C27.5626 48.7051 27.0009 50.9214 26.8939 51.3754C26.7602 51.9629 26.4125 52.0964 25.7973 51.8026C21.7318 49.9067 19.1909 44.0054 19.1909 39.2256C19.1909 28.9985 26.6265 19.5991 40.6685 19.5991C51.9288 19.5991 60.7018 27.6099 60.7018 38.3444C60.7018 49.5329 53.6406 58.5317 43.8513 58.5317C40.5615 58.5317 37.4589 56.8228 36.4158 54.7934C36.4158 54.7934 34.7842 60.9884 34.383 62.5105C33.6608 65.341 31.6816 68.8657 30.3442 71.0287C33.3934 71.9632 36.603 72.4706 39.9731 72.4706C57.9201 72.4706 72.4703 57.9443 72.4703 40.0267C72.5238 22.0557 57.9736 7.52942 40.0266 7.52942Z" fill="#ffffff"/>
</g>
<defs>
<filter id="filter0_i" x="0" y="-1" width="80" height="81" filterUnits="userSpaceOnUse" color-interpolation-filters="sRGB">
<feFlood flood-opacity="0" result="BackgroundImageFix"/>
<feBlend mode="normal" in="SourceGraphic" in2="BackgroundImageFix" result="shape"/>
<feColorMatrix in="SourceAlpha" type="matrix" values="0 0 0 0 0 0 0 0 0 0 0 0 0 0 0 0 0 0 127 0" result="hardAlpha"/>
<feOffset dy="-1"/>
<feGaussianBlur stdDeviation="0.5"/>
<feComposite in2="hardAlpha" operator="arithmetic" k2="-1" k3="1"/>
<feColorMatrix type="matrix" values="0 0 0 0 0 0 0 0 0 0 0 0 0 0 0 0 0 0 0.12 0"/>
<feBlend mode="normal" in2="shape" result="effect1_innerShadow"/>
</filter>
</defs>
</svg>
