<svg width="80" height="80" viewBox="0 0 80 80" fill="none" xmlns="http://www.w3.org/2000/svg">
<g filter="url(#filter0_i)">
<path d="M18.0952 0H61.9048C71.9048 0 80 8.09524 80 18.0952V61.9048C80 71.9048 71.9048 80 61.9048 80H18.0952C8.09524 80 0 71.9048 0 61.9048V18.0952C0 8.09524 8.09524 0 18.0952 0Z" fill="url(#paint0_linear)"/>
<path d="M40.1266 18.2883C29.6822 18.2883 21.2109 26.7596 21.2109 37.2039C21.2109 43.6757 24.4732 49.4109 29.4454 52.831C29.4454 52.831 29.7085 53.0678 29.8927 52.831V48.4639C26.762 45.6752 24.7889 41.5974 24.7889 37.0724C24.7889 28.6274 31.629 21.7873 40.0739 21.7873C48.5189 21.7873 55.359 28.6274 55.359 37.0724C55.359 41.65 53.3333 45.7541 50.15 48.5691L50.1763 52.831C50.2815 52.9363 50.8077 52.8573 50.8077 52.8573C55.78 49.4373 59.0422 43.7284 59.0422 37.2302C59.0422 26.7596 50.5709 18.2883 40.1266 18.2883Z" fill="white"/>
<path d="M40.4169 9.00149C25.0529 8.84364 12.2671 21.2611 12.004 36.6251C11.7936 49.2268 19.8439 59.9605 31.1038 63.7752C31.1564 63.8015 31.2354 63.7489 31.2354 63.67L30.7092 59.8553C30.7092 59.8027 30.6566 59.7501 30.604 59.7238C21.7644 56.0143 15.582 47.28 15.5556 37.0987C15.5556 23.7341 26.3946 12.7373 39.7592 12.5268C53.4658 12.3426 64.6468 23.3921 64.6468 37.0724C64.6468 47.3063 58.3591 56.1195 49.467 59.8027C49.388 59.829 49.3354 59.9079 49.3091 60.0132L48.9934 63.6437C48.9934 63.7226 49.046 63.7752 49.125 63.7489C60.227 59.9869 68.251 49.4899 68.251 37.0987C68.2774 21.6821 55.8336 9.15934 40.4169 9.00149Z" fill="white"/>
<path d="M40.1267 41.4659C43.8027 41.4659 46.7827 38.4859 46.7827 34.8099C46.7827 31.1339 43.8027 28.1539 40.1267 28.1539C36.4507 28.1539 33.4707 31.1339 33.4707 34.8099C33.4707 38.4859 36.4507 41.4659 40.1267 41.4659Z" fill="white"/>
<path d="M33.4719 47.4379C35.866 42.1499 46.363 43.4127 46.9681 48.0429C47.6784 53.3046 45.3106 67.1164 44.4162 68.7738C42.7587 71.773 37.6286 71.2468 35.866 69.0369C34.8926 67.8267 31.7882 51.1736 33.4719 47.4379Z" fill="white"/>
</g>
<defs>
<filter id="filter0_i" x="0" y="-1" width="80" height="81" filterUnits="userSpaceOnUse" color-interpolation-filters="sRGB">
<feFlood flood-opacity="0" result="BackgroundImageFix"/>
<feBlend mode="normal" in="SourceGraphic" in2="BackgroundImageFix" result="shape"/>
<feColorMatrix in="SourceAlpha" type="matrix" values="0 0 0 0 0 0 0 0 0 0 0 0 0 0 0 0 0 0 127 0" result="hardAlpha"/>
<feOffset dy="-1"/>
<feGaussianBlur stdDeviation="0.5"/>
<feComposite in2="hardAlpha" operator="arithmetic" k2="-1" k3="1"/>
<feColorMatrix type="matrix" values="0 0 0 0 0 0 0 0 0 0 0 0 0 0 0 0 0 0 0.12 0"/>
<feBlend mode="normal" in2="shape" result="effect1_innerShadow"/>
</filter>
<linearGradient id="paint0_linear" x1="40" y1="0" x2="40" y2="80" gradientUnits="userSpaceOnUse">
<stop stop-color="#D66EFC"/>
<stop offset="1" stop-color="#842BC1"/>
</linearGradient>
</defs>
</svg>
