<svg width="20" height="20" viewBox="0 0 20 20" fill="none" xmlns="http://www.w3.org/2000/svg">
    <path d="M6.73242 17.7695C6.9375 17.7695 7.12793 17.7183 7.30371 17.6157C7.48438 17.5132 7.70166 17.3521 7.95557 17.1323L10.3213 15.0449H14.4009C15.0991 15.0449 15.6924 14.9155 16.1807 14.6567C16.6738 14.3931 17.0474 14.0171 17.3013 13.5288C17.5601 13.0356 17.6895 12.4448 17.6895 11.7563V6.35107C17.6895 5.6626 17.5601 5.07422 17.3013 4.58594C17.0474 4.09766 16.6738 3.72168 16.1807 3.45801C15.6924 3.19434 15.0991 3.0625 14.4009 3.0625H5.59717C4.90381 3.0625 4.31055 3.19434 3.81738 3.45801C3.3291 3.7168 2.95557 4.09277 2.69678 4.58594C2.43799 5.07422 2.30859 5.6626 2.30859 6.35107V11.7563C2.30859 12.4448 2.44043 13.0356 2.7041 13.5288C2.96777 14.022 3.33887 14.3979 3.81738 14.6567C4.30078 14.9155 4.87207 15.0449 5.53125 15.0449H5.80225V16.7148C5.80225 17.0371 5.88281 17.2935 6.04395 17.4839C6.20508 17.6743 6.43457 17.7695 6.73242 17.7695ZM7.09131 16.1289V14.166C7.09131 13.9561 7.04248 13.8071 6.94482 13.7192C6.85205 13.6265 6.70557 13.5801 6.50537 13.5801H5.65576C5.021 13.5801 4.5498 13.4214 4.24219 13.104C3.93457 12.7866 3.78076 12.3179 3.78076 11.6978V6.40967C3.78076 5.78955 3.93457 5.3208 4.24219 5.00342C4.5498 4.68604 5.021 4.52734 5.65576 4.52734H14.3423C14.9771 4.52734 15.4482 4.68604 15.7559 5.00342C16.0684 5.3208 16.2246 5.78955 16.2246 6.40967V11.6978C16.2246 12.3179 16.0684 12.7866 15.7559 13.104C15.4482 13.4214 14.9771 13.5801 14.3423 13.5801H10.2334C10.0137 13.5801 9.83789 13.6069 9.70605 13.6606C9.5791 13.7095 9.4375 13.812 9.28125 13.9683L7.09131 16.1289ZM9.99902 10.167C10.4092 10.167 10.6216 9.95459 10.6362 9.52979L10.7461 6.29248C10.7559 6.07764 10.6875 5.90186 10.541 5.76514C10.3945 5.62842 10.2114 5.56006 9.9917 5.56006C9.77197 5.56006 9.59131 5.62842 9.44971 5.76514C9.30811 5.89697 9.24219 6.07031 9.25195 6.28516L9.34717 9.53711C9.36182 9.95703 9.5791 10.167 9.99902 10.167ZM9.99902 12.4814C10.2334 12.4814 10.4312 12.4106 10.5923 12.269C10.7583 12.1226 10.8413 11.9346 10.8413 11.7051C10.8413 11.4805 10.7583 11.2949 10.5923 11.1484C10.4312 11.002 10.2334 10.9287 9.99902 10.9287C9.76465 10.9287 9.56689 11.002 9.40576 11.1484C9.24463 11.2949 9.16406 11.4805 9.16406 11.7051C9.16406 11.9297 9.24463 12.1152 9.40576 12.2617C9.57178 12.4082 9.76953 12.4814 9.99902 12.4814Z" fill="#828282"></path>
    </svg>