<svg width="81" height="80" viewBox="0 0 81 80" fill="none" xmlns="http://www.w3.org/2000/svg">
<g clip-path="url(#clip0)" filter="url(#filter0_i)">
<path d="M18.3296 0H62.1391C72.1391 0 80.2344 8.09524 80.2344 18.0952V61.9048C80.2344 71.9048 72.1391 80 62.1391 80H18.3296C8.32961 80 0.234375 71.9048 0.234375 61.9048V18.0952C0.234375 8.09524 8.32961 0 18.3296 0Z"/>
<path d="M18.3296 0.5H62.1391C71.863 0.5 79.7344 8.37138 79.7344 18.0952V61.9048C79.7344 71.6286 71.863 79.5 62.1391 79.5H18.3296C8.60575 79.5 0.734375 71.6286 0.734375 61.9048V18.0952C0.734375 8.37138 8.60575 0.5 18.3296 0.5Z" stroke="black" stroke-opacity="0.05"/>
<g clip-path="url(#clip1)">
<path d="M65.8221 40.4904C65.8221 38.3426 65.6478 36.7752 65.2706 35.1498H40.7441V44.8442H55.1406C54.8505 47.2533 53.2831 50.8815 49.8 53.3195L49.7512 53.6441L57.506 59.6516L58.0432 59.7053C62.9775 55.1482 65.8221 48.4433 65.8221 40.4904Z" fill="#ffffff"/>
<path d="M40.7447 66.0328C47.7977 66.0328 53.7189 63.7106 58.0438 59.7053L49.8005 53.3195C47.5946 54.8579 44.634 55.9318 40.7447 55.9318C33.8367 55.9318 27.9736 51.375 25.8836 45.0765L25.5772 45.1025L17.5137 51.343L17.4082 51.6361C21.7039 60.1695 30.5277 66.0328 40.7447 66.0328Z" fill="#ffffff"/>
<path d="M25.8828 45.0765C25.3314 43.4511 25.0122 41.7094 25.0122 39.9099C25.0122 38.1102 25.3314 36.3688 25.8538 34.7434L25.8392 34.3972L17.6746 28.0565L17.4075 28.1836C15.637 31.7247 14.6211 35.7013 14.6211 39.9099C14.6211 44.1186 15.637 48.0949 17.4075 51.6361L25.8828 45.0765Z" fill="#ffffff"/>
<path d="M40.7447 23.8879C45.6499 23.8879 48.9587 26.0067 50.8454 27.7774L58.2179 20.579C53.69 16.3704 47.7977 13.7871 40.7447 13.7871C30.5277 13.7871 21.7039 19.6502 17.4082 28.1836L25.8546 34.7434C27.9736 28.4449 33.8367 23.8879 40.7447 23.8879Z" fill="#ffffff"/>
</g>
</g>
<defs>
<filter id="filter0_i" x="0.234375" y="-1" width="80" height="81" filterUnits="userSpaceOnUse" color-interpolation-filters="sRGB">
<feFlood flood-opacity="0" result="BackgroundImageFix"/>
<feBlend mode="normal" in="SourceGraphic" in2="BackgroundImageFix" result="shape"/>
<feColorMatrix in="SourceAlpha" type="matrix" values="0 0 0 0 0 0 0 0 0 0 0 0 0 0 0 0 0 0 127 0" result="hardAlpha"/>
<feOffset dy="-1"/>
<feGaussianBlur stdDeviation="0.5"/>
<feComposite in2="hardAlpha" operator="arithmetic" k2="-1" k3="1"/>
<feColorMatrix type="matrix" values="0 0 0 0 0 0 0 0 0 0 0 0 0 0 0 0 0 0 0.12 0"/>
<feBlend mode="normal" in2="shape" result="effect1_innerShadow"/>
</filter>
<clipPath id="clip0">
<rect width="80" height="80" fill="white" transform="translate(0.234375)"/>
</clipPath>
<clipPath id="clip1">
<rect width="51.2305" height="52.4258" fill="white" transform="translate(14.6191 13.7871)"/>
</clipPath>
</defs>
</svg>
