<?xml version="1.0" encoding="UTF-8" standalone="no" ?>
<!DOCTYPE svg PUBLIC "-//W3C//DTD SVG 1.1//EN" "http://www.w3.org/Graphics/SVG/1.1/DTD/svg11.dtd">
<svg xmlns="http://www.w3.org/2000/svg" xmlns:xlink="http://www.w3.org/1999/xlink" version="1.1" width="1080" height="1080" viewBox="0 0 1080 1080" xml:space="preserve">
<desc>Created with Fabric.js 5.2.4</desc>
<defs>
</defs>
<g transform="matrix(1 0 0 1 540 540)" id="1ed3483f-166b-4985-a224-a4a8afd91313"  >
<rect style="stroke: none; stroke-width: 1; stroke-dasharray: none; stroke-linecap: butt; stroke-dashoffset: 0; stroke-linejoin: miter; stroke-miterlimit: 4; fill: rgb(255,255,255); fill-rule: nonzero; opacity: 1; visibility: hidden;" vector-effect="non-scaling-stroke"  x="-540" y="-540" rx="0" ry="0" width="1080" height="1080" />
</g>
<g transform="matrix(1 0 0 1 540 540)" id="d5f11384-c15e-4fd0-b7c8-05dd59635a82"  >
</g>
<g transform="matrix(7.92 0 0 8.08 540 540)" id="088d14d8-7f02-4731-b11d-5e0e8ddf70f6"  >
<path style="stroke: rgb(0,0,0); stroke-width: 0; stroke-dasharray: none; stroke-linecap: butt; stroke-dashoffset: 0; stroke-linejoin: miter; stroke-miterlimit: 4; fill: rgb(255,255,255); fill-rule: nonzero; opacity: 1;" vector-effect="non-scaling-stroke"  transform=" translate(-49.09, -61.44)" d="M 27.23 65.62 C 27.559155668143077 65.28405690296024 28.009679664144343 65.0947448713916 28.48 65.0947448713916 C 28.950320335855658 65.0947448713916 29.400844331856923 65.28405690296024 29.73 65.62 C 30.42261733769036 66.32112420987407 30.42261733769036 67.44887579012594 29.73 68.15 L 26.73 71.21000000000001 L 29.73 74.27000000000001 C 30.423117361037647 74.96311736103766 30.423117361037647 76.08688263896236 29.730000000000004 76.78000000000002 C 29.036882638962357 77.47311736103767 27.913117361037646 77.47311736103767 27.22 76.78000000000002 L 24.22 73.78000000000002 L 21.22 76.78000000000002 C 20.890844331856922 77.11594309703978 20.440320335855656 77.30525512860842 19.97 77.30525512860842 C 19.49967966414434 77.30525512860842 19.049155668143076 77.11594309703978 18.72 76.78000000000002 C 18.03274121121372 76.0766838532568 18.03274121121372 74.95331614674323 18.72 74.25000000000001 L 21.72 71.19000000000001 L 18.72 68.13000000000001 C 18.029719448568247 67.43570999857783 18.029719448568247 66.31429000142218 18.72 65.62 C 19.04706450783697 65.28775231073777 19.493781468293317 65.10065556157338 19.96 65.10065556157338 C 20.42621853170668 65.10065556157338 20.872935492163027 65.28775231073777 21.2 65.62 L 24.2 68.62 L 27.2 65.62 Z M 25.85 22 C 23.730122642331477 21.95700451308719 22.026540022819095 20.240147223812375 22 18.12 L 22 16.81 L 5.71 16.81 C 5.386938568559232 16.825493418357823 5.130062009833631 17.086723817061824 5.12 17.41 L 5.12 117.11999999999999 C 5.12534995114897 117.44360607632801 5.3863939236719816 117.70465004885102 5.71 117.71 L 92.47 117.71 C 92.79360607632802 117.70465004885102 93.05465004885103 117.44360607632801 93.06 117.11999999999999 L 93.06 17.41 C 93.04488632123362 17.09062165197487 92.78937834802512 16.835113678766383 92.47 16.82 L 76.53 16.82 L 76.53 18.13 C 76.49768147378663 20.25769530013197 74.77777161771569 21.973172398841907 72.65 22 Z M 5.75 122.88 C 2.576645536111557 122.87449546986834 0.005504530131660523 120.30335446388844 -8.881784197001252e-16 117.13 L 0 17.41 C 0.005504530131660473 14.236645536111556 2.576645536111555 11.665504530131663 5.749999999999997 11.66 L 22 11.66 L 22 10.44 C 22.010978989748622 8.292276315806054 23.75225520682108 6.555464909546606 25.9 6.55 L 32.82 6.55 L 32.82 4.3 C 32.85214530527564 1.9424994111919576 34.75258064455399 0.037634152707834545 37.11 8.881784197001252e-16 L 61.11 0 C 63.46911857377616 0.03749589595797631 65.37250410404202 1.9408814262238407 65.41 4.3 L 65.41 6.56 L 72.6 6.56 C 74.74384059054081 6.570938175384407 76.47906182461558 8.306159409459177 76.49 10.449999999999996 L 76.49 11.67 L 92.43 11.67 C 95.60335446388845 11.675504530131661 98.17449546986835 14.24664553611156 98.18 17.42 L 98.18 117.13 C 98.17449546986835 120.30335446388844 95.60335446388845 122.87449546986834 92.43 122.88 Z M 78.19 99.05 C 79.62594034956007 99.05 80.78999999999999 97.88594034956006 80.78999999999999 96.44999999999999 C 80.78999999999999 95.01405965043993 79.62594034956007 93.85 78.19 93.85 L 43.57 93.85 C 42.13405965043994 93.85 40.97 95.01405965043993 40.97 96.44999999999999 C 40.97 97.88594034956006 42.13405965043994 99.05 43.57 99.05 L 78.19 99.05 Z M 78.19 49.05 C 79.62594034956007 49.05 80.78999999999999 47.88594034956006 80.78999999999999 46.449999999999996 C 80.78999999999999 45.01405965043993 79.62594034956007 43.849999999999994 78.19 43.849999999999994 L 43.57 43.849999999999994 C 42.13405965043994 43.849999999999994 40.97 45.01405965043993 40.97 46.449999999999996 C 40.97 47.88594034956006 42.13405965043994 49.05 43.57 49.05 Z M 78.19 73.69 C 79.62594034956007 73.69 80.78999999999999 72.52594034956006 80.78999999999999 71.09 C 80.78999999999999 69.65405965043993 79.62594034956007 68.49 78.19 68.49 L 43.57 68.49 C 42.13405965043994 68.49 40.97 69.65405965043993 40.97 71.09 C 40.97 72.52594034956006 42.13405965043994 73.69 43.57 73.69 Z M 18.83 96.31 C 18.120314096467432 95.24961328032488 18.404613280324877 93.81468590353258 19.465000000000003 93.105 C 20.525386719675126 92.39531409646744 21.96031409646743 92.67961328032489 22.669999999999998 93.74000000000001 L 23.93 95.61000000000001 L 28.93 89.54000000000002 C 29.73633573475296 88.5569331453012 31.18693314530119 88.41366426524706 32.17 89.22000000000001 C 33.153066854698814 90.02633573475298 33.29633573475296 91.4769331453012 32.49 92.46000000000002 L 25.590000000000003 100.86000000000003 C 25.434236404493582 101.06034790537191 25.24876071441522 101.23570673962782 25.040000000000003 101.38000000000002 C 23.9819266720578 102.08745156702126 22.550947442961608 101.80572753129296 21.840000000000003 100.75000000000003 L 18.840000000000003 96.31000000000003 Z M 19.459999999999997 45.74 C 20.52119266009095 45.031566417141896 21.955289463337518 45.31302466824636 22.669999999999998 46.370000000000005 L 23.93 48.24 L 28.93 42.17 C 29.73633573475296 41.18693314530119 31.18693314530119 41.043664265247045 32.17 41.85 C 33.153066854698814 42.65633573475296 33.29633573475296 44.10693314530119 32.49 45.09 L 25.590000000000003 53.49 C 25.421341482837327 53.68993408194009 25.22223327856274 53.86204456360117 25 54 C 23.941926672057797 54.70745156702124 22.5109474429616 54.42572753129293 21.8 53.37 L 18.8 48.93 L 18.8 48.93 C 18.092548432978756 47.871926672057796 18.37427246870707 46.4409474429616 19.43 45.73 Z" stroke-linecap="round" />
</g>
</svg>