<svg width="80" height="80" viewBox="0 0 80 80" fill="none" xmlns="http://www.w3.org/2000/svg">
<g filter="url(#filter0_i)">
<path d="M18.0952 0H61.9048C71.9048 0 80 8.09524 80 18.0952V61.9048C80 71.9048 71.9048 80 61.9048 80H18.0952C8.09524 80 0 71.9048 0 61.9048V18.0952C0 8.09524 8.09524 0 18.0952 0Z" fill="#FFFC00"/>
<path d="M66.9742 53.714C66.7385 52.9337 65.6101 52.3836 65.6101 52.3836C65.5035 52.3275 65.4081 52.2769 65.3295 52.2376C63.4489 51.3283 61.7817 50.2336 60.3783 48.993C59.25 47.9938 58.2845 46.8936 57.5098 45.726C56.5612 44.3001 56.1177 43.1101 55.9268 42.4645C55.8202 42.0435 55.837 41.8751 55.9268 41.6562C55.9998 41.4709 56.2187 41.2969 56.3198 41.2127C56.9541 40.7636 57.9758 40.1012 58.6045 39.6971C59.149 39.3434 59.6149 39.0403 59.89 38.8494C60.7713 38.2319 61.3776 37.6032 61.7312 36.924C62.1915 36.0483 62.2477 35.0827 61.8884 34.1341C61.4056 32.8542 60.2099 32.0907 58.6887 32.0907C58.3519 32.0907 58.0038 32.13 57.6558 32.203C56.7857 32.3939 55.9605 32.7026 55.2701 32.9721C55.2195 32.9945 55.1634 32.9552 55.169 32.8991C55.242 31.187 55.3262 28.8854 55.1353 26.7018C54.9669 24.7258 54.5571 23.0586 53.8947 21.6047C53.2267 20.1452 52.3566 19.0674 51.6774 18.2871C51.0318 17.5461 49.8923 16.4515 48.1746 15.4691C45.7608 14.0882 43.0101 13.3865 40.0013 13.3865C36.9981 13.3865 34.253 14.0882 31.8336 15.4691C30.0148 16.5076 28.8528 17.6808 28.3252 18.2871C27.6459 19.0674 26.7758 20.1452 26.1078 21.6047C25.4398 23.0586 25.0357 24.7202 24.8672 26.7018C24.6764 28.8966 24.755 31.0129 24.8336 32.8991C24.8336 32.9552 24.783 32.9945 24.7269 32.9721C24.0364 32.7026 23.2113 32.3939 22.3412 32.203C21.9987 32.13 21.6507 32.0907 21.3083 32.0907C19.7926 32.0907 18.597 32.8542 18.1086 34.1341C17.7493 35.0827 17.8054 36.0483 18.2658 36.924C18.625 37.6032 19.2257 38.2319 20.107 38.8494C20.3764 39.0403 20.848 39.3434 21.3925 39.6971C22.0044 40.0956 22.9979 40.7412 23.6379 41.1846C23.7165 41.2408 23.9859 41.4429 24.0701 41.6562C24.1599 41.8807 24.1768 42.0491 24.0589 42.4982C23.8624 43.1494 23.419 44.3282 22.4871 45.726C21.7125 46.8992 20.7469 47.9938 19.6186 48.993C18.2152 50.2336 16.548 51.3283 14.6675 52.2376C14.5777 52.2826 14.471 52.3331 14.3587 52.4004C14.3587 52.4004 13.236 52.973 13.0227 53.714C12.7084 54.8086 13.5448 55.8359 14.3924 56.386C15.7846 57.2842 17.4799 57.767 18.4622 58.0308C18.7373 58.1038 18.9843 58.1711 19.2088 58.2385C19.3492 58.2834 19.7028 58.4181 19.8544 58.6146C20.0452 58.8616 20.0677 59.1647 20.1351 59.5071C20.2417 60.0853 20.4831 60.7983 21.196 61.2922C21.9819 61.8311 22.9755 61.8704 24.2385 61.921C25.5577 61.9715 27.1969 62.0332 29.0774 62.6563C29.9475 62.9426 30.739 63.431 31.6484 63.9923C33.557 65.1656 35.9315 66.6251 39.9844 66.6251C44.043 66.6251 46.4344 65.16 48.3542 63.9811C49.2636 63.4254 50.0439 62.9426 50.8971 62.6619C52.7776 62.0388 54.4168 61.9771 55.736 61.9266C56.999 61.876 57.9926 61.8424 58.7785 61.2979C59.5419 60.7702 59.7609 59.9843 59.8619 59.3949C59.918 59.103 59.9517 58.8391 60.1201 58.6258C60.2661 58.4406 60.5917 58.3115 60.7432 58.2609C60.9734 58.188 61.2316 58.1206 61.5179 58.042C62.5003 57.7782 63.7352 57.4694 65.234 56.6218C67.0416 55.5945 67.1651 54.3371 66.9742 53.714Z" fill="white"/>
<path d="M68.5343 53.1075C68.1358 52.0185 67.3723 51.4403 66.5079 50.9575C66.3451 50.8621 66.1935 50.7835 66.07 50.7274C65.8118 50.5926 65.548 50.4635 65.2841 50.3288C62.584 48.8974 60.4733 47.0898 59.0138 44.9511C58.5198 44.2269 58.1774 43.5758 57.936 43.0425C57.8125 42.6832 57.8181 42.4811 57.908 42.2959C57.9753 42.1555 58.1549 42.0096 58.256 41.9366C58.7219 41.6279 59.1991 41.3191 59.5246 41.1114C60.1028 40.7353 60.5631 40.4378 60.8551 40.2357C61.9665 39.461 62.7412 38.6359 63.224 37.7152C63.9088 36.4185 63.993 34.9366 63.4653 33.5444C62.7356 31.6133 60.9056 30.4121 58.6938 30.4121C58.2335 30.4121 57.7676 30.4626 57.3073 30.5636C57.1838 30.5917 57.0659 30.6198 56.948 30.6478C56.9705 29.3343 56.9368 27.9309 56.8189 26.5612C56.4035 21.7336 54.7139 19.2019 52.9512 17.1866C52.2159 16.3446 50.936 15.1152 49.0161 14.015C46.3385 12.4769 43.3072 11.7022 40.0008 11.7022C36.7057 11.7022 33.6744 12.4769 30.9968 14.0094C29.0657 15.1096 27.7858 16.3446 27.0561 17.181C25.2934 19.1963 23.6038 21.7279 23.1884 26.5556C23.0705 27.9253 23.0424 29.3286 23.0592 30.6422C22.9414 30.6141 22.8179 30.5861 22.7 30.558C22.2397 30.457 21.7681 30.4064 21.3134 30.4064C19.1017 30.4064 17.2717 31.6077 16.5419 33.5388C16.0143 34.9309 16.0985 36.4129 16.7833 37.7096C17.2661 38.6302 18.0464 39.4554 19.1522 40.2301C19.4498 40.4378 19.9044 40.7353 20.4826 41.1058C20.797 41.3079 21.2517 41.6054 21.7008 41.9029C21.7681 41.9478 22.0095 42.1275 22.0937 42.2959C22.1891 42.4867 22.1891 42.6944 22.0488 43.0761C21.813 43.5982 21.4706 44.2381 20.9879 44.9454C19.5564 47.0393 17.5075 48.8132 14.8972 50.2278C13.5106 50.9631 12.0736 51.4515 11.4673 53.1019C11.007 54.3481 11.3102 55.7683 12.4721 56.964C12.8539 57.3738 13.3366 57.7387 13.9429 58.0755C15.3687 58.8614 16.5812 59.2487 17.5355 59.5125C17.7039 59.563 18.0913 59.6865 18.2597 59.8381C18.6863 60.2086 18.6246 60.77 19.1915 61.5895C19.534 62.1004 19.9269 62.4484 20.2525 62.6729C21.4369 63.4925 22.773 63.543 24.1876 63.5992C25.4618 63.6497 26.9101 63.7058 28.5605 64.2503C29.2453 64.4749 29.9583 64.9127 30.7778 65.4179C32.7538 66.6361 35.4651 68.2977 39.9952 68.2977C44.5309 68.2977 47.2535 66.6248 49.2463 65.4067C50.0659 64.9071 50.7732 64.4693 51.4356 64.2503C53.0859 63.7058 54.5342 63.6497 55.8085 63.5992C57.2231 63.543 58.5535 63.4925 59.7436 62.6729C60.1141 62.4147 60.5856 61.9937 60.9561 61.3538C61.3603 60.6633 61.3547 60.1749 61.7364 59.8437C61.8936 59.709 62.236 59.5911 62.4212 59.535C63.3811 59.2711 64.6105 58.8838 66.0644 58.0811C66.7099 57.7274 67.2096 57.3401 67.6081 56.8966C67.6137 56.891 67.6193 56.8854 67.625 56.8798C68.7084 55.7009 68.9834 54.3256 68.5343 53.1075ZM64.5094 55.2687C62.0507 56.6272 60.4172 56.4812 59.1485 57.2952C58.0707 57.9913 58.7051 59.4901 57.9248 60.029C56.9593 60.697 54.1132 59.9841 50.4364 61.1966C47.4051 62.2014 45.4684 65.0811 40.0064 65.0811C34.5333 65.0811 32.6527 62.2126 29.5765 61.1966C25.8997 59.9841 23.048 60.697 22.0881 60.029C21.3078 59.4901 21.9422 57.9913 20.8644 57.2952C19.5957 56.4756 17.9622 56.6216 15.5034 55.2687C13.9373 54.4042 14.8242 53.8709 15.3463 53.6183C24.2493 49.3128 25.6639 42.6551 25.7313 42.1555C25.8099 41.5605 25.8941 41.089 25.2373 40.4771C24.603 39.8877 21.7794 38.1419 20.9991 37.5974C19.7024 36.6936 19.1354 35.7898 19.5564 34.6783C19.8483 33.9093 20.5668 33.623 21.3247 33.623C21.5604 33.623 21.8018 33.6511 22.032 33.7016C23.4522 34.0103 24.8331 34.7232 25.6302 34.9141C25.7425 34.9422 25.8379 34.9534 25.9221 34.9534C26.3488 34.9534 26.4947 34.7401 26.4666 34.2517C26.3768 32.6968 26.1523 29.6655 26.3993 26.8306C26.7361 22.9349 27.9935 21.0038 29.4867 19.2917C30.2052 18.4721 33.5734 14.9131 40.0121 14.9131C46.4676 14.9131 49.8189 18.4721 50.5374 19.2917C52.0306 20.9982 53.288 22.9292 53.6248 26.8306C53.8718 29.6655 53.6585 32.6968 53.5575 34.2517C53.5238 34.7625 53.681 34.9534 54.102 34.9534C54.1862 34.9534 54.2872 34.9422 54.3939 34.9141C55.191 34.7232 56.5719 34.0103 57.9922 33.7016C58.2223 33.6511 58.4637 33.623 58.6995 33.623C59.4573 33.623 60.1758 33.9149 60.4677 34.6783C60.8887 35.7898 60.3162 36.6936 59.025 37.5974C58.2448 38.1419 55.4212 39.8877 54.7868 40.4771C54.1301 41.0834 54.2143 41.5549 54.2929 42.1555C54.3546 42.6551 55.7748 49.3128 64.6779 53.6183C65.1831 53.8709 66.0756 54.4042 64.5094 55.2687Z" fill="black"/>
</g>
<defs>
<filter id="filter0_i" x="0" y="-1" width="80" height="81" filterUnits="userSpaceOnUse" color-interpolation-filters="sRGB">
<feFlood flood-opacity="0" result="BackgroundImageFix"/>
<feBlend mode="normal" in="SourceGraphic" in2="BackgroundImageFix" result="shape"/>
<feColorMatrix in="SourceAlpha" type="matrix" values="0 0 0 0 0 0 0 0 0 0 0 0 0 0 0 0 0 0 127 0" result="hardAlpha"/>
<feOffset dy="-1"/>
<feGaussianBlur stdDeviation="0.5"/>
<feComposite in2="hardAlpha" operator="arithmetic" k2="-1" k3="1"/>
<feColorMatrix type="matrix" values="0 0 0 0 0 0 0 0 0 0 0 0 0 0 0 0 0 0 0.12 0"/>
<feBlend mode="normal" in2="shape" result="effect1_innerShadow"/>
</filter>
</defs>
</svg>
