<svg width="80" height="80" viewBox="0 0 80 80" fill="none" xmlns="http://www.w3.org/2000/svg">
<g filter="url(#filter0_i)">
<path d="M18.0952 0H61.9048C71.9048 0 80 8.09524 80 18.0952V61.9048C80 71.9048 71.9048 80 61.9048 80H18.0952C8.09524 80 0 71.9048 0 61.9048V18.0952C0 8.09524 8.09524 0 18.0952 0Z"/>
<path d="M8.47187 42.1701C8.34429 42.1701 8.2167 42.2657 8.2167 42.425L7.73828 45.9938L8.2167 49.4988C8.2486 49.6581 8.34429 49.7537 8.47187 49.7537C8.59945 49.7537 8.69513 49.6581 8.72703 49.4988L9.30114 45.9938L8.72703 42.425C8.72703 42.2976 8.59945 42.1701 8.47187 42.1701ZM11.1191 40.2264C11.0872 40.0671 10.9916 39.9715 10.864 39.9715C10.7364 39.9715 10.6088 40.0671 10.6088 40.2264L9.97092 46.0257L10.6088 51.6974C10.6407 51.8567 10.7364 51.9523 10.864 51.9523C10.9916 51.9523 11.1191 51.8567 11.1191 51.6974L11.8527 46.0257L11.1191 40.2264ZM21.1341 34.8733C20.879 34.8733 20.6557 35.0964 20.6557 35.3513L20.1454 45.9938L20.6557 52.8764C20.6557 53.1313 20.879 53.3543 21.1341 53.3543C21.3893 53.3543 21.6126 53.1313 21.6126 52.8764L22.1867 45.9938L21.6126 35.3513C21.5807 35.0964 21.3893 34.8733 21.1341 34.8733ZM15.9353 38.5695C15.7439 38.5695 15.5844 38.7288 15.5525 38.9519L14.9784 45.9938L15.5525 52.8127C15.5525 53.0357 15.7439 53.195 15.9353 53.195C16.1266 53.195 16.2861 53.0357 16.318 52.8127L16.9559 45.9938L16.318 38.9519C16.318 38.7607 16.1585 38.5695 15.9353 38.5695ZM26.3649 53.3862C26.6839 53.3862 26.939 53.1313 26.9709 52.7808L27.4812 46.0257L26.9709 31.8463C26.9709 31.5276 26.6839 31.2409 26.3649 31.2409C26.046 31.2409 25.7908 31.4958 25.7589 31.8463L25.3124 46.0257L25.7589 52.7808C25.7908 53.1313 26.046 53.3862 26.3649 53.3862ZM37.1454 53.4181C37.5919 53.4181 37.9428 53.0676 37.9747 52.5896L38.3255 46.0257L37.9747 29.6477C37.9747 29.2016 37.5919 28.8192 37.1454 28.8192C36.6989 28.8192 36.348 29.1697 36.3161 29.6477L35.9972 46.0257L36.3161 52.6215C36.3161 53.0357 36.6989 53.4181 37.1454 53.4181ZM31.7233 53.3862C32.106 53.3862 32.4249 53.0676 32.4249 52.6852L32.8396 46.0257L32.4249 31.7507C32.4249 31.3683 32.106 31.0497 31.7233 31.0497C31.3405 31.0497 31.0216 31.3683 31.0216 31.7507L30.6388 46.0257L31.0216 52.6852C31.0216 53.0676 31.3405 53.3862 31.7233 53.3862ZM18.5188 53.3225C18.742 53.3225 18.9334 53.1313 18.9653 52.9082L19.5713 46.0257L18.9653 39.4617C18.9334 39.2068 18.7739 39.0475 18.5188 39.0475C18.2955 39.0475 18.1041 39.2387 18.0722 39.4617L17.53 45.9938L18.0722 52.8764C18.1041 53.1313 18.2955 53.3225 18.5188 53.3225ZM13.3837 52.9401C13.5432 52.9401 13.7026 52.8126 13.7026 52.6215L14.3724 45.9938L13.7026 39.1112C13.6707 38.92 13.5432 38.7926 13.3837 38.7926C13.2242 38.7926 13.0647 38.92 13.0647 39.1112L12.4587 45.9938L13.0647 52.6215C13.0966 52.8126 13.2242 52.9401 13.3837 52.9401ZM34.4024 31.4958C33.9878 31.4958 33.6369 31.8144 33.6369 32.2605L33.2861 46.0257L33.6369 52.6533C33.6369 53.0676 33.9878 53.4181 34.4024 53.4181C34.8171 53.4181 35.1679 53.0994 35.1679 52.6533L35.5506 46.0257L35.1679 32.2605C35.1679 31.8463 34.8489 31.4958 34.4024 31.4958ZM23.7495 53.3862C24.0366 53.3862 24.2917 53.1632 24.2917 52.8445L24.834 45.9938L24.2917 32.8978C24.2917 32.611 24.0366 32.3561 23.7495 32.3561C23.4625 32.3561 23.2073 32.5791 23.2073 32.8978L22.7289 45.9938L23.2073 52.8445C23.2073 53.1632 23.4625 53.3862 23.7495 53.3862ZM29.682 52.7489L30.1285 46.0257L29.682 31.3683C29.682 31.0178 29.3949 30.731 29.0441 30.731C28.6932 30.731 28.4062 31.0178 28.4062 31.3683L27.9915 46.0257L28.4062 52.7489C28.4062 53.0994 28.6932 53.3862 29.0441 53.3862C29.3949 53.3862 29.682 53.0994 29.682 52.7489ZM64.3198 37.5818C63.2354 37.5818 62.1829 37.8048 61.2579 38.1872C60.62 31.0497 54.6238 25.4416 47.3199 25.4416C45.5337 25.4416 43.7795 25.7921 42.2486 26.3975C41.6426 26.6206 41.4831 26.8755 41.4831 27.3216V52.4621C41.4831 52.9401 41.8658 53.3543 42.3442 53.3862C42.3761 53.3862 64.1923 53.3862 64.3517 53.3862C68.7213 53.3862 72.2936 49.8493 72.2936 45.4521C72.2617 41.1186 68.6894 37.5818 64.3198 37.5818ZM39.8564 27.2897C39.378 27.2897 38.9953 27.6721 38.9953 28.1501L38.6444 45.9938L38.9953 52.4621C38.9953 52.9401 39.378 53.3225 39.8564 53.3225C40.3349 53.3225 40.7176 52.9401 40.7176 52.4621L41.1003 45.9938L40.7176 28.1501C40.7176 27.704 40.3349 27.2897 39.8564 27.2897Z" fill="white"/>
</g>
<defs>
<filter id="filter0_i" x="0" y="-1" width="80" height="81" filterUnits="userSpaceOnUse" color-interpolation-filters="sRGB">
<feFlood flood-opacity="0" result="BackgroundImageFix"/>
<feBlend mode="normal" in="SourceGraphic" in2="BackgroundImageFix" result="shape"/>
<feColorMatrix in="SourceAlpha" type="matrix" values="0 0 0 0 0 0 0 0 0 0 0 0 0 0 0 0 0 0 127 0" result="hardAlpha"/>
<feOffset dy="-1"/>
<feGaussianBlur stdDeviation="0.5"/>
<feComposite in2="hardAlpha" operator="arithmetic" k2="-1" k3="1"/>
<feColorMatrix type="matrix" values="0 0 0 0 0 0 0 0 0 0 0 0 0 0 0 0 0 0 0.12 0"/>
<feBlend mode="normal" in2="shape" result="effect1_innerShadow"/>
</filter>
<linearGradient id="paint0_linear" x1="40" y1="0" x2="40" y2="80" gradientUnits="userSpaceOnUse">
<stop stop-color="#FF9B01"/>
<stop offset="1" stop-color="#FF1F00"/>
</linearGradient>
</defs>
</svg>
