<svg width="80" height="80" viewBox="0 0 80 80" fill="none" xmlns="http://www.w3.org/2000/svg">
<g filter="url(#filter0_i)">
<path d="M18.0952 0H61.9048C71.9048 0 80 8.09524 80 18.0952V61.9048C80 71.9048 71.9048 80 61.9048 80H18.0952C8.09524 80 0 71.9048 0 61.9048V18.0952C0 8.09524 8.09524 0 18.0952 0Z" fill="#151418"/>
<path d="M39.9998 11C23.984 11 11 23.984 11 40.0002C11 56.0171 23.984 69 39.9998 69C56.0174 69 69 56.0171 69 40.0002C69 23.985 56.0174 11.0014 39.9995 11.0014L39.9998 11ZM53.299 52.8266C52.7795 53.6785 51.6644 53.9486 50.8126 53.4257C44.0037 49.2666 35.4322 48.3246 25.3377 50.631C24.3649 50.8526 23.3953 50.2431 23.1737 49.27C22.951 48.2969 23.5581 47.3273 24.5332 47.1056C35.5801 44.5807 45.0557 45.6685 52.6999 50.3401C53.5518 50.863 53.8219 51.9747 53.299 52.8266ZM56.8485 44.9291C56.194 45.994 54.8019 46.3299 53.7388 45.6754C45.9436 40.8829 34.0612 39.4953 24.8411 42.2941C23.6453 42.6553 22.3824 41.9814 22.0195 40.7877C21.6593 39.5919 22.3336 38.3313 23.5272 37.9677C34.0591 34.772 47.1522 36.32 56.104 41.821C57.1671 42.4756 57.503 43.8677 56.8485 44.9295V44.9291ZM57.1532 36.7065C47.8067 31.1549 32.3862 30.6444 23.4625 33.3529C22.0295 33.7875 20.5141 32.9785 20.0799 31.5455C19.6456 30.1118 20.4539 28.5974 21.8879 28.1618C32.1316 25.052 49.1607 25.6528 59.9215 32.0411C61.2132 32.8061 61.6357 34.4707 60.8704 35.7579C60.1085 37.0469 58.4394 37.4718 57.1546 36.7065H57.1532Z" fill="#1ED760"/>
</g>
<defs>
<filter id="filter0_i" x="0" y="-1" width="80" height="81" filterUnits="userSpaceOnUse" color-interpolation-filters="sRGB">
<feFlood flood-opacity="0" result="BackgroundImageFix"/>
<feBlend mode="normal" in="SourceGraphic" in2="BackgroundImageFix" result="shape"/>
<feColorMatrix in="SourceAlpha" type="matrix" values="0 0 0 0 0 0 0 0 0 0 0 0 0 0 0 0 0 0 127 0" result="hardAlpha"/>
<feOffset dy="-1"/>
<feGaussianBlur stdDeviation="0.5"/>
<feComposite in2="hardAlpha" operator="arithmetic" k2="-1" k3="1"/>
<feColorMatrix type="matrix" values="0 0 0 0 0 0 0 0 0 0 0 0 0 0 0 0 0 0 0.12 0"/>
<feBlend mode="normal" in2="shape" result="effect1_innerShadow"/>
</filter>
</defs>
</svg>
