<svg width="81" height="81" viewBox="0 0 81 81" fill="#ffffff" xmlns="http://www.w3.org/2000/svg">
<g clip-path="url(#clip0)" filter="url(#square)">
<path d="M18.8023 0.470581H62.6118C72.6118 0.470581 80.707 8.56582 80.707 18.5658V62.3753C80.707 72.3753 72.6118 80.4706 62.6118 80.4706H18.8023C8.80227 80.4706 0.707031 72.3753 0.707031 62.3753V18.5658C0.707031 8.56582 8.80227 0.470581 18.8023 0.470581Z" fill="#ffffff"/>
<path d="M18.8023 0.970581H62.6118C72.3356 0.970581 80.207 8.84196 80.207 18.5658V62.3753C80.207 72.0992 72.3356 79.9706 62.6118 79.9706H18.8023C9.07841 79.9706 1.20703 72.0992 1.20703 62.3753V18.5658C1.20703 8.84196 9.07841 0.970581 18.8023 0.970581Z" stroke="#ffffff" stroke-opacity="0.05"/>
<path fill-rule="evenodd" clip-rule="evenodd" d="M16.707 24.4706C16.707 20.0523 20.2888 16.4706 24.707 16.4706H56.707C61.1253 16.4706 64.707 20.0523 64.707 24.4706V56.4706C64.707 60.8889 61.1253 64.4706 56.707 64.4706H24.707C20.2888 64.4706 16.707 60.8889 16.707 56.4706V24.4706ZM25.707 27.4706C25.707 26.366 26.6025 25.4706 27.707 25.4706H53.707C54.8116 25.4706 55.707 26.366 55.707 27.4706V53.4706C55.707 54.5751 54.8116 55.4706 53.707 55.4706H27.707C26.6025 55.4706 25.707 54.5751 25.707 53.4706V27.4706ZM35.607 33.9706C34.8338 33.9706 34.207 34.5974 34.207 35.3706V45.5706C34.207 46.3438 34.8338 46.9706 35.607 46.9706H45.807C46.5802 46.9706 47.207 46.3438 47.207 45.5706V35.3706C47.207 34.5974 46.5802 33.9706 45.807 33.9706H35.607Z" fill="#000000"/>
</g>
<defs>
<filter id="square" x="0.707031" y="-0.529419" width="80" height="81" filterUnits="userSpaceOnUse" color-interpolation-filters="sRGB">
<feFlood flood-opacity="0" result="BackgroundImageFix"/>
<feBlend mode="normal" in="SourceGraphic" in2="BackgroundImageFix" result="shape"/>
<feColorMatrix in="SourceAlpha" type="matrix" values="0 0 0 0 0 0 0 0 0 0 0 0 0 0 0 0 0 0 127 0" result="hardAlpha"/>
<feOffset dy="-1"/>
<feGaussianBlur stdDeviation="0.5"/>
<feComposite in2="hardAlpha" operator="arithmetic" k2="-1" k3="1"/>
<feColorMatrix type="matrix" values="0 0 0 0 0 0 0 0 0 0 0 0 0 0 0 0 0 0 0.12 0"/>
<feBlend mode="normal" in2="shape" result="effect1_innerShadow"/>
</filter>
<clipPath id="clip0">
<rect width="80" height="80" fill="#ffffff" transform="translate(0.707031 0.470581)"/>
</clipPath>
</defs>
</svg>
