<svg width="54" height="54" viewBox="0 0 80 80" fill="none" xmlns="http://www.w3.org/2000/svg"><g filter="url(#filterm45)"><path d="M18.0952 0H61.9048C71.9048 0 80 8.09524 80 18.0952V61.9048C80 71.9048 71.9048 80 61.9048 80H18.0952C8.09524 80 0 71.9048 0 61.9048V18.0952C0 8.09524 8.09524 0 18.0952 0Z" fill="#f0f8ff00"></path><path d="M18.0952 0.5H61.9048C71.6286 0.5 79.5 8.37138 79.5 18.0952V61.9048C79.5 71.6286 71.6286 79.5 61.9048 79.5H18.0952C8.37138 79.5 0.5 71.6286 0.5 61.9048V18.0952C0.5 8.37138 8.37138 0.5 18.0952 0.5Z" stroke="black" stroke-opacity="0.05"></path><g clip-path="url(#clipm45)"><path d="M55.8721 16C60.2923 16 63.8737 19.5814 63.8726 24.0005V55.8721C63.8726 60.2912 60.2912 63.8726 55.8721 63.8726H24.0005C19.5825 63.8726 16 60.2912 16 55.8721V24.0005C16 19.5814 19.5825 16 24.0005 16H55.8721V16ZM55.1693 52.6464V27.2327C55.1693 25.838 54.0389 24.7077 52.6453 24.7077H27.2327C25.838 24.7077 24.7077 25.838 24.7077 27.2327V52.6464C24.7077 54.0411 25.838 55.1704 27.2327 55.1704H52.6453C54.0389 55.1704 55.1693 54.0411 55.1693 52.6464ZM34.8568 46.4649C34.0561 46.4649 33.4077 45.8121 33.4077 45.0082V34.8644C33.4077 34.0605 34.0561 33.4077 34.8568 33.4077H45.0158C45.8187 33.4077 46.4649 34.0605 46.4649 34.8644V45.0082C46.4649 45.8121 45.8187 46.4649 45.0158 46.4649H34.8568Z" fill="white"></path></g></g><defs><filter id="filterm45" x="0" y="-1" width="80" height="81" filterUnits="userSpaceOnUse" color-interpolation-filters="sRGB"><feFlood flood-opacity="0" result="BackgroundImageFix"></feFlood><feBlend mode="normal" in="SourceGraphic" in2="BackgroundImageFix" result="shape"></feBlend><feColorMatrix in="SourceAlpha" type="matrix" values="0 0 0 0 0 0 0 0 0 0 0 0 0 0 0 0 0 0 127 0" result="hardAlpha"></feColorMatrix><feOffset dy="-1"></feOffset><feGaussianBlur stdDeviation="0.5"></feGaussianBlur><feComposite in2="hardAlpha" operator="arithmetic" k2="-1" k3="1"></feComposite><feColorMatrix type="matrix" values="0 0 0 0 0 0 0 0 0 0 0 0 0 0 0 0 0 0 0.12 0"></feColorMatrix><feBlend mode="normal" in2="shape" result="effect1_innerShadow"></feBlend></filter><clipPath id="clipm45"><rect width="48" height="48" fill="white" transform="translate(16 16)"></rect></clipPath></defs></svg>
