<svg width="80" height="80" viewBox="0 0 80 80" fill="none" xmlns="http://www.w3.org/2000/svg">
<g filter="url(#filter0_i_3547_257179)">
<path d="M18.0952 0H61.9048C71.9048 0 80 8.09524 80 18.0952V61.9048C80 71.9048 71.9048 80 61.9048 80H18.0952C8.09524 80 0 71.9048 0 61.9048V18.0952C0 8.09524 8.09524 0 18.0952 0Z" fill="#FFFEFF"/>
<path d="M18.0952 0.5H61.9048C71.6286 0.5 79.5 8.37138 79.5 18.0952V61.9048C79.5 71.6286 71.6286 79.5 61.9048 79.5H18.0952C8.37138 79.5 0.5 71.6286 0.5 61.9048V18.0952C0.5 8.37138 8.37138 0.5 18.0952 0.5Z" stroke="black" stroke-opacity="0.05"/>
<path d="M57.7522 20H42.6564H37.5989H22.3499C21.0803 20 20 21.0066 20 22.2482V27.1942C20 28.4359 21.0293 29.4424 22.2989 29.4424C23.5684 29.4424 24.5977 28.4359 24.5977 27.1942V24.4964H35.1724V55.5036H32.4648C31.1952 55.5036 30.166 56.5102 30.166 57.7518C30.166 58.9934 31.1952 60 32.4648 60H47.6372C48.9068 60 49.9361 58.9934 49.9361 57.7518C49.9361 56.5102 48.9068 55.5036 47.6372 55.5036H44.8276V24.4964H55.4023V27.1942C55.4023 28.4359 56.4316 29.4424 57.7011 29.4424C58.9707 29.4424 60 28.4359 60 27.1942V22.2482C60 21.0066 59.0218 20 57.7522 20Z" fill="#313131"/>
</g>
<defs>
<filter id="filter0_i_3547_257179" x="0" y="-1" width="80" height="81" filterUnits="userSpaceOnUse" color-interpolation-filters="sRGB">
<feFlood flood-opacity="0" result="BackgroundImageFix"/>
<feBlend mode="normal" in="SourceGraphic" in2="BackgroundImageFix" result="shape"/>
<feColorMatrix in="SourceAlpha" type="matrix" values="0 0 0 0 0 0 0 0 0 0 0 0 0 0 0 0 0 0 127 0" result="hardAlpha"/>
<feOffset dy="-1"/>
<feGaussianBlur stdDeviation="0.5"/>
<feComposite in2="hardAlpha" operator="arithmetic" k2="-1" k3="1"/>
<feColorMatrix type="matrix" values="0 0 0 0 0 0 0 0 0 0 0 0 0 0 0 0 0 0 0.12 0"/>
<feBlend mode="normal" in2="shape" result="effect1_innerShadow_3547_257179"/>
</filter>
</defs>
</svg>
