<svg width="80" height="80" viewBox="0 0 80 80" fill="none" xmlns="http://www.w3.org/2000/svg">
<g filter="url(#filter0_i)">
<path d="M18.0952 0H61.9048C71.9048 0 80 8.09524 80 18.0952V61.9048C80 71.9048 71.9048 80 61.9048 80H18.0952C8.09524 80 0 71.9048 0 61.9048V18.0952C0 8.09524 8.09524 0 18.0952 0Z" fill="#020002"/>
<path d="M52.3062 32.3583C56.0659 35.0502 60.6718 36.6341 65.6464 36.6341V27.0461C64.7049 27.0463 63.7659 26.9479 62.8448 26.7525V34.2996C57.8707 34.2996 53.2654 32.7157 49.5046 30.024V49.5904C49.5046 59.3785 41.5827 67.3128 31.811 67.3128C28.1649 67.3128 24.7761 66.2087 21.9609 64.3152C25.1739 67.6058 29.6547 69.6471 34.6119 69.6471C44.3842 69.6471 52.3066 61.7128 52.3066 51.9243V32.3583H52.3062ZM55.7622 22.6851C53.8407 20.5825 52.5792 17.8654 52.3062 14.8614V13.6282H49.6513C50.3196 17.4462 52.5989 20.7081 55.7622 22.6851ZM28.1415 56.8041C27.068 55.3943 26.4879 53.6696 26.4905 51.8962C26.4905 47.4195 30.1139 43.7897 34.5843 43.7897C35.4174 43.7895 36.2456 43.9173 37.0395 44.1696V34.3673C36.1117 34.24 35.1752 34.1859 34.2392 34.2057V41.8354C33.4446 41.583 32.6161 41.4549 31.7828 41.4557C27.3124 41.4557 23.6891 45.0851 23.6891 49.5624C23.6891 52.7281 25.5003 55.469 28.1415 56.8041Z" fill="#FF004F"/>
<path d="M49.5046 30.0238C53.2653 32.7155 57.8706 34.2994 62.8448 34.2994V26.7523C60.0682 26.1599 57.6102 24.7066 55.7621 22.6851C52.5987 20.7079 50.3195 17.446 49.6513 13.6282H42.6777V51.9239C42.6619 56.3884 39.0447 60.0033 34.5839 60.0033C31.9552 60.0033 29.6199 58.7483 28.1409 56.8041C25.4998 55.4689 23.6887 52.7279 23.6887 49.5626C23.6887 45.0857 27.312 41.4559 31.7823 41.4559C32.6388 41.4559 33.4644 41.5894 34.2387 41.8356V34.2059C24.6387 34.4046 16.918 42.2613 16.918 51.9241C16.918 56.7476 18.8406 61.1204 21.9611 64.3154C24.7762 66.2087 28.1651 67.313 31.8111 67.313C41.583 67.313 49.5048 59.3783 49.5048 49.5904V30.0238H49.5046Z" fill="#FFFEFF"/>
<path d="M62.8454 26.7523V24.7116C60.3416 24.7154 57.887 24.0131 55.7627 22.6849C57.6432 24.7471 60.1194 26.1689 62.8454 26.7523ZM49.6518 13.6282C49.5881 13.2633 49.5391 12.896 49.5051 12.5273V11.2941H39.8765V49.5902C39.8612 54.0541 36.2441 57.6691 31.7829 57.6691C30.4732 57.6691 29.2366 57.3577 28.1414 56.8043C29.6204 58.7483 31.9558 60.0032 34.5844 60.0032C39.0448 60.0032 42.6627 56.3886 42.6783 51.9241V13.6282H49.6518ZM34.2397 34.2059V32.0335C33.4352 31.9233 32.624 31.8681 31.8119 31.8685C22.0392 31.8683 14.1172 39.8029 14.1172 49.5902C14.1172 55.7263 17.2307 61.1341 21.9618 64.3151C18.8414 61.1202 16.9187 56.7473 16.9187 51.9239C16.9187 42.2614 24.6393 34.4046 34.2397 34.2059Z" fill="#00F2EA"/>
</g>
<defs>
<filter id="filter0_i" x="0" y="-1" width="80" height="81" filterUnits="userSpaceOnUse" color-interpolation-filters="sRGB">
<feFlood flood-opacity="0" result="BackgroundImageFix"/>
<feBlend mode="normal" in="SourceGraphic" in2="BackgroundImageFix" result="shape"/>
<feColorMatrix in="SourceAlpha" type="matrix" values="0 0 0 0 0 0 0 0 0 0 0 0 0 0 0 0 0 0 127 0" result="hardAlpha"/>
<feOffset dy="-1"/>
<feGaussianBlur stdDeviation="0.5"/>
<feComposite in2="hardAlpha" operator="arithmetic" k2="-1" k3="1"/>
<feColorMatrix type="matrix" values="0 0 0 0 0 0 0 0 0 0 0 0 0 0 0 0 0 0 0.12 0"/>
<feBlend mode="normal" in2="shape" result="effect1_innerShadow"/>
</filter>
</defs>
</svg>
