<svg width="80" height="80" viewBox="0 0 80 80" fill="none" xmlns="http://www.w3.org/2000/svg">
<g filter="url(#filter0_i)">
<path d="M18.0952 0H61.9048C71.9048 0 80 8.09524 80 18.0952V61.9048C80 71.9048 71.9048 80 61.9048 80H18.0952C8.09524 80 0 71.9048 0 61.9048V18.0952C0 8.09524 8.09524 0 18.0952 0Z"/>
<path d="M60.204 16.0588C61.9656 18.9759 62.7598 21.9805 62.7598 25.776C62.7598 37.8815 52.453 53.6074 44.0878 64.65H24.9812L17.3184 18.7093L34.0483 17.1167L38.0997 49.8065C41.8853 43.6232 46.5568 33.906 46.5568 27.281C46.5568 23.6547 45.9371 21.1847 44.9688 19.151L60.204 16.0588Z" fill="white"/>
</g>
<defs>
<filter id="filter0_i" x="0" y="-1" width="80" height="81" filterUnits="userSpaceOnUse" color-interpolation-filters="sRGB">
<feFlood flood-opacity="0" result="BackgroundImageFix"/>
<feBlend mode="normal" in="SourceGraphic" in2="BackgroundImageFix" result="shape"/>
<feColorMatrix in="SourceAlpha" type="matrix" values="0 0 0 0 0 0 0 0 0 0 0 0 0 0 0 0 0 0 127 0" result="hardAlpha"/>
<feOffset dy="-1"/>
<feGaussianBlur stdDeviation="0.5"/>
<feComposite in2="hardAlpha" operator="arithmetic" k2="-1" k3="1"/>
<feColorMatrix type="matrix" values="0 0 0 0 0 0 0 0 0 0 0 0 0 0 0 0 0 0 0.12 0"/>
<feBlend mode="normal" in2="shape" result="effect1_innerShadow"/>
</filter>
</defs>
</svg>
