<svg width="80" height="80" viewBox="0 0 80 80" fill="none" xmlns="http://www.w3.org/2000/svg">
<g filter="url(#filter0_i)">
<g filter="url(#filter1_i)">
<path d="M18.0952 0H61.9048C71.9048 0 80 8.09524 80 18.0952V61.9048C80 71.9048 71.9048 80 61.9048 80H18.0952C8.09524 80 0 71.9048 0 61.9048V18.0952C0 8.09524 8.09524 0 18.0952 0Z" fill="#FF3753"/>
</g>
<path fill-rule="evenodd" clip-rule="evenodd" d="M53.3421 28.4358L51.6451 28.821L51.641 28.8197L46.0035 30.0973C45.9725 30.1044 45.9415 30.1115 45.9105 30.1186C45.3622 30.2445 44.8128 30.3707 44.2452 30.3314C43.8431 30.3033 43.4587 30.2685 43.0771 30.0103C42.8713 29.8672 42.6982 29.6826 42.5687 29.4685C42.033 28.6364 42.0071 27.4097 42.0003 26.4545C41.9921 25.3966 42.1644 24.3448 42.5101 23.3428C42.6022 23.0977 42.722 22.8634 42.8672 22.6445C42.9419 22.5415 43.0219 22.4423 43.1071 22.3475C43.2787 22.1641 43.4877 22.0183 43.7204 21.9194C43.9432 21.8277 44.1837 21.7848 44.4251 21.7936C44.7863 21.7963 45.2143 21.8725 45.8222 22.0545C45.9164 22.0856 46.0114 22.1141 46.1071 22.1401C46.4991 22.26 46.9376 22.4141 47.4353 22.589C47.5761 22.6385 47.7216 22.6896 47.8722 22.7421C48.9272 23.1047 49.9713 23.4752 51.0154 23.8565L52.8759 24.5241C53.2162 24.6455 53.5454 24.7949 53.86 24.9709C54.1272 25.1193 54.3624 25.3174 54.5524 25.5542C54.6873 25.7411 54.7853 25.9512 54.8414 26.1736L54.8482 26.203C54.9573 26.6671 54.8786 27.1546 54.6287 27.5629C54.3787 27.9712 53.9771 28.2683 53.5084 28.3916C53.4395 28.4137 53.3809 28.427 53.3451 28.4351L53.3421 28.4358ZM68.7348 17.4016C69.4915 18.1539 70.1144 19.0252 70.5776 19.9796C70.9974 20.8411 71.5195 21.9555 71.4063 22.9374C71.3856 23.1851 71.3122 23.4257 71.191 23.6438C70.9634 24.0398 70.6321 24.2364 70.2832 24.4331C69.7951 24.7122 69.2479 24.8354 68.7029 24.958C68.6681 24.9659 68.6333 24.9737 68.5985 24.9816L61.2627 26.6458C61.2064 26.6593 61.1496 26.67 61.0923 26.6779C60.6163 26.768 60.1233 26.6733 59.717 26.4138C59.3108 26.1543 59.0229 25.7502 58.9142 25.2866L58.9073 25.2572C58.8597 25.0326 58.8541 24.8014 58.891 24.5749C58.9567 24.28 59.0803 24.0006 59.2549 23.7521C59.4589 23.4586 59.6878 23.1824 59.9392 22.9267L61.3158 21.5247C62.0859 20.7341 62.8588 19.9501 63.6452 19.1702C63.7501 19.0653 63.8516 18.9635 63.9499 18.8647C64.3283 18.4849 64.6607 18.1512 64.9647 17.8699C64.9824 17.8538 65.0005 17.8374 65.0187 17.821C65.0761 17.7693 65.1341 17.7169 65.1827 17.6692C65.6489 17.2451 65.9992 16.9909 66.3222 16.8331C66.5362 16.722 66.772 16.6551 67.0133 16.6418C67.2659 16.6303 67.5181 16.6714 67.7534 16.7622C67.8726 16.8109 67.9891 16.8658 68.1024 16.9267C68.2124 16.9912 68.3188 17.0613 68.4213 17.1368C68.5322 17.2174 68.637 17.306 68.7348 17.4016ZM58.0107 20.7995C57.9719 21.5516 57.9276 22.4117 57.4448 23.007H57.4462C57.4066 23.0511 57.3671 23.0913 57.3235 23.1314C57.0877 23.3762 56.7878 23.5542 56.4552 23.6438L56.3912 23.6572C56.0327 23.7388 55.6551 23.7147 55.3103 23.5863C55.2571 23.5689 55.2053 23.5501 55.1535 23.5287C54.4617 23.2042 54.0427 22.4608 53.6751 21.8087C53.6335 21.7349 53.5926 21.6623 53.552 21.5916C53.3709 21.2748 53.1898 20.958 53.0087 20.6412C51.8575 18.6276 50.7061 16.6136 49.5719 14.5896C49.4431 14.3593 49.3111 14.1316 49.1793 13.9042C48.8032 13.2554 48.4283 12.6086 48.1326 11.9113C48.1033 11.8416 48.0732 11.7711 48.0428 11.7C47.7341 10.9769 47.3963 10.1855 47.5601 9.40965C47.8763 7.90196 49.7505 7.11533 51.0835 6.68724C51.4924 6.55747 51.9123 6.44911 52.3348 6.35011C52.7555 6.25133 53.1808 6.17275 53.6092 6.11466C54.9982 5.9247 57.0345 5.82436 57.9887 7.04175C58.4832 7.67264 58.5303 8.53371 58.5733 9.3186C58.5773 9.39252 58.5813 9.46576 58.5857 9.53808C58.6311 10.2924 58.5824 11.035 58.5336 11.78C58.5164 12.0418 58.4993 12.3039 58.4862 12.5668C58.3744 14.7776 58.2403 16.9874 58.1062 19.197C58.0783 19.6563 58.0504 20.1156 58.0227 20.5749C58.0185 20.6484 58.0146 20.7234 58.0107 20.7995ZM55.967 29.5388C56.3063 29.651 56.6008 29.8657 56.8083 30.1522C56.9307 30.3406 57.0218 30.547 57.0781 30.7635C57.2063 31.2144 57.2213 31.7174 57.2035 32.1695L57.1272 34.1388C57.0918 35.2451 57.0468 36.3488 56.9882 37.4578C56.9823 37.588 56.9767 37.7148 56.9713 37.8383C56.9468 38.3972 56.9253 38.8873 56.8873 39.3147C56.8846 39.3427 56.8815 39.3715 56.8784 39.4004C56.8708 39.4723 56.863 39.5451 56.8601 39.609C56.8001 40.2378 56.7101 40.6605 56.5738 40.995C56.4907 41.2211 56.3571 41.4257 56.184 41.5956C56.0015 41.772 55.7832 41.9088 55.5434 41.997C55.42 42.0392 55.2944 42.0749 55.1672 42.104C55.04 42.1278 54.9117 42.1457 54.7828 42.1575C54.6438 42.1696 54.5034 42.1722 54.363 42.1655C53.5424 42.1201 52.7314 41.9676 51.9504 41.7134C51.0127 41.4043 50.1212 41.0043 49.3061 40.4478C49.0887 40.2918 48.8899 40.1123 48.7132 39.9127C48.6314 39.8124 48.5551 39.708 48.4842 39.601C48.352 39.3856 48.2661 39.1461 48.2334 38.8973C48.2037 38.6578 48.2279 38.4149 48.3043 38.1856C48.4065 37.8405 48.6042 37.4525 48.9545 36.9227C48.989 36.8728 49.0259 36.8158 49.0628 36.7587C49.0813 36.7302 49.0998 36.7016 49.118 36.6739C49.3616 36.3103 49.6569 35.9061 49.9955 35.4427C50.0643 35.3486 50.1348 35.252 50.2071 35.1528C50.86 34.2445 51.5211 33.3495 52.1889 32.4558L53.3693 30.8639C53.4158 30.8218 53.4552 30.7654 53.4933 30.7108C53.5134 30.682 53.5331 30.6538 53.5533 30.6284C53.7826 30.3285 54.0507 30.0591 54.3507 29.8271C54.4558 29.7495 54.5675 29.681 54.6847 29.6224C54.7603 29.5851 54.8387 29.5534 54.9191 29.5274C55.2609 29.4226 55.6277 29.4266 55.967 29.5388ZM68.9842 32.3769C69.5349 32.7033 69.8838 32.9669 70.1292 33.2331V33.2318C70.3005 33.4051 70.4308 33.6134 70.5108 33.8418C70.5919 34.0798 70.6212 34.3318 70.5967 34.5816C70.5817 34.7087 70.5599 34.8344 70.5313 34.9602C70.498 35.0829 70.4584 35.2039 70.4127 35.3227C70.3636 35.4525 70.3064 35.5769 70.2382 35.6973C69.753 36.5481 69.1287 37.292 68.4227 37.9742C67.8346 38.5386 67.1733 39.0244 66.4558 39.4191C66.2175 39.5434 65.9655 39.6408 65.7048 39.7094C65.5775 39.7384 65.4488 39.7607 65.319 39.7762C65.07 39.8046 64.8177 39.7785 64.5802 39.6998C64.3426 39.6212 64.1258 39.492 63.9451 39.3214C63.6739 39.0766 63.4067 38.7368 63.0728 38.1976C63.0413 38.1425 63.0033 38.0815 62.9655 38.021C62.9492 37.9949 62.933 37.9689 62.9174 37.9435C62.6999 37.5866 62.4703 37.1715 62.209 36.699C62.1411 36.5763 62.0712 36.4498 61.9987 36.3194C61.4535 35.3481 60.9219 34.3742 60.3958 33.395L59.4526 31.6572C59.2345 31.2572 59.0246 30.801 58.9387 30.3381C58.8951 30.1214 58.8869 29.898 58.9128 29.6772C58.9712 29.3305 59.1397 29.0107 59.3943 28.7635C59.6488 28.5163 59.9764 28.3543 60.3303 28.3006C60.4144 28.2904 60.4991 28.2855 60.5839 28.2859C60.7147 28.2883 60.8452 28.3017 60.9737 28.3261C61.3468 28.4052 61.7078 28.5316 62.0478 28.702C62.0783 28.7165 62.1094 28.7338 62.1409 28.7512C62.1996 28.7838 62.2596 28.817 62.319 28.8344L64.0869 29.7548C65.0887 30.2712 66.0796 30.7903 67.0705 31.3254C67.2174 31.4037 67.3595 31.4789 67.4968 31.5516C67.9619 31.7978 68.3716 32.0147 68.7253 32.2244C68.7501 32.2391 68.7757 32.2544 68.8014 32.2698C68.8644 32.3074 68.9281 32.3455 68.9842 32.3769ZM47.9476 47C46.7529 47 45.7638 47.9742 45.7638 49.1668V66.0974C45.7608 66.3807 45.815 66.6619 45.9234 66.9246C46.0318 67.1873 46.1922 67.4263 46.3953 67.6278C46.5983 67.8292 46.8401 67.9892 47.1065 68.0984C47.373 68.2077 47.6588 68.264 47.9476 68.2641C49.1422 68.2641 50.1325 67.29 50.1325 66.0974V49.1846C50.0814 47.9742 49.1252 47 47.9476 47ZM43.1871 61.0249C43.63 60.5712 43.7151 59.9493 43.7322 59.6138V59.6127C43.7322 58.9919 43.63 58.4881 43.5278 58.1191L43.5255 58.1102C43.2645 57.139 42.8196 56.2247 42.2139 55.4151C41.9754 55.0953 41.7869 54.8768 41.7187 54.8099C40.3026 53.3153 38.4765 52.7613 38.1518 52.6766C36.785 52.2957 35.3372 52.2957 33.9704 52.6766L33.9329 52.6877L33.9308 52.6884C33.256 52.8805 31.6252 53.3447 30.4046 54.8099C30.3672 54.8547 30.3275 54.8995 30.2869 54.9455C30.277 54.9567 30.267 54.968 30.257 54.9793C30.14 55.1109 30.0162 55.2502 29.9095 55.4151C28.9192 56.7248 28.373 58.3376 28.3048 59.9493C28.2197 61.5955 28.6467 63.2919 29.5676 64.6696C29.8365 65.0636 30.1394 65.4342 30.4727 65.7775C30.808 66.1165 31.1732 66.4257 31.5641 66.7015C31.9559 66.9696 32.3731 67.2002 32.8098 67.3903C33.2464 67.5914 33.7047 67.7436 34.176 67.8439C34.4667 67.9108 34.7733 67.9788 35.0799 68.0122C35.3706 68.0457 35.6614 68.0457 35.9339 68.0457C37.0541 68.0798 38.171 67.9086 39.2272 67.5407C39.6412 67.3909 40.041 67.2056 40.4219 66.9868C41.0873 66.6011 41.7187 65.9625 41.9402 65.2235C42.1287 64.5681 41.9231 63.9306 41.411 63.4937C40.9851 63.1236 40.4037 63.0233 39.8586 63.1069C39.3019 63.2037 38.7769 63.4705 38.2667 63.7298L38.2642 63.7311L38.204 63.7623C37.4693 64.1312 36.7186 64.4009 35.8646 64.4009C35.0629 64.4009 34.4144 64.0643 34.2271 63.9473C34.0726 63.8626 33.7138 63.662 33.339 63.3087C32.7247 62.7213 32.4521 62.0826 32.3158 61.6624C33.8773 61.6546 35.4388 61.6501 37.0002 61.6457C38.5617 61.6423 40.1232 61.6379 41.6847 61.629C42.0605 61.629 42.709 61.5119 43.1871 61.0249ZM32.384 58.9584C32.5721 58.1262 33.0411 57.3808 33.7149 56.8429L33.7138 56.8418C34.3855 56.3068 35.2222 56.011 36.0872 56.0025C36.9568 56.0123 37.7981 56.3078 38.4765 56.8418C39.1501 57.3832 39.6237 58.1269 39.8245 58.9584H32.384ZM57.0268 54.6427C58.2896 53.2484 60.0646 52.3913 62.0099 52.3913C65.9187 52.3913 69.0927 55.9189 69.1098 60.2513C69.1098 64.5849 65.9357 68.0624 62.0269 68.0624C60.0646 68.0624 58.3067 67.1885 57.0439 65.8109V70.85C57.0452 71.1321 56.9897 71.4117 56.8805 71.6728C56.7713 71.9338 56.6106 72.171 56.4077 72.3708C56.2047 72.5707 55.9635 72.7291 55.6979 72.8371C55.4323 72.9451 55.1475 73.0004 54.8601 73C54.5725 73.0006 54.2876 72.9453 54.0219 72.8374C53.7562 72.7295 53.5148 72.5711 53.3117 72.3712C53.1087 72.1714 52.9479 71.9341 52.8386 71.673C52.7293 71.4119 52.6738 71.1322 52.6751 70.85V54.7096C52.6689 54.1491 52.8873 53.6087 53.2832 53.2048C53.6791 52.8009 54.2209 52.5658 54.7918 52.5503C55.3627 52.5348 55.9169 52.7401 56.3349 53.1219C56.753 53.5037 57.0015 54.0315 57.0268 54.5915V54.6427ZM57.0268 60.2859C57.0268 62.6533 58.8359 64.5514 61.0549 64.5514C63.2727 64.5514 65.0647 62.6533 65.0817 60.2859C65.0817 57.9007 63.2727 56.0025 61.0549 56.0025C58.8188 56.0025 57.0268 57.9007 57.0268 60.2859ZM24.312 62.923L25.0286 61.3771C25.2735 60.8456 25.5202 60.315 25.767 59.7844C26.1837 58.8885 26.6004 57.9926 27.008 57.0926C27.385 56.2723 27.8233 55.3159 27.8097 54.4243C27.7927 54.0208 27.6905 53.6173 27.435 53.2651C27.182 52.915 26.8242 52.6509 26.4112 52.5095C25.9983 52.368 25.5508 52.3563 25.1308 52.476C23.9475 52.8237 23.4137 54.0977 22.9708 55.1566L22.8266 55.4987C22.6858 55.822 22.5563 56.1062 22.4553 56.328C22.3349 56.5899 22.2554 56.7638 22.2463 56.8084C21.9137 57.6229 21.5765 58.433 21.2393 59.243L21.239 59.2438C21.1677 59.416 21.0962 59.5883 21.0248 59.7605C20.7599 60.3994 20.495 61.0382 20.2329 61.6791C20.1992 61.6059 20.1569 61.5198 20.109 61.4221C20.0891 61.3815 20.0683 61.339 20.0466 61.2946L19.857 60.9067C19.7287 60.6381 19.6072 60.394 19.5027 60.1845C19.3846 59.9482 19.2892 59.7553 19.2256 59.6138C18.509 58.186 17.7924 56.7582 17.0588 55.3304C16.987 55.1904 16.9177 55.0447 16.8473 54.8967C16.8353 54.8715 16.8233 54.8463 16.8113 54.8211C16.357 53.8625 15.8698 52.836 14.7717 52.5094C14.2727 52.3546 13.7326 52.3894 13.2585 52.607C12.7844 52.8246 12.4109 53.2091 12.212 53.6842C11.6828 54.9113 12.3313 56.0694 12.9627 57.1115C13.5469 58.0651 14.1047 59.034 14.6354 60.0173C14.8762 60.4553 14.967 60.6225 15.5121 61.6368L16.256 63.0233C16.4412 63.3646 16.6248 63.7068 16.8067 64.0499C17.1304 64.6573 17.5188 65.384 17.9628 66.1977C17.9723 66.217 17.981 66.2367 17.9889 66.2567L18.0139 66.3147C17.9117 66.7015 17.6721 67.3568 17.127 67.9777C16.734 68.4313 16.4274 68.7846 15.9323 68.8682C15.4099 68.973 14.9273 68.7378 14.4515 68.5037C14.1653 68.3633 13.8825 68.2251 13.5941 68.1627C11.768 67.7425 10.3519 69.5737 11.3069 71.1687C12.2631 72.7481 14.8398 73.2519 16.5467 72.8819C20.0737 72.1322 21.6922 68.6011 23.0566 65.6242L23.0594 65.6181L23.3558 64.9716C23.6624 64.2828 23.9872 63.594 24.312 62.923Z" fill="white"/>
</g>
<defs>
<filter id="filter0_i" x="0" y="-1" width="80" height="81" filterUnits="userSpaceOnUse" color-interpolation-filters="sRGB">
<feFlood flood-opacity="0" result="BackgroundImageFix"/>
<feBlend mode="normal" in="SourceGraphic" in2="BackgroundImageFix" result="shape"/>
<feColorMatrix in="SourceAlpha" type="matrix" values="0 0 0 0 0 0 0 0 0 0 0 0 0 0 0 0 0 0 127 0" result="hardAlpha"/>
<feOffset dy="-1"/>
<feGaussianBlur stdDeviation="0.5"/>
<feComposite in2="hardAlpha" operator="arithmetic" k2="-1" k3="1"/>
<feColorMatrix type="matrix" values="0 0 0 0 0 0 0 0 0 0 0 0 0 0 0 0 0 0 0.12 0"/>
<feBlend mode="normal" in2="shape" result="effect1_innerShadow"/>
</filter>
<filter id="filter1_i" x="0" y="-1" width="80" height="81" filterUnits="userSpaceOnUse" color-interpolation-filters="sRGB">
<feFlood flood-opacity="0" result="BackgroundImageFix"/>
<feBlend mode="normal" in="SourceGraphic" in2="BackgroundImageFix" result="shape"/>
<feColorMatrix in="SourceAlpha" type="matrix" values="0 0 0 0 0 0 0 0 0 0 0 0 0 0 0 0 0 0 127 0" result="hardAlpha"/>
<feOffset dy="-1"/>
<feGaussianBlur stdDeviation="0.5"/>
<feComposite in2="hardAlpha" operator="arithmetic" k2="-1" k3="1"/>
<feColorMatrix type="matrix" values="0 0 0 0 0 0 0 0 0 0 0 0 0 0 0 0 0 0 0.12 0"/>
<feBlend mode="normal" in2="shape" result="effect1_innerShadow"/>
</filter>
</defs>
</svg>
